<svg width="517" height="180" viewBox="0 0 517 180" fill="none" xmlns="http://www.w3.org/2000/svg">
<path opacity="0.2" d="M503.302 63.1936L503.383 63.1427L504.278 62.1548L505.213 61.1415L506.108 60.1537L506.966 59.1347L507.733 58.2798L504.262 56.6011L503.495 57.4559L502.601 58.4438L501.747 59.4062L500.853 60.394L499.958 61.3818L499.876 61.4328L503.302 63.1936Z" fill="#0090CF"/>
<path opacity="0.2" d="M491.321 75.0126L491.744 74.588L492.753 73.6371L493.757 72.7428L494.766 71.7918L495.734 70.8663L496.239 70.3908L492.941 68.497L492.436 68.9725L491.468 69.898L490.5 70.8235L489.532 71.749L488.528 72.6433L488.027 73.0621L491.321 75.0126Z" fill="#0090CF"/>
<path opacity="0.2" d="M477.989 86.0497L478.03 86.0242L479.149 85.1668L480.228 84.3348L481.347 83.4774L482.388 82.6142L483.43 81.7511L483.471 81.7256L480.378 79.7045L480.341 79.6733L479.299 80.5365L478.258 81.3996L477.18 82.2316L476.101 83.0635L474.982 83.921L477.989 86.0497Z" fill="#0090CF"/>
<path opacity="0.2" d="M463.513 96.2328L464.373 95.698L465.525 94.9284L466.677 94.1588L467.87 93.3637L469.021 92.5941L469.435 92.2828L466.551 90.0777L466.101 90.3578L464.986 91.1586L463.834 91.9282L462.682 92.6978L461.571 93.442L460.711 93.9767L463.513 96.2328Z" fill="#0090CF"/>
<path opacity="0.2" d="M447.964 105.57L448.538 105.213L449.8 104.537L451.025 103.83L452.328 103.128L453.517 102.39L454.291 101.963L451.653 99.6047L450.879 100.032L449.653 100.739L448.428 101.446L447.244 102.128L445.982 102.804L445.408 103.161L447.964 105.57Z" fill="#0090CF"/>
<path opacity="0.2" d="M445.407 103.161L445.284 103.237L445.243 103.263L445.161 103.314L445.079 103.365L444.997 103.416L444.993 103.472L444.911 103.523L444.866 103.605L444.784 103.656L444.779 103.713L444.734 103.795L444.73 103.852L444.648 103.903L444.681 103.99L444.635 104.073L444.631 104.129L444.586 104.211L444.582 104.268L444.614 104.356L444.61 104.412L444.606 104.469L444.638 104.557L444.634 104.613L444.667 104.701L444.699 104.789L444.773 104.851L444.768 104.908L444.801 104.996L444.875 105.058L444.948 105.121L445.022 105.183L445.017 105.24L445.091 105.302L445.164 105.364L445.279 105.401L445.352 105.463L445.426 105.526L445.499 105.588L445.577 105.594L445.692 105.631L445.765 105.693L445.843 105.699L445.957 105.736L446.072 105.773L446.15 105.778L446.264 105.815L446.342 105.821L446.42 105.827L446.534 105.864L446.612 105.869L446.731 105.85L446.808 105.855L446.927 105.835L447.005 105.841L447.124 105.821L447.201 105.827L447.32 105.807L447.361 105.782L447.48 105.762L447.562 105.711L447.68 105.691L447.762 105.641L447.803 105.615L447.963 105.57L445.407 103.161Z" fill="#0090CF"/>
<path opacity="0.2" d="M438.086 110.681L438.204 110.662L438.245 110.636L438.327 110.585L438.373 110.503L438.455 110.452L438.536 110.401L438.582 110.319L438.623 110.294L438.668 110.212L438.75 110.161L438.754 110.104L438.799 110.022L438.803 109.965L438.849 109.883L438.853 109.827L438.898 109.744L438.902 109.688L438.907 109.631L438.952 109.549L438.919 109.461L438.924 109.405L438.891 109.317L438.895 109.26L438.863 109.172L438.867 109.116L438.834 109.028L438.761 108.966L438.765 108.909L438.692 108.847L438.659 108.759L438.586 108.696L438.553 108.609L438.479 108.546L438.406 108.484L438.369 108.453L438.296 108.39L438.181 108.354L438.108 108.291L437.993 108.254L437.956 108.223L437.842 108.186L437.768 108.124L437.654 108.087L437.576 108.081L437.498 108.076L437.384 108.039L437.347 108.007L437.192 107.996L437.114 107.99L436.999 107.953L436.922 107.948L436.803 107.968L436.725 107.962L436.648 107.956L436.529 107.976L436.41 107.996L436.332 107.99L436.214 108.01L436.132 108.061L436.054 108.055L435.935 108.075L435.853 108.126L435.771 108.176L435.652 108.196L438.086 110.681Z" fill="#0090CF"/>
<path opacity="0.2" d="M431.316 113.914L431.84 113.697L433.176 113.083L434.434 112.463L435.769 111.85L437.068 111.205L438.084 110.681L435.651 108.196L434.676 108.694L433.418 109.314L432.083 109.927L430.825 110.547L429.53 111.135L429.043 111.384L431.316 113.914Z" fill="#0090CF"/>
<path opacity="0.2" d="M429.043 111.384L428.961 111.435L428.879 111.486L428.797 111.536L428.715 111.587L428.674 111.613L428.592 111.664L428.51 111.715L428.465 111.797L428.424 111.822L428.379 111.904L428.334 111.986L428.293 112.012L428.248 112.094L428.202 112.176L428.198 112.233L428.153 112.315L428.149 112.372L428.145 112.428L428.177 112.516L428.132 112.598L428.128 112.655L428.16 112.743L428.156 112.799L428.189 112.887L428.184 112.944L428.217 113.031L428.249 113.119L428.286 113.15L428.319 113.238L428.392 113.301L428.466 113.363L428.461 113.42L428.572 113.513L428.645 113.575L428.682 113.607L428.756 113.669L428.829 113.731L428.903 113.794L428.98 113.799L429.054 113.862L429.168 113.899L429.242 113.961L429.32 113.967L429.434 114.004L429.512 114.009L429.585 114.072L429.741 114.083L429.778 114.114L429.855 114.12L430.011 114.131L430.089 114.137L430.207 114.117L430.322 114.154L430.399 114.16L430.481 114.109L430.596 114.146L430.678 114.095L430.756 114.101L430.874 114.081L430.993 114.061L431.075 114.01L431.153 114.016L431.235 113.965L431.317 113.914L429.043 111.384Z" fill="#0090CF"/>
<path opacity="0.2" d="M420.974 118.45L421.015 118.425L421.097 118.374L421.179 118.323L421.261 118.272L421.343 118.221L421.425 118.17L421.466 118.145L421.511 118.062L421.593 118.012L421.675 117.961L421.679 117.904L421.724 117.822L421.77 117.74L421.811 117.714L421.856 117.632L421.86 117.576L421.864 117.519L421.909 117.437L421.877 117.349L421.922 117.267L421.926 117.21L421.894 117.122L421.898 117.066L421.866 116.978L421.87 116.921L421.837 116.834L421.841 116.777L421.768 116.715L421.735 116.627L421.74 116.57L421.666 116.508L421.634 116.42L421.56 116.358L421.487 116.295L421.413 116.233L421.34 116.171L421.266 116.108L421.229 116.077L421.156 116.015L421.041 115.978L420.968 115.915L420.89 115.91L420.816 115.847L420.739 115.842L420.624 115.805L420.551 115.742L420.473 115.737L420.358 115.7L420.281 115.694L420.125 115.683L420.048 115.677L419.97 115.671L419.892 115.666L419.737 115.654L419.659 115.648L419.581 115.643L419.462 115.662L419.344 115.682L419.303 115.708L419.184 115.727L419.065 115.747L419.024 115.773L418.906 115.792L418.824 115.843L420.974 118.45Z" fill="#0090CF"/>
<path opacity="0.2" d="M413.805 121.284L414.247 121.117L415.615 120.591L416.983 120.065L418.356 119.483L419.724 118.957L420.973 118.451L418.823 115.844L417.614 116.324L416.283 116.882L414.915 117.407L413.547 117.933L412.256 118.465L411.814 118.632L413.805 121.284Z" fill="#0090CF"/>
<path opacity="0.2" d="M411.814 118.631L411.737 118.626L411.655 118.676L411.573 118.727L411.491 118.778L411.409 118.829L411.327 118.88L411.245 118.931L411.204 118.957L411.159 119.039L411.077 119.09L411.032 119.172L411.027 119.228L410.945 119.279L410.941 119.336L410.896 119.418L410.851 119.5L410.846 119.557L410.842 119.613L410.797 119.695L410.793 119.752L410.789 119.809L410.78 119.922L410.776 119.979L410.808 120.066L410.804 120.123L410.837 120.211L410.832 120.268L410.865 120.355L410.939 120.418L410.971 120.506L411.008 120.537L411.04 120.625L411.114 120.687L411.187 120.749L411.261 120.812L411.334 120.874L411.408 120.936L411.445 120.967L411.518 121.03L411.592 121.092L411.665 121.155L411.743 121.16L411.816 121.223L411.931 121.259L412.009 121.265L412.123 121.302L412.197 121.364L412.274 121.37L412.389 121.407L412.467 121.413L412.544 121.418L412.7 121.43L412.778 121.436L412.855 121.441L412.974 121.422L413.052 121.427L413.171 121.407L413.248 121.413L413.367 121.393L413.445 121.399L413.564 121.379L413.645 121.328L413.764 121.309L413.805 121.283L411.814 118.631Z" fill="#0090CF"/>
<path opacity="0.2" d="M402.963 125.157L403.041 125.162L403.123 125.111L403.205 125.06L403.287 125.01L403.405 124.99L403.451 124.908L403.492 124.882L403.574 124.831L403.656 124.78L403.738 124.729L403.783 124.647L403.824 124.622L403.869 124.54L403.873 124.483L403.918 124.401L404 124.35L404.005 124.293L404.05 124.211L404.054 124.155L404.058 124.098L404.067 123.985L404.071 123.928L404.075 123.872L404.043 123.784L404.047 123.727L404.014 123.639L404.019 123.583L403.986 123.495L403.99 123.438L403.958 123.35L403.884 123.288L403.852 123.2L403.778 123.138L403.746 123.05L403.672 122.988L403.635 122.956L403.562 122.894L403.488 122.832L403.415 122.769L403.378 122.738L403.305 122.676L403.19 122.639L403.076 122.602L403.039 122.571L402.924 122.534L402.851 122.472L402.773 122.466L402.659 122.429L402.544 122.392L402.466 122.387L402.352 122.35L402.274 122.344L402.196 122.338L402.078 122.358L402 122.352L401.885 122.315L401.767 122.335L401.689 122.329L401.57 122.349L401.492 122.343L401.41 122.394L401.292 122.414L401.173 122.434L401.091 122.485L402.963 125.157Z" fill="#0090CF"/>
<path opacity="0.2" d="M395.551 127.602L395.952 127.461L397.353 127.023L398.794 126.559L400.236 126.096L401.641 125.601L402.963 125.157L401.091 122.485L399.81 122.904L398.409 123.342L396.967 123.805L395.603 124.275L394.203 124.713L393.806 124.797L395.551 127.602Z" fill="#0090CF"/>
<path opacity="0.2" d="M393.807 124.797L393.725 124.848L393.643 124.899L393.524 124.919L393.442 124.97L393.36 125.021L393.278 125.072L393.237 125.097L393.155 125.148L393.11 125.23L393.028 125.281L392.987 125.307L392.942 125.389L392.86 125.44L392.856 125.496L392.81 125.578L392.728 125.629L392.724 125.686L392.679 125.768L392.675 125.825L392.629 125.907L392.625 125.963L392.658 126.051L392.654 126.108L392.686 126.196L392.641 126.278L392.637 126.334L392.669 126.422L392.706 126.453L392.697 126.567L392.771 126.629L392.804 126.717L392.877 126.779L392.873 126.836L392.905 126.924L392.979 126.986L393.052 127.048L393.126 127.111L393.163 127.142L393.236 127.204L393.31 127.267L393.383 127.329L393.498 127.366L393.534 127.397L393.649 127.434L393.722 127.496L393.8 127.502L393.874 127.564L394.029 127.576L394.066 127.607L394.18 127.644L394.258 127.649L394.373 127.686L394.45 127.692L394.569 127.672L394.647 127.678L394.761 127.715L394.88 127.695L394.958 127.701L395.077 127.681L395.154 127.687L395.273 127.667L395.355 127.616L395.474 127.596L395.552 127.602L393.807 124.797Z" fill="#0090CF"/>
<path opacity="0.2" d="M384.248 130.844L384.367 130.824L384.449 130.773L384.568 130.753L384.609 130.728L384.691 130.677L384.773 130.626L384.855 130.575L384.896 130.55L384.978 130.499L385.06 130.448L385.105 130.366L385.146 130.34L385.228 130.289L385.273 130.207L385.318 130.125L385.359 130.1L385.404 130.018L385.45 129.935L385.454 129.879L385.458 129.822L385.503 129.74L385.471 129.652L385.516 129.57L385.52 129.514L385.524 129.457L385.492 129.369L385.496 129.312L385.464 129.225L385.468 129.168L385.435 129.08L385.403 128.992L385.366 128.961L385.333 128.873L385.26 128.811L385.227 128.723L385.154 128.661L385.08 128.598L385.007 128.536L384.97 128.505L384.897 128.443L384.823 128.38L384.75 128.318L384.676 128.256L384.598 128.25L384.525 128.187L384.41 128.151L384.296 128.114L384.259 128.083L384.144 128.046L384.067 128.04L383.989 128.034L383.875 127.997L383.797 127.992L383.682 127.955L383.605 127.949L383.449 127.938L383.371 127.932L383.253 127.952L383.175 127.946L383.097 127.94L382.978 127.96L382.896 128.011L382.778 128.031L382.659 128.05L384.248 130.844Z" fill="#0090CF"/>
<path opacity="0.2" d="M376.6 132.787L376.956 132.728L378.43 132.352L379.904 131.977L381.378 131.601L382.852 131.225L384.249 130.844L382.659 128.05L381.304 128.406L379.83 128.782L378.397 129.132L376.959 129.539L375.49 129.858L375.129 129.974L376.6 132.787Z" fill="#0090CF"/>
<path opacity="0.2" d="M375.128 129.974L375.009 129.994L374.968 130.019L374.849 130.039L374.767 130.09L374.685 130.141L374.644 130.166L374.563 130.217L374.481 130.268L374.399 130.319L374.317 130.37L374.235 130.421L374.194 130.447L374.148 130.529L374.066 130.58L374.062 130.636L374.017 130.718L373.935 130.769L373.931 130.826L373.886 130.908L373.881 130.965L373.836 131.047L373.832 131.103L373.865 131.191L373.819 131.273L373.815 131.33L373.848 131.418L373.843 131.474L373.876 131.562L373.872 131.619L373.904 131.707L373.9 131.763L373.933 131.851L374.006 131.913L374.039 132.001L374.112 132.064L374.108 132.12L374.181 132.183L374.255 132.245L374.328 132.307L374.402 132.37L374.475 132.432L374.549 132.494L374.627 132.5L374.7 132.562L374.774 132.625L374.851 132.63L374.925 132.693L375.039 132.73L375.117 132.735L375.232 132.772L375.268 132.803L375.424 132.815L375.502 132.821L375.616 132.857L375.694 132.863L375.772 132.869L375.886 132.906L376.005 132.886L376.083 132.892L376.201 132.872L376.279 132.878L376.398 132.858L376.48 132.807L376.599 132.787L375.128 129.974Z" fill="#0090CF"/>
<path opacity="0.2" d="M364.915 135.402L365.034 135.382L365.152 135.362L365.234 135.312L365.312 135.317L365.394 135.266L365.476 135.215L365.558 135.164L365.64 135.114L365.681 135.088L365.763 135.037L365.845 134.986L365.927 134.935L365.968 134.91L366.013 134.828L366.095 134.777L366.14 134.695L366.144 134.638L366.19 134.556L366.231 134.53L366.276 134.448L366.28 134.392L366.325 134.31L366.329 134.253L366.338 134.14L366.342 134.083L366.346 134.026L366.314 133.939L366.318 133.882L366.285 133.794L366.331 133.712L366.257 133.65L366.225 133.562L366.229 133.505L366.196 133.417L366.123 133.355L366.09 133.267L366.017 133.205L365.943 133.143L365.907 133.111L365.833 133.049L365.759 132.987L365.686 132.924L365.649 132.893L365.576 132.831L365.461 132.794L365.388 132.732L365.314 132.669L365.236 132.664L365.159 132.658L365.044 132.621L364.971 132.559L364.852 132.578L364.778 132.516L364.701 132.51L364.545 132.499L364.467 132.493L364.39 132.487L364.312 132.482L364.156 132.47L364.079 132.465L363.96 132.484L363.841 132.504L363.764 132.498L363.682 132.549L364.915 135.402Z" fill="#0090CF"/>
<path opacity="0.2" d="M357.062 136.933L357.459 136.848L358.966 136.56L360.473 136.272L361.979 135.984L363.486 135.696L364.915 135.403L363.682 132.55L362.257 132.787L360.787 133.106L359.281 133.394L357.774 133.682L356.308 133.945L355.911 134.029L357.062 136.933Z" fill="#0090CF"/>
<path opacity="0.2" d="M355.91 134.029L355.833 134.023L355.714 134.043L355.632 134.094L355.513 134.114L355.472 134.139L355.39 134.19L355.271 134.21L355.189 134.261L355.108 134.312L355.026 134.363L354.985 134.388L354.939 134.47L354.857 134.521L354.775 134.572L354.771 134.629L354.689 134.68L354.644 134.762L354.64 134.819L354.558 134.869L354.554 134.926L354.508 135.008L354.504 135.065L354.459 135.147L354.492 135.235L354.446 135.317L354.442 135.374L354.438 135.43L354.47 135.518L354.466 135.575L354.499 135.662L354.531 135.75L354.527 135.807L354.56 135.895L354.592 135.982L354.666 136.045L354.661 136.102L354.735 136.164L354.767 136.252L354.841 136.314L354.914 136.376L354.951 136.408L355.025 136.47L355.098 136.532L355.213 136.569L355.249 136.6L355.323 136.663L355.437 136.7L355.511 136.762L355.589 136.768L355.703 136.804L355.74 136.836L355.854 136.873L355.969 136.909L356.047 136.915L356.165 136.895L356.28 136.932L356.358 136.938L356.435 136.944L356.55 136.981L356.669 136.961L356.746 136.967L356.865 136.947L356.984 136.927L357.062 136.933L355.91 134.029Z" fill="#0090CF"/>
<path opacity="0.2" d="M345.115 138.846L345.234 138.826L345.352 138.806L345.393 138.781L345.512 138.761L345.594 138.71L345.713 138.69L345.754 138.665L345.872 138.645L345.954 138.594L346.036 138.543L346.118 138.492L346.164 138.41L346.205 138.385L346.286 138.334L346.332 138.252L346.373 138.226L346.418 138.144L346.5 138.093L346.504 138.036L346.549 137.954L346.554 137.898L346.635 137.847L346.681 137.765L346.648 137.677L346.652 137.62L346.698 137.538L346.702 137.481L346.669 137.394L346.715 137.312L346.641 137.249L346.645 137.193L346.613 137.105L346.58 137.017L346.584 136.96L346.552 136.872L346.478 136.81L346.446 136.722L346.372 136.66L346.376 136.603L346.303 136.541L346.229 136.479L346.156 136.416L346.119 136.385L346.046 136.323L345.972 136.26L345.858 136.224L345.821 136.192L345.706 136.155L345.633 136.093L345.518 136.056L345.441 136.05L345.326 136.014L345.289 135.982L345.175 135.946L345.097 135.94L344.983 135.903L344.864 135.923L344.749 135.886L344.672 135.88L344.594 135.874L344.475 135.894L344.398 135.888L344.279 135.908L344.16 135.928L345.115 138.846Z" fill="#0090CF"/>
<path opacity="0.2" d="M337.064 139.905L337.498 139.852L338.996 139.677L340.577 139.452L342.116 139.251L343.655 139.051L345.116 138.845L344.162 135.928L342.741 136.108L341.202 136.308L339.663 136.508L338.16 136.74L336.662 136.914L336.228 136.968L337.064 139.905Z" fill="#0090CF"/>
<path opacity="0.2" d="M336.228 136.968L336.15 136.962L336.031 136.982L335.99 137.007L335.871 137.027L335.753 137.047L335.671 137.098L335.593 137.092L335.511 137.143L335.429 137.194L335.347 137.245L335.265 137.296L335.183 137.347L335.142 137.372L335.06 137.423L335.015 137.505L334.933 137.556L334.929 137.613L334.847 137.664L334.802 137.746L334.797 137.803L334.715 137.853L334.748 137.941L334.666 137.992L334.662 138.049L334.653 138.162L334.649 138.219L334.604 138.301L334.636 138.389L334.632 138.445L334.628 138.502L334.661 138.59L334.693 138.678L334.689 138.734L334.721 138.822L334.754 138.91L334.827 138.972L334.823 139.029L334.897 139.091L334.929 139.179L335.003 139.241L335.039 139.272L335.113 139.335L335.187 139.397L335.26 139.46L335.334 139.522L335.37 139.553L335.485 139.59L335.558 139.652L335.673 139.689L335.71 139.72L335.824 139.757L335.902 139.763L336.016 139.8L336.053 139.831L336.168 139.868L336.286 139.848L336.401 139.885L336.479 139.891L336.556 139.896L336.671 139.933L336.789 139.914L336.867 139.919L336.986 139.9L337.064 139.905L336.228 136.968Z" fill="#0090CF"/>
<path opacity="0.2" d="M324.936 141.121L325.054 141.101L325.132 141.107L325.251 141.087L325.329 141.093L325.447 141.073L325.529 141.022L325.611 140.971L325.689 140.977L325.771 140.926L325.853 140.875L325.935 140.824L325.976 140.799L326.058 140.748L326.14 140.697L326.222 140.646L326.267 140.564L326.308 140.538L326.39 140.487L326.435 140.405L326.48 140.323L326.485 140.266L326.567 140.216L326.571 140.159L326.616 140.077L326.62 140.02L326.665 139.938L326.633 139.85L326.637 139.794L326.682 139.711L326.65 139.624L326.654 139.567L326.621 139.479L326.589 139.391L326.593 139.335L326.561 139.247L326.565 139.19L326.491 139.128L326.459 139.04L326.385 138.978L326.348 138.947L326.275 138.884L326.242 138.796L326.169 138.734L326.095 138.672L326.059 138.641L325.985 138.578L325.871 138.541L325.797 138.479L325.76 138.448L325.646 138.411L325.572 138.349L325.458 138.312L325.38 138.306L325.266 138.269L325.188 138.263L325.114 138.201L324.996 138.221L324.881 138.184L324.803 138.178L324.726 138.173L324.57 138.161L324.492 138.155L324.415 138.15L324.296 138.169L324.936 141.121Z" fill="#0090CF"/>
<path opacity="0.2" d="M316.8 141.747L317.156 141.688L318.687 141.601L320.258 141.489L321.83 141.377L323.402 141.264L324.937 141.121L324.297 138.169L322.803 138.287L321.232 138.4L319.697 138.543L318.166 138.63L316.594 138.742L316.242 138.745L316.8 141.747Z" fill="#0090CF"/>
<path opacity="0.2" d="M316.241 138.745L316.122 138.765L316.044 138.759L315.962 138.81L315.884 138.805L315.766 138.824L315.684 138.875L315.565 138.895L315.524 138.92L315.405 138.94L315.323 138.991L315.241 139.042L315.159 139.093L315.118 139.118L315.036 139.169L314.954 139.22L314.909 139.302L314.868 139.328L314.786 139.379L314.741 139.461L314.659 139.512L314.655 139.569L314.61 139.651L314.606 139.707L314.56 139.789L314.556 139.846L314.511 139.928L314.507 139.985L314.461 140.067L314.494 140.155L314.49 140.211L314.485 140.268L314.518 140.356L314.551 140.444L314.505 140.526L314.579 140.588L314.575 140.645L314.607 140.732L314.681 140.795L314.713 140.883L314.75 140.914L314.783 141.002L314.856 141.064L314.93 141.126L315.003 141.189L315.04 141.22L315.113 141.282L315.187 141.345L315.301 141.381L315.338 141.413L315.412 141.475L315.526 141.512L315.641 141.549L315.677 141.58L315.792 141.617L315.87 141.622L315.984 141.659L316.062 141.665L316.176 141.702L316.254 141.708L316.369 141.745L316.487 141.725L316.565 141.731L316.68 141.767L316.798 141.748L316.241 138.745Z" fill="#0090CF"/>
<path opacity="0.2" d="M304.487 142.267L304.606 142.247L304.72 142.284L304.802 142.233L304.921 142.214L305.04 142.194L305.118 142.2L305.199 142.149L305.318 142.129L305.359 142.103L305.441 142.053L305.523 142.002L305.642 141.982L305.724 141.931L305.765 141.905L305.81 141.823L305.892 141.772L305.974 141.721L306.015 141.696L306.06 141.614L306.142 141.563L306.146 141.506L306.192 141.424L306.274 141.373L306.278 141.317L306.323 141.235L306.327 141.178L306.372 141.096L306.34 141.008L306.385 140.926L306.389 140.869L306.357 140.781L306.361 140.725L306.328 140.637L306.374 140.555L306.3 140.493L306.268 140.405L306.272 140.348L306.239 140.26L306.166 140.198L306.17 140.141L306.096 140.079L306.023 140.017L305.949 139.954L305.954 139.898L305.88 139.835L305.807 139.773L305.692 139.736L305.619 139.674L305.582 139.643L305.508 139.58L305.394 139.543L305.32 139.481L305.243 139.475L305.128 139.438L305.091 139.407L304.977 139.37L304.862 139.333L304.785 139.328L304.67 139.291L304.551 139.311L304.474 139.305L304.359 139.268L304.24 139.288L304.163 139.282L304.487 142.267Z" fill="#0090CF"/>
<path opacity="0.2" d="M296.27 142.404L296.544 142.395L298.149 142.371L299.712 142.372L301.316 142.347L302.92 142.323L304.488 142.267L304.163 139.282L302.596 139.338L301.033 139.337L299.465 139.392L297.902 139.391L296.298 139.416L296.064 139.399L296.27 142.404Z" fill="#0090CF"/>
<path opacity="0.2" d="M296.063 139.399L295.986 139.393L295.867 139.413L295.748 139.433L295.67 139.427L295.552 139.447L295.433 139.466L295.392 139.492L295.273 139.512L295.191 139.563L295.109 139.614L295.032 139.608L294.95 139.659L294.868 139.71L294.786 139.761L294.704 139.812L294.663 139.837L294.581 139.888L294.536 139.97L294.454 140.021L294.449 140.078L294.367 140.129L294.322 140.211L294.318 140.267L294.236 140.318L294.191 140.4L294.187 140.457L294.141 140.539L294.137 140.596L294.17 140.683L294.124 140.766L294.12 140.822L294.153 140.91L294.149 140.967L294.14 141.08L294.136 141.137L294.209 141.199L294.242 141.287L294.238 141.343L294.27 141.431L294.344 141.494L294.381 141.525L294.413 141.613L294.487 141.675L294.56 141.737L294.634 141.8L294.67 141.831L294.744 141.893L294.817 141.955L294.891 142.018L294.928 142.049L295.042 142.086L295.116 142.148L295.23 142.185L295.308 142.191L295.381 142.253L295.459 142.259L295.574 142.296L295.688 142.333L295.766 142.338L295.88 142.375L295.958 142.381L296.036 142.387L296.191 142.398L296.269 142.404L296.063 139.399Z" fill="#0090CF"/>
<path opacity="0.2" d="M283.933 142.237L284.052 142.218L284.129 142.223L284.248 142.204L284.326 142.209L284.445 142.19L284.563 142.17L284.641 142.175L284.723 142.125L284.842 142.105L284.883 142.079L284.965 142.028L285.083 142.009L285.165 141.958L285.206 141.932L285.288 141.881L285.37 141.83L285.452 141.779L285.534 141.729L285.538 141.672L285.62 141.621L285.666 141.539L285.748 141.488L285.752 141.431L285.797 141.349L285.838 141.324L285.883 141.242L285.928 141.16L285.933 141.103L285.978 141.021L285.945 140.933L285.95 140.876L285.995 140.794L285.962 140.706L285.966 140.65L285.934 140.562L285.938 140.505L285.906 140.418L285.873 140.33L285.841 140.242L285.804 140.211L285.771 140.123L285.698 140.061L285.661 140.029L285.628 139.942L285.555 139.879L285.481 139.817L285.408 139.755L285.371 139.723L285.298 139.661L285.183 139.624L285.11 139.562L285.073 139.531L284.958 139.494L284.885 139.431L284.807 139.426L284.693 139.389L284.578 139.352L284.541 139.321L284.386 139.309L284.308 139.304L284.194 139.267L284.116 139.261L284.001 139.224L283.883 139.244L283.933 142.237Z" fill="#0090CF"/>
<path opacity="0.2" d="M275.711 141.89L275.788 141.896L277.347 141.954L278.943 142.042L280.58 142.106L282.139 142.163L283.776 142.227L283.931 142.238L283.881 139.244L283.726 139.233L282.166 139.175L280.607 139.118L279.048 139.06L277.453 138.971L275.857 138.883L275.816 138.908L275.711 141.89Z" fill="#0090CF"/>
<path opacity="0.2" d="M275.816 138.908L275.701 138.871L275.583 138.89L275.505 138.885L275.386 138.905L275.267 138.924L275.19 138.919L275.108 138.969L274.989 138.989L274.911 138.984L274.829 139.034L274.711 139.054L274.629 139.105L274.588 139.131L274.506 139.182L274.424 139.232L274.342 139.283L274.26 139.334L274.219 139.36L274.137 139.411L274.055 139.462L274.01 139.544L273.969 139.569L273.923 139.651L273.919 139.708L273.837 139.759L273.792 139.841L273.788 139.898L273.743 139.98L273.734 140.093L273.73 140.15L273.726 140.206L273.681 140.288L273.713 140.376L273.709 140.433L273.741 140.521L273.737 140.577L273.77 140.665L273.765 140.722L273.798 140.81L273.835 140.841L273.867 140.928L273.9 141.016L273.973 141.079L274.047 141.141L274.043 141.198L274.116 141.26L274.19 141.322L274.263 141.385L274.3 141.416L274.414 141.453L274.488 141.515L274.561 141.577L274.598 141.609L274.713 141.646L274.827 141.682L274.901 141.745L274.978 141.75L275.093 141.787L275.171 141.793L275.285 141.83L275.363 141.836L275.477 141.873L275.555 141.878L275.711 141.89L275.816 138.908Z" fill="#0090CF"/>
<path opacity="0.2" d="M263.35 140.982L263.464 141.019L263.583 140.999L263.698 141.036L263.739 141.011L263.857 140.991L263.972 141.028L264.054 140.977L264.173 140.957L264.291 140.937L264.332 140.912L264.451 140.892L264.492 140.867L264.611 140.847L264.693 140.796L264.775 140.745L264.857 140.694L264.898 140.669L264.98 140.618L265.062 140.567L265.107 140.485L265.148 140.459L265.193 140.377L265.275 140.326L265.32 140.244L265.361 140.219L265.406 140.137L265.452 140.054L265.456 139.998L265.501 139.916L265.505 139.859L265.55 139.777L265.555 139.72L265.522 139.632L265.567 139.55L265.535 139.463L265.539 139.406L265.507 139.318L265.511 139.261L265.478 139.174L265.405 139.111L265.372 139.024L265.376 138.967L265.303 138.905L265.27 138.817L265.234 138.786L265.16 138.723L265.087 138.661L265.013 138.598L264.976 138.567L264.903 138.505L264.829 138.443L264.756 138.38L264.719 138.349L264.604 138.312L264.531 138.25L264.416 138.213L264.339 138.207L264.224 138.17L264.151 138.108L264.032 138.128L263.958 138.065L263.881 138.06L263.725 138.048L263.648 138.043L263.35 140.982Z" fill="#0090CF"/>
<path opacity="0.2" d="M255.163 140.181L256.558 140.341L258.108 140.511L259.737 140.688L261.328 140.833L262.92 140.979L263.349 140.982L263.647 138.042L263.258 138.014L261.667 137.868L260.075 137.723L258.524 137.552L256.933 137.407L255.538 137.247L255.163 140.181Z" fill="#0090CF"/>
<path opacity="0.2" d="M255.539 137.247L255.461 137.241L255.347 137.204L255.228 137.224L255.15 137.218L255.032 137.238L254.954 137.232L254.835 137.252L254.716 137.272L254.676 137.297L254.557 137.317L254.516 137.343L254.397 137.362L254.315 137.413L254.196 137.433L254.155 137.458L254.073 137.509L253.991 137.56L253.91 137.611L253.868 137.637L253.787 137.688L253.741 137.77L253.659 137.821L253.655 137.877L253.573 137.928L253.528 138.01L253.446 138.061L253.442 138.118L253.397 138.2L253.351 138.282L253.347 138.339L253.38 138.426L253.334 138.509L253.33 138.565L253.285 138.647L253.318 138.735L253.313 138.792L253.346 138.88L253.378 138.967L253.374 139.024L253.407 139.112L253.443 139.143L253.476 139.231L253.55 139.293L253.545 139.35L253.619 139.412L253.692 139.475L253.725 139.562L253.762 139.594L253.835 139.656L253.909 139.718L253.982 139.781L254.097 139.817L254.133 139.849L254.207 139.911L254.321 139.948L254.358 139.979L254.473 140.016L254.546 140.078L254.661 140.115L254.738 140.121L254.853 140.158L254.931 140.163L255.045 140.2L255.164 140.181L255.539 137.247Z" fill="#0090CF"/>
<path opacity="0.2" d="M242.89 138.624L243.045 138.636L243.123 138.641L243.201 138.647L243.319 138.627L243.397 138.633L243.516 138.613L243.63 138.65L243.712 138.599L243.79 138.605L243.909 138.585L243.986 138.591L244.068 138.54L244.15 138.489L244.269 138.469L244.351 138.418L244.392 138.393L244.474 138.342L244.556 138.291L244.638 138.24L244.679 138.215L244.761 138.164L244.843 138.113L244.888 138.031L244.929 138.005L245.011 137.954L245.056 137.872L245.101 137.79L245.106 137.733L245.151 137.651L245.196 137.569L245.2 137.513L245.204 137.456L245.25 137.374L245.217 137.286L245.262 137.204L245.267 137.147L245.234 137.059L245.238 137.003L245.206 136.915L245.21 136.858L245.177 136.771L245.104 136.708L245.108 136.652L245.035 136.589L245.002 136.501L244.929 136.439L244.892 136.408L244.859 136.32L244.786 136.258L244.712 136.195L244.639 136.133L244.602 136.102L244.487 136.065L244.414 136.003L244.34 135.94L244.263 135.935L244.189 135.872L244.075 135.835L244.038 135.804L243.923 135.767L243.809 135.73L243.731 135.725L243.617 135.688L243.498 135.708L242.89 138.624Z" fill="#0090CF"/>
<path opacity="0.2" d="M234.777 137.345L235.742 137.501L237.325 137.76L238.908 138.019L240.491 138.278L242.115 138.511L242.889 138.625L243.497 135.708L242.724 135.594L241.177 135.367L239.594 135.108L238.011 134.849L236.428 134.591L235.504 134.409L234.777 137.345Z" fill="#0090CF"/>
<path opacity="0.2" d="M235.504 134.408L235.386 134.428L235.308 134.422L235.194 134.385L235.116 134.38L234.997 134.399L234.919 134.394L234.801 134.414L234.723 134.408L234.604 134.428L234.485 134.447L234.444 134.473L234.326 134.493L234.244 134.543L234.166 134.538L234.084 134.589L233.965 134.608L233.883 134.659L233.842 134.685L233.76 134.736L233.678 134.787L233.596 134.838L233.514 134.889L233.51 134.945L233.428 134.996L233.383 135.078L233.342 135.104L233.297 135.186L233.252 135.268L233.206 135.35L233.202 135.407L233.157 135.489L233.153 135.545L233.108 135.627L233.103 135.684L233.136 135.772L233.091 135.854L233.086 135.911L233.119 135.998L233.115 136.055L233.147 136.143L233.143 136.2L233.176 136.287L233.249 136.35L233.282 136.438L233.318 136.469L233.351 136.556L233.424 136.619L233.461 136.65L233.535 136.712L233.608 136.775L233.682 136.837L233.755 136.899L233.792 136.931L233.866 136.993L233.939 137.055L234.054 137.092L234.09 137.123L234.205 137.16L234.278 137.223L234.356 137.228L234.471 137.265L234.585 137.302L234.663 137.308L234.777 137.345L235.504 134.408Z" fill="#0090CF"/>
<path opacity="0.2" d="M222.674 135.089L222.752 135.095L222.907 135.106L222.985 135.112L223.099 135.149L223.218 135.129L223.296 135.135L223.414 135.115L223.492 135.121L223.611 135.101L223.689 135.107L223.771 135.056L223.848 135.062L223.967 135.042L224.049 134.991L224.168 134.971L224.25 134.92L224.291 134.895L224.409 134.875L224.491 134.824L224.573 134.773L224.614 134.748L224.66 134.666L224.742 134.615L224.824 134.564L224.865 134.538L224.91 134.456L224.955 134.374L225.037 134.323L225.041 134.267L225.086 134.185L225.132 134.102L225.136 134.046L225.14 133.989L225.185 133.907L225.153 133.819L225.198 133.737L225.202 133.681L225.17 133.593L225.174 133.536L225.141 133.448L225.146 133.392L225.113 133.304L225.08 133.216L225.044 133.185L225.011 133.097L224.974 133.066L224.942 132.978L224.909 132.89L224.836 132.828L224.762 132.765L224.726 132.734L224.652 132.672L224.579 132.61L224.505 132.547L224.468 132.516L224.354 132.479L224.28 132.417L224.166 132.38L224.129 132.349L224.014 132.312L223.9 132.275L223.785 132.238L223.708 132.232L223.593 132.196L222.674 135.089Z" fill="#0090CF"/>
<path opacity="0.2" d="M214.714 133.336L215.021 133.416L216.559 133.757L218.175 134.103L219.79 134.45L221.328 134.79L222.674 135.089L223.593 132.195L222.325 131.902L220.746 131.587L219.168 131.272L217.593 130.9L216.055 130.559L215.748 130.479L214.714 133.336Z" fill="#0090CF"/>
<path opacity="0.2" d="M215.749 130.48L215.634 130.443L215.557 130.437L215.401 130.426L215.323 130.42L215.246 130.414L215.127 130.434L215.049 130.428L214.971 130.423L214.853 130.442L214.734 130.462L214.656 130.456L214.537 130.476L214.46 130.47L214.378 130.521L214.259 130.541L214.177 130.592L214.136 130.617L214.054 130.668L213.935 130.688L213.853 130.739L213.812 130.765L213.73 130.815L213.685 130.898L213.603 130.949L213.521 130.999L213.517 131.056L213.435 131.107L213.39 131.189L213.345 131.271L213.304 131.297L213.259 131.379L213.254 131.435L213.209 131.518L213.205 131.574L213.196 131.687L213.192 131.744L213.188 131.801L213.18 131.914L213.175 131.971L213.208 132.058L213.204 132.115L213.236 132.203L213.273 132.234L213.305 132.322L213.338 132.41L213.334 132.466L213.407 132.529L213.481 132.591L213.477 132.648L213.55 132.71L213.624 132.772L213.697 132.835L213.734 132.866L213.807 132.928L213.881 132.991L213.954 133.053L214.069 133.09L214.106 133.121L214.22 133.158L214.294 133.22L214.408 133.257L214.486 133.263L214.6 133.3L214.715 133.337L215.749 130.48Z" fill="#0090CF"/>
<path opacity="0.2" d="M202.858 130.387L202.936 130.393L203.05 130.43L203.128 130.435L203.243 130.472L203.361 130.452L203.476 130.489L203.554 130.495L203.672 130.475L203.75 130.481L203.869 130.461L203.947 130.467L204.028 130.416L204.147 130.396L204.225 130.402L204.307 130.351L204.426 130.331L204.467 130.306L204.585 130.286L204.667 130.235L204.749 130.184L204.79 130.159L204.872 130.108L204.954 130.057L205.036 130.006L205.081 129.924L205.122 129.898L205.204 129.848L205.25 129.765L205.332 129.714L205.336 129.658L205.381 129.576L205.426 129.494L205.43 129.437L205.476 129.355L205.48 129.298L205.525 129.216L205.492 129.128L205.538 129.046L205.505 128.958L205.509 128.902L205.477 128.814L205.481 128.757L205.485 128.701L205.412 128.638L205.379 128.551L205.383 128.494L205.31 128.432L205.277 128.344L205.204 128.281L205.167 128.25L205.135 128.162L205.061 128.1L204.988 128.038L204.951 128.007L204.877 127.944L204.804 127.882L204.689 127.845L204.653 127.814L204.538 127.777L204.465 127.715L204.35 127.678L204.236 127.641L204.199 127.61L204.084 127.573L202.858 130.387Z" fill="#0090CF"/>
<path opacity="0.2" d="M195.046 128.219L196.081 128.494L197.61 128.948L199.218 129.408L200.751 129.805L202.359 130.265L202.858 130.387L204.084 127.573L203.585 127.451L202.051 127.053L200.522 126.599L198.951 126.17L197.422 125.716L196.387 125.441L195.046 128.219Z" fill="#0090CF"/>
<path opacity="0.2" d="M196.388 125.441L196.273 125.404L196.195 125.398L196.081 125.361L196.003 125.356L195.889 125.319L195.811 125.313L195.692 125.333L195.614 125.327L195.496 125.347L195.381 125.31L195.299 125.361L195.222 125.355L195.103 125.375L195.025 125.369L194.943 125.42L194.824 125.44L194.742 125.491L194.665 125.485L194.583 125.536L194.501 125.587L194.419 125.638L194.378 125.663L194.296 125.714L194.214 125.765L194.132 125.816L194.087 125.898L194.046 125.924L193.964 125.975L193.919 126.057L193.837 126.108L193.869 126.196L193.787 126.246L193.742 126.329L193.738 126.385L193.693 126.467L193.688 126.524L193.68 126.637L193.676 126.694L193.671 126.751L193.704 126.838L193.659 126.92L193.732 126.983L193.728 127.039L193.761 127.127L193.756 127.184L193.789 127.272L193.862 127.334L193.895 127.422L193.932 127.453L193.964 127.541L194.038 127.603L194.074 127.634L194.148 127.697L194.221 127.759L194.295 127.821L194.368 127.884L194.442 127.946L194.52 127.952L194.593 128.014L194.667 128.077L194.781 128.113L194.859 128.119L194.933 128.181L195.047 128.218L196.388 125.441Z" fill="#0090CF"/>
<path opacity="0.2" d="M183.474 124.606L183.589 124.643L183.667 124.649L183.781 124.686L183.859 124.691L184.014 124.703L184.092 124.708L184.17 124.714L184.284 124.751L184.403 124.731L184.481 124.737L184.6 124.717L184.677 124.723L184.796 124.703L184.915 124.683L184.956 124.658L185.075 124.638L185.116 124.613L185.234 124.593L185.316 124.542L185.435 124.522L185.476 124.497L185.558 124.446L185.64 124.395L185.722 124.344L185.804 124.293L185.845 124.268L185.89 124.186L185.972 124.135L186.017 124.053L186.058 124.027L186.103 123.945L186.149 123.863L186.194 123.781L186.198 123.724L186.243 123.642L186.247 123.585L186.293 123.503L186.297 123.447L186.342 123.365L186.31 123.277L186.314 123.22L186.281 123.132L186.285 123.076L186.253 122.988L186.257 122.931L186.225 122.843L186.188 122.812L186.155 122.724L186.082 122.662L186.086 122.605L186.013 122.543L185.98 122.455L185.907 122.393L185.87 122.362L185.796 122.299L185.723 122.237L185.649 122.175L185.576 122.112L185.461 122.075L185.424 122.044L185.31 122.007L185.236 121.945L185.122 121.908L185.007 121.871L183.474 124.606Z" fill="#0090CF"/>
<path opacity="0.2" d="M175.931 122.001L177.378 122.506L178.94 123.048L180.465 123.559L182.027 124.101L183.475 124.606L185.008 121.871L183.597 121.397L182.072 120.886L180.547 120.376L179.026 119.808L177.578 119.303L175.931 122.001Z" fill="#0090CF"/>
<path opacity="0.2" d="M177.577 119.304L177.463 119.267L177.385 119.261L177.271 119.224L177.193 119.218L177.078 119.182L177.001 119.176L176.845 119.164L176.767 119.159L176.69 119.153L176.571 119.173L176.493 119.167L176.374 119.187L176.297 119.181L176.178 119.201L176.1 119.195L176.018 119.246L175.941 119.24L175.822 119.26L175.74 119.311L175.658 119.362L175.539 119.382L175.498 119.407L175.416 119.458L175.334 119.509L175.252 119.56L175.211 119.585L175.166 119.667L175.084 119.718L175.002 119.769L174.957 119.851L174.912 119.933L174.908 119.99L174.826 120.041L174.78 120.123L174.776 120.18L174.731 120.262L174.727 120.319L174.718 120.432L174.714 120.488L174.71 120.545L174.701 120.658L174.697 120.715L174.693 120.772L174.725 120.859L174.721 120.916L174.795 120.978L174.827 121.066L174.823 121.123L174.897 121.185L174.929 121.273L174.966 121.304L174.998 121.392L175.072 121.454L175.145 121.517L175.182 121.548L175.256 121.61L175.329 121.673L175.403 121.735L175.517 121.772L175.591 121.834L175.627 121.865L175.742 121.902L175.856 121.939L175.93 122.002L177.577 119.304Z" fill="#0090CF"/>
<path opacity="0.2" d="M164.755 117.763L164.832 117.769L164.947 117.806L165.061 117.843L165.139 117.849L165.254 117.885L165.331 117.891L165.446 117.928L165.524 117.934L165.642 117.914L165.72 117.92L165.834 117.957L165.953 117.937L166.031 117.943L166.15 117.923L166.191 117.897L166.309 117.878L166.428 117.858L166.469 117.832L166.588 117.813L166.67 117.762L166.788 117.742L166.829 117.717L166.911 117.666L166.993 117.615L167.075 117.564L167.116 117.538L167.198 117.487L167.28 117.436L167.326 117.354L167.407 117.303L167.412 117.247L167.494 117.196L167.539 117.114L167.584 117.032L167.588 116.975L167.634 116.893L167.638 116.836L167.683 116.754L167.687 116.697L167.732 116.615L167.7 116.528L167.704 116.471L167.672 116.383L167.676 116.327L167.68 116.27L167.647 116.182L167.652 116.125L167.619 116.038L167.546 115.975L167.513 115.887L167.517 115.831L167.444 115.768L167.37 115.706L167.375 115.649L167.301 115.587L167.228 115.525L167.154 115.462L167.08 115.4L167.007 115.338L166.929 115.332L166.856 115.27L166.782 115.207L166.668 115.17L166.553 115.134L164.755 117.763Z" fill="#0090CF"/>
<path opacity="0.2" d="M162.062 116.683L163.579 117.307L164.756 117.764L166.555 115.134L165.455 114.683L163.938 114.059L162.062 116.683Z" fill="#0090CF"/>
<path opacity="0.2" d="M157.478 114.723L158.005 114.99L158.991 115.404L160.054 115.823L161.039 116.238L162.061 116.683L163.937 114.059L162.952 113.645L161.926 113.256L160.94 112.842L159.955 112.428L159.35 112.156L157.478 114.723Z" fill="#0090CF"/>
<path opacity="0.2" d="M159.351 112.156L159.314 112.125L159.2 112.088L159.085 112.051L159.007 112.045L158.893 112.008L158.815 112.002L158.701 111.966L158.623 111.96L158.545 111.954L158.39 111.943L158.312 111.937L158.193 111.957L158.116 111.951L157.997 111.971L157.919 111.965L157.837 112.016L157.759 112.01L157.641 112.03L157.522 112.05L157.44 112.101L157.399 112.126L157.28 112.146L157.198 112.197L157.116 112.248L157.075 112.273L156.993 112.324L156.911 112.375L156.829 112.426L156.784 112.508L156.743 112.534L156.661 112.585L156.616 112.667L156.571 112.749L156.526 112.831L156.485 112.856L156.476 112.97L156.431 113.052L156.39 113.077L156.386 113.134L156.377 113.247L156.373 113.304L156.406 113.392L156.401 113.448L156.356 113.53L156.389 113.618L156.426 113.649L156.417 113.763L156.454 113.794L156.486 113.882L156.56 113.944L156.556 114.001L156.629 114.063L156.662 114.151L156.735 114.213L156.731 114.27L156.804 114.332L156.878 114.394L156.951 114.457L157.025 114.519L157.103 114.525L157.176 114.587L157.291 114.624L157.364 114.686L157.479 114.723L159.351 112.156Z" fill="#0090CF"/>
<path opacity="0.2" d="M146.74 109.891L146.814 109.953L146.891 109.959L147.006 109.996L147.12 110.033L147.157 110.064L147.313 110.075L147.39 110.081L147.505 110.118L147.582 110.123L147.66 110.129L147.775 110.166L147.893 110.146L147.971 110.152L148.09 110.132L148.168 110.138L148.286 110.118L148.327 110.093L148.446 110.073L148.565 110.053L148.643 110.059L148.725 110.008L148.806 109.957L148.925 109.937L148.966 109.912L149.048 109.861L149.13 109.81L149.212 109.759L149.294 109.708L149.376 109.657L149.38 109.601L149.462 109.55L149.507 109.468L149.589 109.417L149.635 109.335L149.639 109.278L149.721 109.227L149.729 109.114L149.733 109.057L149.779 108.975L149.783 108.918L149.787 108.862L149.832 108.78L149.8 108.692L149.804 108.635L149.808 108.579L149.776 108.491L149.78 108.434L149.747 108.346L149.752 108.29L149.719 108.202L149.646 108.139L149.65 108.083L149.576 108.02L149.503 107.958L149.47 107.87L149.433 107.839L149.36 107.777L149.286 107.714L149.213 107.652L149.139 107.59L149.066 107.527L148.951 107.49L148.915 107.459L148.841 107.397L146.74 109.891Z" fill="#0090CF"/>
<path opacity="0.2" d="M139.726 106.471L140.441 106.837L141.382 107.333L142.326 107.772L143.307 108.243L144.247 108.739L145.191 109.179L146.172 109.65L146.741 109.891L148.842 107.397L148.273 107.156L147.329 106.716L146.389 106.22L145.445 105.781L144.464 105.31L143.56 104.845L142.657 104.38L141.901 104.039L139.726 106.471Z" fill="#0090CF"/>
<path opacity="0.2" d="M141.9 104.04L141.863 104.009L141.748 103.972L141.675 103.91L141.56 103.873L141.483 103.867L141.368 103.83L141.29 103.824L141.176 103.787L141.098 103.782L140.984 103.745L140.865 103.765L140.787 103.759L140.668 103.779L140.591 103.773L140.472 103.793L140.394 103.787L140.276 103.807L140.198 103.801L140.116 103.852L140.038 103.846L139.956 103.897L139.837 103.917L139.755 103.968L139.714 103.993L139.596 104.013L139.514 104.064L139.432 104.115L139.35 104.166L139.268 104.217L139.223 104.299L139.182 104.324L139.1 104.375L139.054 104.457L139.009 104.539L139.005 104.596L138.923 104.647L138.878 104.729L138.874 104.786L138.828 104.868L138.824 104.925L138.779 105.007L138.811 105.094L138.807 105.151L138.803 105.208L138.795 105.321L138.79 105.378L138.786 105.434L138.819 105.522L138.851 105.61L138.888 105.641L138.921 105.729L138.994 105.791L138.99 105.848L139.022 105.936L139.096 105.998L139.169 106.06L139.206 106.092L139.28 106.154L139.353 106.216L139.427 106.279L139.5 106.341L139.537 106.372L139.61 106.434L139.725 106.471L141.9 104.04Z" fill="#0090CF"/>
<path opacity="0.2" d="M129.534 101.081L129.571 101.112L129.685 101.149L129.759 101.211L129.873 101.248L129.951 101.254L130.066 101.291L130.143 101.297L130.258 101.333L130.336 101.339L130.45 101.376L130.528 101.382L130.606 101.387L130.761 101.399L130.839 101.405L130.957 101.385L131.035 101.391L131.154 101.371L131.195 101.345L131.314 101.326L131.432 101.306L131.473 101.28L131.592 101.261L131.674 101.21L131.752 101.215L131.834 101.164L131.916 101.114L132.034 101.094L132.116 101.043L132.162 100.961L132.203 100.935L132.285 100.884L132.33 100.802L132.412 100.751L132.457 100.669L132.539 100.618L132.543 100.562L132.588 100.48L132.634 100.397L132.675 100.372L132.679 100.315L132.687 100.202L132.691 100.145L132.737 100.063L132.741 100.007L132.708 99.9189L132.713 99.8623L132.717 99.8056L132.725 99.6924L132.688 99.6612L132.656 99.5734L132.623 99.4856L132.587 99.4544L132.554 99.3666L132.522 99.2788L132.485 99.2476L132.411 99.1852L132.379 99.0974L132.305 99.0351L132.232 98.9727L132.158 98.9104L132.085 98.848L132.048 98.8169L131.933 98.78L131.86 98.7176L129.534 101.081Z" fill="#0090CF"/>
<path opacity="0.2" d="M122.862 97.2873L123.05 97.3865L123.912 97.877L124.811 98.3987L125.71 98.9203L126.609 99.442L127.472 99.9324L128.371 100.454L129.311 100.95L129.536 101.081L131.861 98.7173L131.673 98.6181L130.811 98.1276L129.912 97.606L129.05 97.1155L128.151 96.5939L127.247 96.1288L126.389 95.5817L125.527 95.0913L125.339 94.992L122.862 97.2873Z" fill="#0090CF"/>
<path opacity="0.2" d="M125.339 94.9925L125.265 94.9302L125.151 94.8933L125.077 94.8309L125 94.8252L124.885 94.7883L124.848 94.7572L124.693 94.7457L124.619 94.6834L124.542 94.6777L124.423 94.6974L124.308 94.6605L124.231 94.6548L124.153 94.6491L123.997 94.6377L123.92 94.632L123.842 94.6263L123.723 94.646L123.605 94.6658L123.564 94.6912L123.445 94.711L123.326 94.7307L123.285 94.7562L123.166 94.7759L123.084 94.8269L123.007 94.8212L122.925 94.8721L122.843 94.923L122.761 94.9739L122.679 95.0249L122.638 95.0503L122.556 95.1013L122.511 95.1834L122.429 95.2343L122.347 95.2852L122.302 95.3673L122.256 95.4494L122.252 95.506L122.17 95.557L122.166 95.6136L122.121 95.6957L122.116 95.7524L122.071 95.8345L122.104 95.9223L122.059 96.0044L122.054 96.061L122.05 96.1177L122.083 96.2055L122.078 96.2621L122.111 96.3499L122.107 96.4066L122.139 96.4944L122.213 96.5567L122.209 96.6133L122.241 96.7012L122.278 96.7323L122.31 96.8202L122.384 96.8825L122.457 96.9449L122.531 97.0072L122.604 97.0696L122.641 97.1008L122.715 97.1631L122.788 97.2255L122.862 97.2878L125.339 94.9925Z" fill="#0090CF"/>
<path opacity="0.2" d="M113.222 91.3402L113.337 91.3771L113.41 91.4395L113.447 91.4707L113.562 91.5076L113.676 91.5444L113.713 91.5756L113.827 91.6125L113.942 91.6494L114.02 91.6551L114.134 91.692L114.212 91.6977L114.331 91.6779L114.445 91.7148L114.523 91.7205L114.601 91.7262L114.719 91.7065L114.797 91.7122L114.916 91.6924L114.993 91.6982L115.112 91.6784L115.194 91.6275L115.272 91.6332L115.391 91.6135L115.432 91.588L115.55 91.5682L115.632 91.5173L115.714 91.4664L115.796 91.4154L115.878 91.3645L115.96 91.3136L116.001 91.2881L116.083 91.2372L116.165 91.1863L116.21 91.1042L116.292 91.0532L116.337 90.9712L116.342 90.9145L116.424 90.8636L116.469 90.7815L116.473 90.7248L116.518 90.6427L116.522 90.5861L116.527 90.5295L116.572 90.4474L116.576 90.3907L116.585 90.2775L116.589 90.2208L116.593 90.1642L116.561 90.0763L116.565 90.0197L116.532 89.9319L116.536 89.8753L116.463 89.8129L116.43 89.7251L116.357 89.6628L116.361 89.6061L116.288 89.5438L116.214 89.4814L116.182 89.3936L116.145 89.3624L116.071 89.3001L115.998 89.2377L115.924 89.1754L115.851 89.113L113.222 91.3402Z" fill="#0090CF"/>
<path opacity="0.2" d="M106.966 87.1791L107.709 87.6893L108.49 88.2307L109.348 88.7778L110.165 89.3504L111.023 89.8975L111.844 90.4134L112.661 90.986L113.221 91.3404L115.85 89.1131L115.326 88.79L114.468 88.2428L113.688 87.7015L112.83 87.1543L112.05 86.613L111.192 86.0658L110.411 85.5244L109.704 85.0454L106.966 87.1791Z" fill="#0090CF"/>
<path opacity="0.2" d="M109.706 85.0448L109.632 84.9824L109.559 84.9201L109.444 84.8832L109.33 84.8463L109.293 84.8151L109.179 84.7783L109.142 84.7471L108.986 84.7357L108.913 84.6733L108.835 84.6676L108.68 84.6562L108.602 84.6505L108.524 84.6448L108.41 84.6079L108.332 84.6021L108.213 84.6219L108.136 84.6162L108.058 84.6105L107.939 84.6302L107.82 84.65L107.779 84.6754L107.661 84.6952L107.542 84.715L107.464 84.7092L107.382 84.7602L107.3 84.8111L107.182 84.8308L107.1 84.8818L107.059 84.9072L106.977 84.9581L106.895 85.0091L106.813 85.06L106.767 85.1421L106.685 85.193L106.644 85.2185L106.599 85.3006L106.517 85.3515L106.472 85.4336L106.427 85.5158L106.423 85.5724L106.377 85.6545L106.373 85.7111L106.369 85.7678L106.324 85.8499L106.32 85.9065L106.274 85.9886L106.307 86.0764L106.303 86.1331L106.298 86.1897L106.331 86.2775L106.327 86.3341L106.359 86.422L106.392 86.5098L106.429 86.5409L106.461 86.6287L106.535 86.6911L106.53 86.7478L106.604 86.8101L106.636 86.8979L106.71 86.9603L106.783 87.0226L106.857 87.085L106.93 87.1473L106.967 87.1785L109.706 85.0448Z" fill="#0090CF"/>
<path opacity="0.2" d="M44.9923 54.5492L44.0438 54.1663L42.715 53.6415L41.423 53.148L40.0942 52.6232L38.8022 52.1297L37.6247 51.673L35.867 54.2774L37.0036 54.7595L38.2956 55.2531L39.5876 55.7467L40.9164 56.2714L42.2084 56.765L43.1936 57.1791L44.9923 54.5492Z" fill="#0090CF"/>
<path opacity="0.2" d="M63.1022 62.2018L62.0802 61.7565L60.8334 61.1808L59.5456 60.6306L58.2578 60.0804L56.97 59.5302L55.948 59.085L53.9981 61.6468L55.0201 62.092L56.3079 62.6422L57.5589 63.1613L58.8467 63.7115L60.0935 64.2871L61.1155 64.7324L63.1022 62.2018Z" fill="#0090CF"/>
<path opacity="0.2" d="M80.8199 70.4225L79.6876 69.8837L78.445 69.2514L77.1982 68.6758L75.9147 68.0689L74.7089 67.4678L73.8014 67.0594L71.7002 69.5532L72.6077 69.9615L73.8545 70.5372L75.0604 71.1383L76.3071 71.714L77.5497 72.3463L78.682 72.8851L80.8199 70.4225Z" fill="#0090CF"/>
<path opacity="0.2" d="M97.9907 79.1444L96.7481 78.5121L95.5833 77.8855L94.3817 77.2277L93.1759 76.6266L91.9333 75.9943L91.1812 75.5974L88.9289 78.023L89.7219 78.3945L90.8867 79.0211L92.0925 79.6223L93.2941 80.28L94.4589 80.9066L95.7015 81.539L97.9907 79.1444Z" fill="#0090CF"/>
<path opacity="0.2" d="M95.6997 81.5392L95.7732 81.6015L95.8509 81.6072L95.9655 81.6441L96.039 81.7064L96.1167 81.7122L96.2312 81.7491L96.3457 81.786L96.4234 81.7917L96.5012 81.7973L96.6157 81.8342L96.6934 81.84L96.8121 81.8202L96.9267 81.8571L97.0044 81.8628L97.1231 81.8431L97.2008 81.8488L97.3196 81.829L97.4015 81.7781L97.4793 81.7838L97.598 81.764L97.68 81.7131L97.7577 81.7189L97.8397 81.6679L97.9584 81.6482L98.0404 81.5972L98.0814 81.5718L98.1633 81.5208L98.2453 81.4699L98.3273 81.419L98.4092 81.3681L98.4545 81.286L98.5364 81.235L98.5774 81.2096L98.6226 81.1275L98.6678 81.0454L98.713 80.9632L98.754 80.9378L98.7992 80.8557L98.8034 80.7991L98.8486 80.7169L98.8529 80.6603L98.8613 80.5471L98.8656 80.4904L98.8698 80.4338L98.874 80.3771L98.8415 80.2893L98.8867 80.2072L98.8542 80.1194L98.8174 80.0882L98.7849 80.0004L98.7523 79.9126L98.7565 79.856L98.683 79.7936L98.6505 79.7058L98.6138 79.6746L98.5403 79.6123L98.5077 79.5244L98.4342 79.4621L98.3607 79.3997L98.3239 79.3686L98.2504 79.3062L98.1359 79.2693L98.0624 79.207L97.9889 79.1446L95.6997 81.5392Z" fill="#0090CF"/>
<path opacity="0.2" d="M24.1295 61.657C23.9199 61.5359 23.7448 61.3551 23.6342 61.1316L13.2928 41.2797C13.1142 40.8974 13.0946 40.4473 13.3019 40.0883C13.5091 39.7293 13.896 39.474 14.3164 39.4375L36.6021 37.4256C37.1469 37.3811 37.656 37.6751 37.8899 38.1691C38.1238 38.6632 37.9798 39.2582 37.571 39.6205L34.0977 42.8007L36.7378 44.2452C37.384 44.5784 37.5696 45.3636 37.2541 45.9792C36.9086 46.5776 36.1358 46.8095 35.5195 46.4936L31.3049 44.1799C30.9455 43.9724 30.7024 43.6326 30.6355 43.1951C30.5986 42.7749 30.746 42.3814 31.0258 42.1041L32.9928 40.288L16.4212 41.8095L24.1241 56.5481L24.5419 53.9571C24.6121 53.5589 24.8665 53.1873 25.2489 53.0091C25.6312 52.831 26.0643 52.8417 26.4237 53.0492L29.1763 54.4352C29.8052 54.7984 30.0393 55.7688 29.6939 56.3671C29.3484 56.9654 28.8613 57.0712 28.245 56.7553L26.7801 56.1668L26.0114 60.749C25.932 61.3015 25.4886 61.7236 24.9565 61.8153C24.6605 61.8438 24.3691 61.7953 24.1295 61.657Z" fill="#0090CF"/>
</svg>
