<svg width="1440" height="1039" viewBox="0 0 1440 1039" fill="none" xmlns="http://www.w3.org/2000/svg">
<path fill-rule="evenodd" clip-rule="evenodd" d="M-428.429 428.572C-421.894 313.415 -303.462 230.541 -194.995 191.275C-100.208 156.961 -2.24976 203.901 91.7836 240.249C171.883 271.211 244.212 312.304 295.767 380.974C355.873 461.034 419.994 552.452 399.777 650.489C378.923 751.619 285.138 816.209 195.456 867.409C106.313 918.302 0.0865879 974.103 -93.6168 932.173C-183.16 892.104 -168.438 761.959 -222.746 680.272C-285.106 586.475 -434.81 541.015 -428.429 428.572Z" fill="url(#paint0_linear_3426_4658)" fill-opacity="0.7"/>
<path fill-rule="evenodd" clip-rule="evenodd" d="M1813.7 94.7759C1910.17 158.014 1922.72 302.015 1902.49 415.583C1884.82 514.829 1795.19 576.193 1716.69 639.454C1649.83 693.342 1578.08 735.434 1492.83 745.747C1393.44 757.77 1282.21 767.592 1207.42 701.065C1130.26 632.439 1121.22 518.924 1121.72 415.658C1122.21 313.011 1127 193.115 1210.17 132.931C1289.64 75.4187 1394.99 153.241 1492.88 147.052C1605.3 139.946 1719.52 33.0279 1813.7 94.7759Z" fill="url(#paint1_linear_3426_4658)" fill-opacity="0.7"/>
<path d="M501.266 530.295L506.075 529.052L506.442 530.544C504.771 530.71 503.1 530.876 501.429 531L501.266 530.295Z" fill="#FFAF00" fill-opacity="0.3"/>
<path d="M514.225 526.939L519.075 525.696L519.727 528.431C518.097 528.763 516.466 529.094 514.836 529.384L514.225 526.939Z" fill="#FFAF00" fill-opacity="0.3"/>
<path d="M527.227 523.624L532.077 522.38L532.729 525.074C531.14 525.571 529.55 526.027 527.92 526.442L527.227 523.624Z" fill="#FFAF00" fill-opacity="0.3"/>
<path d="M540.191 520.308L545.001 519.065L545.368 520.474C543.819 521.137 542.27 521.759 540.681 522.339L540.191 520.308Z" fill="#FFAF00" fill-opacity="0.3"/>
<path d="M459.078 527.105L463.888 525.862L464.581 528.68C462.747 528.307 460.953 527.892 459.16 527.478L459.078 527.105Z" fill="#FFAF00" fill-opacity="0.3"/>
<path d="M472.039 523.748L476.889 522.546L478.112 527.436L473.262 528.679L472.039 523.748Z" fill="#FFAF00" fill-opacity="0.3"/>
<path d="M485 520.432L489.85 519.189L491.073 524.079L486.223 525.322L485 520.432Z" fill="#FFAF00" fill-opacity="0.3"/>
<path d="M498.002 517.117L502.812 515.874L504.034 520.764L499.225 522.007L498.002 517.117Z" fill="#FFAF00" fill-opacity="0.3"/>
<path d="M510.967 513.761L515.817 512.518L517.04 517.449L512.19 518.692L510.967 513.761Z" fill="#FFAF00" fill-opacity="0.3"/>
<path d="M523.926 510.445L528.776 509.202L529.999 514.134L525.149 515.377L523.926 510.445Z" fill="#FFAF00" fill-opacity="0.3"/>
<path d="M536.928 507.13L541.737 505.887L542.96 510.777L538.151 512.02L536.928 507.13Z" fill="#FFAF00" fill-opacity="0.3"/>
<path d="M554.702 502.482L549.842 503.733L551.062 508.634L555.922 507.383L554.702 502.482Z" fill="#FFAF00" fill-opacity="0.3"/>
<path d="M562.855 500.458L567.706 499.215L568.929 504.105L564.078 505.348L562.855 500.458Z" fill="#FFAF00" fill-opacity="0.3"/>
<path d="M575.857 497.143L580.708 495.899L581.36 498.469C579.934 499.671 578.548 500.789 577.08 501.95L575.857 497.143Z" fill="#FFAF00" fill-opacity="0.3"/>
<path d="M442.814 517.242L447.665 515.999L448.888 520.93L444.037 522.132L442.814 517.242Z" fill="#FFAF00" fill-opacity="0.3"/>
<path d="M455.777 513.885L460.628 512.683L461.851 517.573L457 518.817L455.777 513.885Z" fill="#FFAF00" fill-opacity="0.3"/>
<path d="M468.777 510.57L473.587 509.326L474.81 514.258L470 515.501L468.777 510.57Z" fill="#FFAF00" fill-opacity="0.3"/>
<path d="M481.738 507.255L486.589 506.011L487.812 510.901L482.961 512.145L481.738 507.255Z" fill="#FFAF00" fill-opacity="0.3"/>
<path d="M494.703 503.939L499.554 502.655L500.776 507.586L495.926 508.829L494.703 503.939Z" fill="#FFAF00" fill-opacity="0.3"/>
<path d="M507.705 500.582L512.515 499.339L513.738 504.271L508.928 505.514L507.705 500.582Z" fill="#FFAF00" fill-opacity="0.3"/>
<path d="M520.666 497.267L525.516 496.024L526.739 500.955L521.889 502.157L520.666 497.267Z" fill="#FFAF00" fill-opacity="0.3"/>
<path d="M533.627 493.911L538.477 492.709L539.7 497.599L534.85 498.842L533.627 493.911Z" fill="#FFAF00" fill-opacity="0.3"/>
<path d="M546.631 490.595L551.441 489.352L552.663 494.284L547.854 495.527L546.631 490.595Z" fill="#FFAF00" fill-opacity="0.3"/>
<path d="M559.592 487.28L564.442 486.037L565.624 490.927L560.815 492.17L559.592 487.28Z" fill="#FFAF00" fill-opacity="0.3"/>
<path d="M572.555 483.923L577.405 482.68L578.628 487.612L573.777 488.855L572.555 483.923Z" fill="#FFAF00" fill-opacity="0.3"/>
<path d="M585.557 480.608L590.366 479.365L591.589 484.296L586.739 485.539L585.557 480.608Z" fill="#FFAF00" fill-opacity="0.3"/>
<path d="M598.518 477.293L602.431 476.298C601.412 477.624 600.352 478.951 599.251 480.277L598.518 477.293Z" fill="#FFAF00" fill-opacity="0.3"/>
<path d="M417.42 509.741L418.439 509.492L418.684 510.528C418.276 510.238 417.828 509.989 417.42 509.741Z" fill="#FFAF00" fill-opacity="0.3"/>
<path d="M426.551 507.379L431.401 506.136L432.624 511.067L427.774 512.31L426.551 507.379Z" fill="#FFAF00" fill-opacity="0.3"/>
<path d="M439.555 504.064L444.364 502.82L445.587 507.71L440.777 508.954L439.555 504.064Z" fill="#FFAF00" fill-opacity="0.3"/>
<path d="M452.514 500.707L457.364 499.463L458.587 504.395L453.736 505.638L452.514 500.707Z" fill="#FFAF00" fill-opacity="0.3"/>
<path d="M465.479 497.392L470.329 496.149L471.552 501.08L466.701 502.323L465.479 497.392Z" fill="#FFAF00" fill-opacity="0.3"/>
<path d="M478.48 494.076L483.29 492.833L484.513 497.723L479.703 498.966L478.48 494.076Z" fill="#FFAF00" fill-opacity="0.3"/>
<path d="M491.439 490.761L496.29 489.476L497.472 494.408L492.662 495.651L491.439 490.761Z" fill="#FFAF00" fill-opacity="0.3"/>
<path d="M504.402 487.404L509.253 486.161L510.476 491.092L505.625 492.335L504.402 487.404Z" fill="#FFAF00" fill-opacity="0.3"/>
<path d="M522.263 482.798L517.443 484.042L518.667 488.943L523.487 487.699L522.263 482.798Z" fill="#FFAF00" fill-opacity="0.3"/>
<path d="M530.367 480.732L535.218 479.489L536.4 484.42L531.59 485.664L530.367 480.732Z" fill="#FFAF00" fill-opacity="0.3"/>
<path d="M543.328 477.417L548.179 476.174L549.401 481.064L544.551 482.348L543.328 477.417Z" fill="#FFAF00" fill-opacity="0.3"/>
<path d="M556.33 474.101L561.14 472.858L562.363 477.748L557.512 478.991L556.33 474.101Z" fill="#FFAF00" fill-opacity="0.3"/>
<path d="M569.293 470.745L574.143 469.502L575.325 474.433L570.516 475.677L569.293 470.745Z" fill="#FFAF00" fill-opacity="0.3"/>
<path d="M582.256 467.43L587.106 466.186L588.329 471.118L583.479 472.32L582.256 467.43Z" fill="#FFAF00" fill-opacity="0.3"/>
<path d="M595.258 464.114L600.068 462.871L601.29 467.761L596.44 469.004L595.258 464.114Z" fill="#FFAF00" fill-opacity="0.3"/>
<path d="M608.219 460.758L613.028 459.515L613.151 460.012C612.091 461.877 610.99 463.742 609.808 465.565L609.401 465.689L608.219 460.758Z" fill="#FFAF00" fill-opacity="0.3"/>
<path d="M410.33 497.516L415.14 496.273L416.363 501.204L411.553 502.447L410.33 497.516Z" fill="#FFAF00" fill-opacity="0.3"/>
<path d="M423.289 494.201L428.14 492.957L429.362 497.889L424.512 499.091L423.289 494.201Z" fill="#FFAF00" fill-opacity="0.3"/>
<path d="M436.25 490.844L441.101 489.642L442.323 494.532L437.473 495.775L436.25 490.844Z" fill="#FFAF00" fill-opacity="0.3"/>
<path d="M449.256 487.529L454.065 486.286L455.288 491.217L450.479 492.46L449.256 487.529Z" fill="#FFAF00" fill-opacity="0.3"/>
<path d="M462.215 484.213L467.065 482.97L468.247 487.86L463.438 489.145L462.215 484.213Z" fill="#FFAF00" fill-opacity="0.3"/>
<path d="M475.178 480.898L480.028 479.655L481.251 484.545L476.401 485.788L475.178 480.898Z" fill="#FFAF00" fill-opacity="0.3"/>
<path d="M488.18 477.542L492.989 476.298L494.212 481.23L489.362 482.473L488.18 477.542Z" fill="#FFAF00" fill-opacity="0.3"/>
<path d="M501.143 474.226L505.993 472.983L507.175 477.914L502.365 479.116L501.143 474.226Z" fill="#FFAF00" fill-opacity="0.3"/>
<path d="M514.104 470.87L518.954 469.668L520.177 474.558L515.326 475.801L514.104 470.87Z" fill="#FFAF00" fill-opacity="0.3"/>
<path d="M527.105 467.554L531.915 466.311L533.138 471.242L528.287 472.485L527.105 467.554Z" fill="#FFAF00" fill-opacity="0.3"/>
<path d="M540.068 464.239L544.878 462.996L546.101 467.886L541.291 469.171L540.068 464.239Z" fill="#FFAF00" fill-opacity="0.3"/>
<path d="M553.029 460.924L557.88 459.68L559.103 464.57L554.252 465.814L553.029 460.924Z" fill="#FFAF00" fill-opacity="0.3"/>
<path d="M566.031 457.567L570.841 456.323L572.064 461.255L567.213 462.498L566.031 457.567Z" fill="#FFAF00" fill-opacity="0.3"/>
<path d="M578.994 454.251L583.804 453.008L585.027 457.898L580.217 459.141L578.994 454.251Z" fill="#FFAF00" fill-opacity="0.3"/>
<path d="M591.957 450.895L596.807 449.693L598.03 454.583L593.18 455.827L591.957 450.895Z" fill="#FFAF00" fill-opacity="0.3"/>
<path d="M604.918 447.579L609.768 446.336L610.991 451.268L606.141 452.511L604.918 447.579Z" fill="#FFAF00" fill-opacity="0.3"/>
<path d="M617.92 444.264L621.262 443.394C620.569 445.176 619.795 446.917 618.98 448.616L617.92 444.264Z" fill="#FFAF00" fill-opacity="0.3"/>
<path d="M394.064 487.694L398.915 486.451L400.138 491.341L395.45 492.543C395.369 492.46 395.328 492.377 395.247 492.336L394.064 487.694Z" fill="#FFAF00" fill-opacity="0.3"/>
<path d="M407.025 484.337L411.876 483.094L413.099 488.026L408.248 489.269L407.025 484.337Z" fill="#FFAF00" fill-opacity="0.3"/>
<path d="M424.847 479.745L420.027 480.989L421.25 485.889L426.07 484.646L424.847 479.745Z" fill="#FFAF00" fill-opacity="0.3"/>
<path d="M432.992 477.666L437.843 476.423L439.025 481.354L434.215 482.597L432.992 477.666Z" fill="#FFAF00" fill-opacity="0.3"/>
<path d="M450.766 473.011L445.906 474.262L447.127 479.163L451.987 477.912L450.766 473.011Z" fill="#FFAF00" fill-opacity="0.3"/>
<path d="M458.955 471.035L463.765 469.792L464.988 474.682L460.137 475.925L458.955 471.035Z" fill="#FFAF00" fill-opacity="0.3"/>
<path d="M471.916 467.72L476.767 466.476L477.949 471.366L473.139 472.61L471.916 467.72Z" fill="#FFAF00" fill-opacity="0.3"/>
<path d="M484.879 464.363L489.729 463.12L490.952 468.052L486.102 469.253L484.879 464.363Z" fill="#FFAF00" fill-opacity="0.3"/>
<path d="M497.881 461.048L502.691 459.805L503.913 464.695L499.063 465.938L497.881 461.048Z" fill="#FFAF00" fill-opacity="0.3"/>
<path d="M510.842 457.691L515.652 456.448L516.874 461.379L512.065 462.622L510.842 457.691Z" fill="#FFAF00" fill-opacity="0.3"/>
<path d="M523.803 454.376L528.653 453.133L529.876 458.064L525.026 459.308L523.803 454.376Z" fill="#FFAF00" fill-opacity="0.3"/>
<path d="M536.768 451.061L541.618 449.817L542.841 454.707L537.99 455.951L536.768 451.061Z" fill="#FFAF00" fill-opacity="0.3"/>
<path d="M549.77 447.745L554.579 446.502L555.802 451.392L550.992 452.635L549.77 447.745Z" fill="#FFAF00" fill-opacity="0.3"/>
<path d="M562.73 444.388L567.581 443.145L568.804 448.077L563.953 449.278L562.73 444.388Z" fill="#FFAF00" fill-opacity="0.3"/>
<path d="M575.693 441.074L580.544 439.83L581.767 444.72L576.916 445.964L575.693 441.074Z" fill="#FFAF00" fill-opacity="0.3"/>
<path d="M588.695 437.717L593.505 436.473L594.728 441.405L589.918 442.648L588.695 437.717Z" fill="#FFAF00" fill-opacity="0.3"/>
<path d="M601.658 434.401L606.509 433.158L607.731 438.089L602.881 439.333L601.658 434.401Z" fill="#FFAF00" fill-opacity="0.3"/>
<path d="M614.617 431.086L619.468 429.843L620.691 434.733L615.84 435.976L614.617 431.086Z" fill="#FFAF00" fill-opacity="0.3"/>
<path d="M381.348 476.92L382.652 476.588L383.345 479.448C382.693 478.619 382 477.79 381.348 476.92Z" fill="#FFAF00" fill-opacity="0.3"/>
<path d="M390.803 474.475L395.612 473.273L396.835 478.163L391.985 479.406L390.803 474.475Z" fill="#FFAF00" fill-opacity="0.3"/>
<path d="M403.768 471.159L408.618 469.916L409.8 474.847L404.99 476.091L403.768 471.159Z" fill="#FFAF00" fill-opacity="0.3"/>
<path d="M416.727 467.844L421.577 466.601L422.8 471.491L417.949 472.734L416.727 467.844Z" fill="#FFAF00" fill-opacity="0.3"/>
<path d="M429.73 464.487L434.54 463.244L435.763 468.176L430.913 469.419L429.73 464.487Z" fill="#FFAF00" fill-opacity="0.3"/>
<path d="M442.691 461.172L447.501 459.929L448.724 464.86L443.914 466.104L442.691 461.172Z" fill="#FFAF00" fill-opacity="0.3"/>
<path d="M455.652 457.857L460.503 456.613L461.726 461.503L456.875 462.747L455.652 457.857Z" fill="#FFAF00" fill-opacity="0.3"/>
<path d="M468.656 454.5L473.466 453.299L474.689 458.189L469.838 459.432L468.656 454.5Z" fill="#FFAF00" fill-opacity="0.3"/>
<path d="M481.617 451.185L486.427 449.942L487.65 454.832L482.84 456.075L481.617 451.185Z" fill="#FFAF00" fill-opacity="0.3"/>
<path d="M494.58 447.869L499.431 446.626L500.653 451.516L495.803 452.759L494.58 447.869Z" fill="#FFAF00" fill-opacity="0.3"/>
<path d="M507.541 444.513L512.391 443.27L513.614 448.201L508.764 449.444L507.541 444.513Z" fill="#FFAF00" fill-opacity="0.3"/>
<path d="M520.543 441.198L525.353 439.955L526.576 444.886L521.766 446.129L520.543 441.198Z" fill="#FFAF00" fill-opacity="0.3"/>
<path d="M538.365 436.574L533.545 437.818L534.768 442.719L539.588 441.475L538.365 436.574Z" fill="#FFAF00" fill-opacity="0.3"/>
<path d="M546.467 434.526L551.317 433.324L552.54 438.214L547.69 439.457L546.467 434.526Z" fill="#FFAF00" fill-opacity="0.3"/>
<path d="M564.378 430.042L559.518 431.292L560.737 436.194L565.598 434.944L564.378 430.042Z" fill="#FFAF00" fill-opacity="0.3"/>
<path d="M572.432 427.895L577.282 426.61L578.505 431.542L573.654 432.785L572.432 427.895Z" fill="#FFAF00" fill-opacity="0.3"/>
<path d="M585.395 424.538L590.245 423.295L591.468 428.226L586.617 429.47L585.395 424.538Z" fill="#FFAF00" fill-opacity="0.3"/>
<path d="M598.354 421.223L603.204 419.98L604.427 424.912L599.617 426.155L598.354 421.223Z" fill="#FFAF00" fill-opacity="0.3"/>
<path d="M611.359 417.908L616.21 416.665L617.433 421.555L612.582 422.798L611.359 417.908Z" fill="#FFAF00" fill-opacity="0.3"/>
<path d="M624.32 414.551L629.13 413.308L629.578 415.048C629.334 416.25 629.089 417.452 628.845 418.612L625.543 419.483L624.32 414.551Z" fill="#FFAF00" fill-opacity="0.3"/>
<path d="M374.541 464.653L379.351 463.41L380.574 468.3L375.968 469.502C375.845 469.336 375.723 469.17 375.601 469.004L374.541 464.653Z" fill="#FFAF00" fill-opacity="0.3"/>
<path d="M387.502 461.296L392.352 460.053L393.575 464.984L388.725 466.228L387.502 461.296Z" fill="#FFAF00" fill-opacity="0.3"/>
<path d="M400.504 457.981L405.314 456.738L406.536 461.628L401.686 462.871L400.504 457.981Z" fill="#FFAF00" fill-opacity="0.3"/>
<path d="M413.467 454.666L418.277 453.423L419.499 458.313L414.69 459.556L413.467 454.666Z" fill="#FFAF00" fill-opacity="0.3"/>
<path d="M426.428 451.309L431.278 450.066L432.501 454.997L427.651 456.241L426.428 451.309Z" fill="#FFAF00" fill-opacity="0.3"/>
<path d="M439.391 447.994L444.241 446.75L445.464 451.682L440.613 452.884L439.391 447.994Z" fill="#FFAF00" fill-opacity="0.3"/>
<path d="M452.393 444.679L457.202 443.436L458.425 448.326L453.615 449.569L452.393 444.679Z" fill="#FFAF00" fill-opacity="0.3"/>
<path d="M465.354 441.322L470.204 440.079L471.427 445.01L466.576 446.253L465.354 441.322Z" fill="#FFAF00" fill-opacity="0.3"/>
<path d="M478.314 438.006L483.165 436.763L484.388 441.653L479.537 442.896L478.314 438.006Z" fill="#FFAF00" fill-opacity="0.3"/>
<path d="M491.318 434.692L496.128 433.407L497.351 438.338L492.541 439.582L491.318 434.692Z" fill="#FFAF00" fill-opacity="0.3"/>
<path d="M504.281 431.335L509.091 430.091L510.354 435.023L505.504 436.266L504.281 431.335Z" fill="#FFAF00" fill-opacity="0.3"/>
<path d="M517.24 428.019L522.091 426.776L523.314 431.708L518.463 432.909L517.24 428.019Z" fill="#FFAF00" fill-opacity="0.3"/>
<path d="M530.203 424.662L535.054 423.461L536.276 428.351L531.467 429.594L530.203 424.662Z" fill="#FFAF00" fill-opacity="0.3"/>
<path d="M543.207 421.347L548.057 420.104L549.28 425.036L544.43 426.279L543.207 421.347Z" fill="#FFAF00" fill-opacity="0.3"/>
<path d="M556.17 418.032L561.02 416.789L562.243 421.679L557.393 422.922L556.17 418.032Z" fill="#FFAF00" fill-opacity="0.3"/>
<path d="M569.129 414.675L573.979 413.432L575.202 418.363L570.393 419.607L569.129 414.675Z" fill="#FFAF00" fill-opacity="0.3"/>
<path d="M582.131 411.36L586.981 410.117L588.204 415.049L583.354 416.292L582.131 411.36Z" fill="#FFAF00" fill-opacity="0.3"/>
<path d="M595.096 408.045L599.946 406.802L601.169 411.692L596.319 412.935L595.096 408.045Z" fill="#FFAF00" fill-opacity="0.3"/>
<path d="M608.098 404.688L612.907 403.486L614.13 408.376L609.32 409.62L608.098 404.688Z" fill="#FFAF00" fill-opacity="0.3"/>
<path d="M621.059 401.373L625.909 400.129L627.132 405.061L622.281 406.304L621.059 401.373Z" fill="#FFAF00" fill-opacity="0.3"/>
<path d="M371.281 451.433L376.091 450.231L377.314 455.121L372.463 456.365L371.281 451.433Z" fill="#FFAF00" fill-opacity="0.3"/>
<path d="M384.242 448.118L389.052 446.875L390.275 451.807L385.465 453.05L384.242 448.118Z" fill="#FFAF00" fill-opacity="0.3"/>
<path d="M397.203 444.803L402.054 443.56L403.276 448.45L398.426 449.693L397.203 444.803Z" fill="#FFAF00" fill-opacity="0.3"/>
<path d="M410.164 441.488L415.015 440.244L416.237 445.134L411.387 446.378L410.164 441.488Z" fill="#FFAF00" fill-opacity="0.3"/>
<path d="M423.168 438.131L427.978 436.887L429.2 441.819L424.391 443.062L423.168 438.131Z" fill="#FFAF00" fill-opacity="0.3"/>
<path d="M440.984 433.499L436.164 434.743L437.387 439.644L442.207 438.4L440.984 433.499Z" fill="#FFAF00" fill-opacity="0.3"/>
<path d="M449.09 431.459L453.94 430.257L455.163 435.147L450.313 436.391L449.09 431.459Z" fill="#FFAF00" fill-opacity="0.3"/>
<path d="M462.092 428.143L466.901 426.9L468.124 431.832L463.315 433.075L462.092 428.143Z" fill="#FFAF00" fill-opacity="0.3"/>
<path d="M475.055 424.828L479.864 423.585L481.128 428.475L476.277 429.718L475.055 424.828Z" fill="#FFAF00" fill-opacity="0.3"/>
<path d="M488.018 421.513L492.868 420.229L494.091 425.16L489.24 426.403L488.018 421.513Z" fill="#FFAF00" fill-opacity="0.3"/>
<path d="M500.979 418.156L505.829 416.913L507.052 421.845L502.242 423.088L500.979 418.156Z" fill="#FFAF00" fill-opacity="0.3"/>
<path d="M513.98 414.841L518.831 413.598L520.054 418.488L515.203 419.731L513.98 414.841Z" fill="#FFAF00" fill-opacity="0.3"/>
<path d="M531.793 410.167L526.973 411.41L528.206 416.351L533.026 415.107L531.793 410.167Z" fill="#FFAF00" fill-opacity="0.3"/>
<path d="M539.904 408.169L544.755 406.926L545.978 411.816L541.168 413.101L539.904 408.169Z" fill="#FFAF00" fill-opacity="0.3"/>
<path d="M557.818 403.69L552.957 404.94L554.176 409.842L559.037 408.592L557.818 403.69Z" fill="#FFAF00" fill-opacity="0.3"/>
<path d="M565.869 401.497L570.72 400.254L571.942 405.186L567.092 406.429L565.869 401.497Z" fill="#FFAF00" fill-opacity="0.3"/>
<path d="M578.873 398.182L583.683 396.939L584.905 401.87L580.096 403.072L578.873 398.182Z" fill="#FFAF00" fill-opacity="0.3"/>
<path d="M591.832 394.867L596.682 393.624L597.865 398.514L593.055 399.757L591.832 394.867Z" fill="#FFAF00" fill-opacity="0.3"/>
<path d="M604.795 391.51L609.645 390.267L610.868 395.199L606.018 396.442L604.795 391.51Z" fill="#FFAF00" fill-opacity="0.3"/>
<path d="M622.656 386.912L617.836 388.156L619.059 393.057L623.879 391.813L622.656 386.912Z" fill="#FFAF00" fill-opacity="0.3"/>
<path d="M630.762 384.879L631.944 384.589C631.984 386.33 632.025 388.07 631.985 389.811L630.762 384.879Z" fill="#FFAF00" fill-opacity="0.3"/>
<path d="M367.979 438.255L372.788 437.012L374.052 441.944L369.201 443.187L367.979 438.255Z" fill="#FFAF00" fill-opacity="0.3"/>
<path d="M380.939 434.94L385.79 433.697L387.013 438.628L382.162 439.871L380.939 434.94Z" fill="#FFAF00" fill-opacity="0.3"/>
<path d="M393.943 431.625L398.753 430.381L399.976 435.271L395.166 436.515L393.943 431.625Z" fill="#FFAF00" fill-opacity="0.3"/>
<path d="M411.765 427.034L406.945 428.278L408.169 433.179L412.989 431.935L411.765 427.034Z" fill="#FFAF00" fill-opacity="0.3"/>
<path d="M419.865 424.953L424.716 423.71L425.938 428.641L421.088 429.843L419.865 424.953Z" fill="#FFAF00" fill-opacity="0.3"/>
<path d="M432.826 421.596L437.677 420.394L438.899 425.284L434.09 426.528L432.826 421.596Z" fill="#FFAF00" fill-opacity="0.3"/>
<path d="M445.832 418.281L450.642 417.037L451.905 421.969L447.055 423.212L445.832 418.281Z" fill="#FFAF00" fill-opacity="0.3"/>
<path d="M458.793 414.966L463.643 413.722L464.866 418.612L460.016 419.897L458.793 414.966Z" fill="#FFAF00" fill-opacity="0.3"/>
<path d="M471.752 411.65L476.602 410.407L477.825 415.297L473.015 416.54L471.752 411.65Z" fill="#FFAF00" fill-opacity="0.3"/>
<path d="M484.754 408.293L489.604 407.05L490.827 411.982L485.977 413.225L484.754 408.293Z" fill="#FFAF00" fill-opacity="0.3"/>
<path d="M497.719 404.978L502.569 403.735L503.792 408.666L498.942 409.868L497.719 404.978Z" fill="#FFAF00" fill-opacity="0.3"/>
<path d="M510.682 401.622L515.532 400.42L516.755 405.31L511.945 406.553L510.682 401.622Z" fill="#FFAF00" fill-opacity="0.3"/>
<path d="M523.682 398.306L528.532 397.063L529.755 401.994L524.904 403.238L523.682 398.306Z" fill="#FFAF00" fill-opacity="0.3"/>
<path d="M536.643 394.991L541.493 393.748L542.716 398.638L537.865 399.922L536.643 394.991Z" fill="#FFAF00" fill-opacity="0.3"/>
<path d="M549.645 391.675L554.454 390.432L555.677 395.322L550.867 396.565L549.645 391.675Z" fill="#FFAF00" fill-opacity="0.3"/>
<path d="M562.609 388.319L567.46 387.076L568.642 392.007L563.832 393.25L562.609 388.319Z" fill="#FFAF00" fill-opacity="0.3"/>
<path d="M575.57 385.004L580.421 383.76L581.644 388.692L576.793 389.894L575.57 385.004Z" fill="#FFAF00" fill-opacity="0.3"/>
<path d="M588.572 381.647L593.382 380.445L594.605 385.335L589.754 386.578L588.572 381.647Z" fill="#FFAF00" fill-opacity="0.3"/>
<path d="M601.533 378.332L606.384 377.089L607.566 382.02L602.756 383.263L601.533 378.332Z" fill="#FFAF00" fill-opacity="0.3"/>
<path d="M614.496 375.016L619.347 373.773L620.569 378.663L615.719 379.906L614.496 375.016Z" fill="#FFAF00" fill-opacity="0.3"/>
<path d="M627.498 371.701L630.881 370.831C631.085 372.53 631.289 374.229 631.452 375.928L628.721 376.633L627.498 371.701Z" fill="#FFAF00" fill-opacity="0.3"/>
<path d="M356.525 427.191L356.77 428.102C356.688 427.771 356.607 427.481 356.525 427.191Z" fill="#FFAF00" fill-opacity="0.3"/>
<path d="M364.678 425.077L369.528 423.834L370.751 428.765L365.941 430.009L364.678 425.077Z" fill="#FFAF00" fill-opacity="0.3"/>
<path d="M377.68 421.762L382.489 420.518L383.753 425.45L378.902 426.693L377.68 421.762Z" fill="#FFAF00" fill-opacity="0.3"/>
<path d="M390.643 418.446L395.493 417.203L396.716 422.093L391.865 423.336L390.643 418.446Z" fill="#FFAF00" fill-opacity="0.3"/>
<path d="M403.602 415.09L408.452 413.847L409.675 418.778L404.865 420.021L403.602 415.09Z" fill="#FFAF00" fill-opacity="0.3"/>
<path d="M416.604 411.774L421.413 410.531L422.677 415.421L417.826 416.665L416.604 411.774Z" fill="#FFAF00" fill-opacity="0.3"/>
<path d="M434.422 407.145L429.602 408.389L430.825 413.289L435.645 412.046L434.422 407.145Z" fill="#FFAF00" fill-opacity="0.3"/>
<path d="M442.527 405.103L447.378 403.86L448.601 408.791L443.791 410.034L442.527 405.103Z" fill="#FFAF00" fill-opacity="0.3"/>
<path d="M460.462 400.473L455.602 401.723L456.821 406.625L461.682 405.374L460.462 400.473Z" fill="#FFAF00" fill-opacity="0.3"/>
<path d="M468.492 398.472L473.343 397.229L474.565 402.119L469.715 403.362L468.492 398.472Z" fill="#FFAF00" fill-opacity="0.3"/>
<path d="M481.455 395.115L486.306 393.872L487.528 398.803L482.719 400.046L481.455 395.115Z" fill="#FFAF00" fill-opacity="0.3"/>
<path d="M494.459 391.8L499.309 390.557L500.492 395.447L495.682 396.69L494.459 391.8Z" fill="#FFAF00" fill-opacity="0.3"/>
<path d="M507.418 388.443L512.268 387.2L513.491 392.131L508.641 393.375L507.418 388.443Z" fill="#FFAF00" fill-opacity="0.3"/>
<path d="M525.273 383.815L520.453 385.058L521.676 389.959L526.496 388.715L525.273 383.815Z" fill="#FFAF00" fill-opacity="0.3"/>
<path d="M533.385 381.812L538.235 380.569L539.417 385.459L534.608 386.702L533.385 381.812Z" fill="#FFAF00" fill-opacity="0.3"/>
<path d="M546.344 378.498L551.194 377.254L552.417 382.144L547.567 383.388L546.344 378.498Z" fill="#FFAF00" fill-opacity="0.3"/>
<path d="M559.346 375.141L564.155 373.897L565.378 378.829L560.528 380.031L559.346 375.141Z" fill="#FFAF00" fill-opacity="0.3"/>
<path d="M577.168 370.543L572.348 371.786L573.571 376.687L578.391 375.443L577.168 370.543Z" fill="#FFAF00" fill-opacity="0.3"/>
<path d="M585.273 368.469L590.124 367.226L591.306 372.157L586.496 373.4L585.273 368.469Z" fill="#FFAF00" fill-opacity="0.3"/>
<path d="M598.273 365.154L603.083 363.91L604.306 368.842L599.455 370.085L598.273 365.154Z" fill="#FFAF00" fill-opacity="0.3"/>
<path d="M611.234 361.838L616.044 360.595L617.267 365.485L612.457 366.728L611.234 361.838Z" fill="#FFAF00" fill-opacity="0.3"/>
<path d="M624.197 358.523L628.518 357.404C628.885 359.062 629.211 360.72 629.537 362.377L625.42 363.455L624.197 358.523Z" fill="#FFAF00" fill-opacity="0.3"/>
<path d="M361.416 411.899L366.266 410.656L367.489 415.587L362.639 416.83L361.416 411.899Z" fill="#FFAF00" fill-opacity="0.3"/>
<path d="M374.379 408.583L379.229 407.34L380.452 412.23L375.643 413.473L374.379 408.583Z" fill="#FFAF00" fill-opacity="0.3"/>
<path d="M387.379 405.227L392.189 404.025L393.452 408.915L388.602 410.159L387.379 405.227Z" fill="#FFAF00" fill-opacity="0.3"/>
<path d="M400.344 401.911L405.194 400.668L406.417 405.6L401.567 406.801L400.344 401.911Z" fill="#FFAF00" fill-opacity="0.3"/>
<path d="M413.305 398.596L418.155 397.353L419.378 402.243L414.568 403.486L413.305 398.596Z" fill="#FFAF00" fill-opacity="0.3"/>
<path d="M426.307 395.24L431.116 393.997L432.38 398.928L427.529 400.171L426.307 395.24Z" fill="#FFAF00" fill-opacity="0.3"/>
<path d="M439.268 391.924L444.118 390.681L445.341 395.613L440.49 396.856L439.268 391.924Z" fill="#FFAF00" fill-opacity="0.3"/>
<path d="M452.23 388.609L457.081 387.366L458.304 392.256L453.494 393.499L452.23 388.609Z" fill="#FFAF00" fill-opacity="0.3"/>
<path d="M465.234 385.252L470.085 384.05L471.267 388.94L466.457 390.184L465.234 385.252Z" fill="#FFAF00" fill-opacity="0.3"/>
<path d="M478.193 381.937L483.044 380.694L484.267 385.625L479.416 386.827L478.193 381.937Z" fill="#FFAF00" fill-opacity="0.3"/>
<path d="M491.154 378.622L496.005 377.379L497.228 382.269L492.377 383.512L491.154 378.622Z" fill="#FFAF00" fill-opacity="0.3"/>
<path d="M504.158 375.265L509.009 374.021L510.191 378.953L505.381 380.196L504.158 375.265Z" fill="#FFAF00" fill-opacity="0.3"/>
<path d="M517.119 371.95L521.97 370.707L523.192 375.638L518.342 376.881L517.119 371.95Z" fill="#FFAF00" fill-opacity="0.3"/>
<path d="M530.123 368.635L534.933 367.391L536.156 372.281L531.305 373.525L530.123 368.635Z" fill="#FFAF00" fill-opacity="0.3"/>
<path d="M543.084 365.278L547.894 364.034L549.117 368.966L544.307 370.209L543.084 365.278Z" fill="#FFAF00" fill-opacity="0.3"/>
<path d="M556.045 361.962L560.895 360.719L562.077 365.609L557.268 366.852L556.045 361.962Z" fill="#FFAF00" fill-opacity="0.3"/>
<path d="M569.051 358.648L573.861 357.404L575.083 362.294L570.233 363.538L569.051 358.648Z" fill="#FFAF00" fill-opacity="0.3"/>
<path d="M582.01 355.291L586.82 354.047L588.042 358.979L583.192 360.222L582.01 355.291Z" fill="#FFAF00" fill-opacity="0.3"/>
<path d="M594.973 351.975L599.823 350.732L601.005 355.663L596.195 356.907L594.973 351.975Z" fill="#FFAF00" fill-opacity="0.3"/>
<path d="M612.843 347.43L607.982 348.68L609.202 353.582L614.062 352.332L612.843 347.43Z" fill="#FFAF00" fill-opacity="0.3"/>
<path d="M620.936 345.304L624.971 344.268C625.501 345.884 625.99 347.5 626.438 349.116L622.158 350.235L620.936 345.304Z" fill="#FFAF00" fill-opacity="0.3"/>
<path d="M363.054 397.526L358.193 398.776L359.413 403.677L364.273 402.428L363.054 397.526Z" fill="#FFAF00" fill-opacity="0.3"/>
<path d="M371.115 395.406L375.966 394.162L377.189 399.052L372.338 400.296L371.115 395.406Z" fill="#FFAF00" fill-opacity="0.3"/>
<path d="M388.969 390.759L384.148 392.003L385.382 396.944L390.202 395.7L388.969 390.759Z" fill="#FFAF00" fill-opacity="0.3"/>
<path d="M397.082 388.733L401.892 387.49L403.114 392.38L398.305 393.623L397.082 388.733Z" fill="#FFAF00" fill-opacity="0.3"/>
<path d="M410.043 385.418L414.893 384.175L416.116 389.065L411.266 390.308L410.043 385.418Z" fill="#FFAF00" fill-opacity="0.3"/>
<path d="M427.908 380.839L423.088 382.083L424.311 386.983L429.131 385.74L427.908 380.839Z" fill="#FFAF00" fill-opacity="0.3"/>
<path d="M436.008 378.746L440.858 377.503L442.04 382.434L437.231 383.636L436.008 378.746Z" fill="#FFAF00" fill-opacity="0.3"/>
<path d="M448.969 375.43L453.819 374.187L455.042 379.077L450.192 380.321L448.969 375.43Z" fill="#FFAF00" fill-opacity="0.3"/>
<path d="M461.93 372.074L466.78 370.831L468.003 375.763L463.152 377.006L461.93 372.074Z" fill="#FFAF00" fill-opacity="0.3"/>
<path d="M479.787 367.469L474.967 368.712L476.19 373.613L481.01 372.369L479.787 367.469Z" fill="#FFAF00" fill-opacity="0.3"/>
<path d="M487.896 365.443L492.747 364.159L493.929 369.09L489.119 370.333L487.896 365.443Z" fill="#FFAF00" fill-opacity="0.3"/>
<path d="M500.898 362.087L505.708 360.844L506.931 365.775L502.08 367.018L500.898 362.087Z" fill="#FFAF00" fill-opacity="0.3"/>
<path d="M513.859 358.772L518.669 357.529L519.892 362.46L515.082 363.662L513.859 358.772Z" fill="#FFAF00" fill-opacity="0.3"/>
<path d="M526.82 355.456L531.671 354.213L532.853 359.103L528.043 360.346L526.82 355.456Z" fill="#FFAF00" fill-opacity="0.3"/>
<path d="M539.783 352.099L544.634 350.856L545.857 355.787L541.006 357.031L539.783 352.099Z" fill="#FFAF00" fill-opacity="0.3"/>
<path d="M552.785 348.784L557.595 347.541L558.818 352.431L553.967 353.675L552.785 348.784Z" fill="#FFAF00" fill-opacity="0.3"/>
<path d="M565.746 345.428L570.556 344.184L571.779 349.116L566.969 350.359L565.746 345.428Z" fill="#FFAF00" fill-opacity="0.3"/>
<path d="M578.707 342.112L583.558 340.869L584.78 345.8L579.93 347.044L578.707 342.112Z" fill="#FFAF00" fill-opacity="0.3"/>
<path d="M591.709 338.797L596.519 337.553L597.741 342.485L592.891 343.687L591.709 338.797Z" fill="#FFAF00" fill-opacity="0.3"/>
<path d="M604.674 335.441L609.484 334.239L610.706 339.129L605.897 340.372L604.674 335.441Z" fill="#FFAF00" fill-opacity="0.3"/>
<path d="M617.635 332.125L620.162 331.462C620.814 332.995 621.466 334.612 622.118 336.186L618.898 337.015L617.635 332.125Z" fill="#FFAF00" fill-opacity="0.3"/>
<path d="M354.855 385.543L359.706 384.299L360.929 389.231L356.119 390.433L354.855 385.543Z" fill="#FFAF00" fill-opacity="0.3"/>
<path d="M367.857 382.186L372.667 380.984L373.89 385.874L369.08 387.117L367.857 382.186Z" fill="#FFAF00" fill-opacity="0.3"/>
<path d="M380.816 378.87L385.667 377.627L386.89 382.558L382.039 383.802L380.816 378.87Z" fill="#FFAF00" fill-opacity="0.3"/>
<path d="M393.779 375.555L398.63 374.312L399.853 379.202L395.002 380.446L393.779 375.555Z" fill="#FFAF00" fill-opacity="0.3"/>
<path d="M406.781 372.24L411.632 370.955L412.814 375.887L408.004 377.13L406.781 372.24Z" fill="#FFAF00" fill-opacity="0.3"/>
<path d="M419.746 368.883L424.597 367.64L425.819 372.571L420.969 373.815L419.746 368.883Z" fill="#FFAF00" fill-opacity="0.3"/>
<path d="M432.705 365.568L437.556 364.324L438.778 369.256L433.928 370.458L432.705 365.568Z" fill="#FFAF00" fill-opacity="0.3"/>
<path d="M445.707 362.211L450.517 361.01L451.74 365.9L446.93 367.143L445.707 362.211Z" fill="#FFAF00" fill-opacity="0.3"/>
<path d="M458.67 358.896L463.52 357.653L464.702 362.584L459.893 363.827L458.67 358.896Z" fill="#FFAF00" fill-opacity="0.3"/>
<path d="M471.674 355.58L476.483 354.337L477.706 359.227L472.856 360.47L471.674 355.58Z" fill="#FFAF00" fill-opacity="0.3"/>
<path d="M484.635 352.265L489.444 350.981L490.667 355.912L485.817 357.155L484.635 352.265Z" fill="#FFAF00" fill-opacity="0.3"/>
<path d="M497.596 348.909L502.446 347.666L503.628 352.597L498.819 353.84L497.596 348.909Z" fill="#FFAF00" fill-opacity="0.3"/>
<path d="M510.555 345.593L515.405 344.35L516.628 349.24L511.777 350.483L510.555 345.593Z" fill="#FFAF00" fill-opacity="0.3"/>
<path d="M523.561 342.236L528.37 341.035L529.593 345.925L524.743 347.168L523.561 342.236Z" fill="#FFAF00" fill-opacity="0.3"/>
<path d="M541.381 337.674L536.561 338.918L537.784 343.818L542.604 342.575L541.381 337.674Z" fill="#FFAF00" fill-opacity="0.3"/>
<path d="M549.484 335.606L554.335 334.363L555.558 339.253L550.707 340.496L549.484 335.606Z" fill="#FFAF00" fill-opacity="0.3"/>
<path d="M562.443 332.249L567.294 331.006L568.517 335.937L563.666 337.181L562.443 332.249Z" fill="#FFAF00" fill-opacity="0.3"/>
<path d="M575.445 328.934L580.255 327.691L581.478 332.623L576.668 333.866L575.445 328.934Z" fill="#FFAF00" fill-opacity="0.3"/>
<path d="M588.41 325.619L593.261 324.376L594.483 329.266L589.633 330.509L588.41 325.619Z" fill="#FFAF00" fill-opacity="0.3"/>
<path d="M601.371 322.262L606.222 321.019L607.445 325.95L602.594 327.194L601.371 322.262Z" fill="#FFAF00" fill-opacity="0.3"/>
<path d="M616.492 323.63L615.555 323.878L614.617 320.066C615.269 321.226 615.881 322.428 616.492 323.63Z" fill="#FFAF00" fill-opacity="0.3"/>
<path d="M352.245 372.157L356.402 371.079L357.625 375.969L352.774 377.213L352 374.105C352.122 373.483 352.163 372.82 352.245 372.157Z" fill="#FFAF00" fill-opacity="0.3"/>
<path d="M364.555 369.008L369.405 367.765L370.628 372.696L365.777 373.939L364.555 369.008Z" fill="#FFAF00" fill-opacity="0.3"/>
<path d="M382.404 364.386L377.584 365.63L378.807 370.531L383.627 369.287L382.404 364.386Z" fill="#FFAF00" fill-opacity="0.3"/>
<path d="M390.518 362.377L395.368 361.134L396.55 366.024L391.74 367.267L390.518 362.377Z" fill="#FFAF00" fill-opacity="0.3"/>
<path d="M403.48 359.062L408.331 357.777L409.554 362.708L404.703 363.952L403.48 359.062Z" fill="#FFAF00" fill-opacity="0.3"/>
<path d="M416.482 355.705L421.292 354.462L422.515 359.394L417.705 360.595L416.482 355.705Z" fill="#FFAF00" fill-opacity="0.3"/>
<path d="M429.445 352.39L434.296 351.146L435.478 356.037L430.668 357.28L429.445 352.39Z" fill="#FFAF00" fill-opacity="0.3"/>
<path d="M442.408 349.033L447.259 347.79L448.481 352.721L443.631 353.964L442.408 349.033Z" fill="#FFAF00" fill-opacity="0.3"/>
<path d="M455.408 345.717L460.218 344.474L461.441 349.364L456.59 350.649L455.408 345.717Z" fill="#FFAF00" fill-opacity="0.3"/>
<path d="M468.371 342.403L473.181 341.159L474.404 346.049L469.594 347.293L468.371 342.403Z" fill="#FFAF00" fill-opacity="0.3"/>
<path d="M481.332 339.046L486.182 337.802L487.405 342.734L482.555 343.977L481.332 339.046Z" fill="#FFAF00" fill-opacity="0.3"/>
<path d="M494.336 335.73L499.146 334.487L500.368 339.419L495.518 340.62L494.336 335.73Z" fill="#FFAF00" fill-opacity="0.3"/>
<path d="M507.297 332.373L512.107 331.172L513.329 336.062L508.52 337.305L507.297 332.373Z" fill="#FFAF00" fill-opacity="0.3"/>
<path d="M520.258 329.059L525.108 327.815L526.331 332.747L521.481 333.99L520.258 329.059Z" fill="#FFAF00" fill-opacity="0.3"/>
<path d="M533.219 325.743L538.069 324.5L539.292 329.39L534.442 330.674L533.219 325.743Z" fill="#FFAF00" fill-opacity="0.3"/>
<path d="M546.221 322.428L551.03 321.185L552.253 326.075L547.444 327.318L546.221 322.428Z" fill="#FFAF00" fill-opacity="0.3"/>
<path d="M559.186 319.071L564.036 317.828L565.259 322.76L560.408 324.003L559.186 319.071Z" fill="#FFAF00" fill-opacity="0.3"/>
<path d="M572.145 315.756L576.995 314.513L578.218 319.444L573.367 320.646L572.145 315.756Z" fill="#FFAF00" fill-opacity="0.3"/>
<path d="M585.146 312.399L589.956 311.197L591.22 316.087L586.369 317.331L585.146 312.399Z" fill="#FFAF00" fill-opacity="0.3"/>
<path d="M598.109 309.084L602.96 307.84L604.183 312.772L599.332 314.015L598.109 309.084Z" fill="#FFAF00" fill-opacity="0.3"/>
<path d="M353.955 361.175L354.362 362.833L353.588 363.04C353.71 362.419 353.833 361.797 353.955 361.175Z" fill="#FFAF00" fill-opacity="0.3"/>
<path d="M361.293 355.829L366.143 354.586L367.326 359.518L362.516 360.761L361.293 355.829Z" fill="#FFAF00" fill-opacity="0.3"/>
<path d="M374.258 352.514L379.108 351.271L380.331 356.202L375.481 357.445L374.258 352.514Z" fill="#FFAF00" fill-opacity="0.3"/>
<path d="M387.258 349.199L392.068 347.955L393.29 352.845L388.44 354.089L387.258 349.199Z" fill="#FFAF00" fill-opacity="0.3"/>
<path d="M400.219 345.842L405.069 344.599L406.251 349.531L401.442 350.774L400.219 345.842Z" fill="#FFAF00" fill-opacity="0.3"/>
<path d="M413.182 342.527L418.032 341.284L419.255 346.174L414.404 347.417L413.182 342.527Z" fill="#FFAF00" fill-opacity="0.3"/>
<path d="M426.184 339.17L430.993 337.968L432.216 342.858L427.366 344.102L426.184 339.17Z" fill="#FFAF00" fill-opacity="0.3"/>
<path d="M443.994 334.567L439.174 335.811L440.397 340.712L445.217 339.468L443.994 334.567Z" fill="#FFAF00" fill-opacity="0.3"/>
<path d="M452.107 332.54L456.958 331.296L458.181 336.186L453.33 337.471L452.107 332.54Z" fill="#FFAF00" fill-opacity="0.3"/>
<path d="M470.038 327.9L465.178 329.15L466.398 334.052L471.258 332.802L470.038 327.9Z" fill="#FFAF00" fill-opacity="0.3"/>
<path d="M478.072 325.867L482.882 324.624L484.105 329.555L479.295 330.799L478.072 325.867Z" fill="#FFAF00" fill-opacity="0.3"/>
<path d="M491.035 322.552L495.886 321.309L497.108 326.199L492.258 327.442L491.035 322.552Z" fill="#FFAF00" fill-opacity="0.3"/>
<path d="M503.996 319.196L508.847 317.994L510.069 322.884L505.219 324.127L503.996 319.196Z" fill="#FFAF00" fill-opacity="0.3"/>
<path d="M516.996 315.88L521.806 314.637L523.029 319.568L518.219 320.812L516.996 315.88Z" fill="#FFAF00" fill-opacity="0.3"/>
<path d="M534.816 311.289L529.996 312.533L531.219 317.434L536.04 316.19L534.816 311.289Z" fill="#FFAF00" fill-opacity="0.3"/>
<path d="M542.922 309.249L547.772 308.006L548.995 312.896L544.145 314.139L542.922 309.249Z" fill="#FFAF00" fill-opacity="0.3"/>
<path d="M560.829 304.692L555.969 305.941L557.188 310.843L562.049 309.593L560.829 304.692Z" fill="#FFAF00" fill-opacity="0.3"/>
<path d="M568.885 302.578L573.735 301.334L574.958 306.225L570.108 307.468L568.885 302.578Z" fill="#FFAF00" fill-opacity="0.3"/>
<path d="M581.848 299.221L586.698 297.978L587.921 302.909L583.07 304.153L581.848 299.221Z" fill="#FFAF00" fill-opacity="0.3"/>
<path d="M594.85 295.905L597.581 295.201C598.681 296.486 599.741 297.77 600.76 299.096L600.882 299.594L596.072 300.837L594.85 295.905Z" fill="#FFAF00" fill-opacity="0.3"/>
<path d="M358.928 342.402L362.841 341.408L364.064 346.298L359.213 347.541L358.357 344.101C358.561 343.521 358.765 342.982 358.928 342.402Z" fill="#FFAF00" fill-opacity="0.3"/>
<path d="M370.994 339.336L375.804 338.093L377.027 342.983L372.217 344.226L370.994 339.336Z" fill="#FFAF00" fill-opacity="0.3"/>
<path d="M383.957 336.02L388.808 334.777L390.03 339.667L385.18 340.91L383.957 336.02Z" fill="#FFAF00" fill-opacity="0.3"/>
<path d="M396.959 332.664L401.769 331.421L402.992 336.352L398.141 337.554L396.959 332.664Z" fill="#FFAF00" fill-opacity="0.3"/>
<path d="M409.92 329.348L414.73 328.105L415.952 332.995L411.143 334.238L409.92 329.348Z" fill="#FFAF00" fill-opacity="0.3"/>
<path d="M422.883 325.992L427.733 324.749L428.956 329.681L424.106 330.924L422.883 325.992Z" fill="#FFAF00" fill-opacity="0.3"/>
<path d="M435.846 322.677L440.696 321.434L441.919 326.365L437.069 327.608L435.846 322.677Z" fill="#FFAF00" fill-opacity="0.3"/>
<path d="M448.846 319.361L453.655 318.118L454.878 323.008L450.069 324.251L448.846 319.361Z" fill="#FFAF00" fill-opacity="0.3"/>
<path d="M461.809 316.005L466.659 314.803L467.882 319.693L463.031 320.936L461.809 316.005Z" fill="#FFAF00" fill-opacity="0.3"/>
<path d="M474.77 312.69L479.62 311.446L480.843 316.378L475.992 317.58L474.77 312.69Z" fill="#FFAF00" fill-opacity="0.3"/>
<path d="M487.773 309.374L492.583 308.131L493.806 313.021L488.996 314.264L487.773 309.374Z" fill="#FFAF00" fill-opacity="0.3"/>
<path d="M500.734 306.017L505.585 304.774L506.808 309.705L501.957 310.949L500.734 306.017Z" fill="#FFAF00" fill-opacity="0.3"/>
<path d="M513.697 302.702L518.548 301.458L519.771 306.39L514.92 307.633L513.697 302.702Z" fill="#FFAF00" fill-opacity="0.3"/>
<path d="M526.699 299.387L531.509 298.144L532.732 303.034L527.922 304.277L526.699 299.387Z" fill="#FFAF00" fill-opacity="0.3"/>
<path d="M539.658 296.03L544.509 294.787L545.732 299.718L540.881 300.962L539.658 296.03Z" fill="#FFAF00" fill-opacity="0.3"/>
<path d="M552.621 292.715L557.472 291.471L558.694 296.403L553.844 297.605L552.621 292.715Z" fill="#FFAF00" fill-opacity="0.3"/>
<path d="M565.627 289.399L570.437 288.156L571.659 293.046L566.85 294.289L565.627 289.399Z" fill="#FFAF00" fill-opacity="0.3"/>
<path d="M578.586 286.043L583.436 284.8L584.659 289.731L579.809 290.974L578.586 286.043Z" fill="#FFAF00" fill-opacity="0.3"/>
<path d="M367.691 326.157L372.542 324.914L373.765 329.804L368.914 331.047L367.691 326.157Z" fill="#FFAF00" fill-opacity="0.3"/>
<path d="M380.693 322.801L385.503 321.599L386.726 326.489L381.916 327.733L380.693 322.801Z" fill="#FFAF00" fill-opacity="0.3"/>
<path d="M393.658 319.486L398.509 318.242L399.732 323.132L394.881 324.376L393.658 319.486Z" fill="#FFAF00" fill-opacity="0.3"/>
<path d="M406.619 316.17L411.47 314.927L412.692 319.817L407.842 321.06L406.619 316.17Z" fill="#FFAF00" fill-opacity="0.3"/>
<path d="M419.621 312.814L424.431 311.571L425.654 316.502L420.844 317.745L419.621 312.814Z" fill="#FFAF00" fill-opacity="0.3"/>
<path d="M432.584 309.498L437.435 308.255L438.657 313.187L433.807 314.43L432.584 309.498Z" fill="#FFAF00" fill-opacity="0.3"/>
<path d="M445.547 306.183L450.397 304.94L451.62 309.83L446.77 311.073L445.547 306.183Z" fill="#FFAF00" fill-opacity="0.3"/>
<path d="M463.47 301.505L458.609 302.755L459.829 307.656L464.69 306.406L463.47 301.505Z" fill="#FFAF00" fill-opacity="0.3"/>
<path d="M471.508 299.511L476.358 298.268L477.581 303.158L472.731 304.401L471.508 299.511Z" fill="#FFAF00" fill-opacity="0.3"/>
<path d="M484.473 296.196L489.323 294.911L490.546 299.842L485.695 301.086L484.473 296.196Z" fill="#FFAF00" fill-opacity="0.3"/>
<path d="M497.475 292.839L502.284 291.596L503.507 296.527L498.697 297.77L497.475 292.839Z" fill="#FFAF00" fill-opacity="0.3"/>
<path d="M510.438 289.524L515.288 288.281L516.511 293.212L511.66 294.414L510.438 289.524Z" fill="#FFAF00" fill-opacity="0.3"/>
<path d="M528.297 284.924L523.477 286.168L524.7 291.069L529.52 289.825L528.297 284.924Z" fill="#FFAF00" fill-opacity="0.3"/>
<path d="M536.398 282.852L541.208 281.608L542.431 286.54L537.621 287.783L536.398 282.852Z" fill="#FFAF00" fill-opacity="0.3"/>
<path d="M554.271 278.336L549.41 279.586L550.629 284.488L555.49 283.238L554.271 278.336Z" fill="#FFAF00" fill-opacity="0.3"/>
<path d="M562.322 276.18L567.173 274.937L568.395 279.868L563.545 281.111L562.322 276.18Z" fill="#FFAF00" fill-opacity="0.3"/>
<path d="M578.953 277.133L576.507 277.754L575.732 274.605C576.833 275.475 577.893 276.304 578.953 277.133Z" fill="#FFAF00" fill-opacity="0.3"/>
<path d="M377.395 309.622L382.245 308.379L383.468 313.311L378.617 314.554L377.395 309.622Z" fill="#FFAF00" fill-opacity="0.3"/>
<path d="M390.396 306.307L395.206 305.064L396.429 309.954L391.619 311.197L390.396 306.307Z" fill="#FFAF00" fill-opacity="0.3"/>
<path d="M403.357 302.992L408.208 301.708L409.431 306.639L404.58 307.882L403.357 302.992Z" fill="#FFAF00" fill-opacity="0.3"/>
<path d="M416.32 299.635L421.171 298.392L422.394 303.324L417.543 304.567L416.32 299.635Z" fill="#FFAF00" fill-opacity="0.3"/>
<path d="M429.322 296.32L434.132 295.077L435.355 300.008L430.545 301.21L429.322 296.32Z" fill="#FFAF00" fill-opacity="0.3"/>
<path d="M442.283 292.963L447.134 291.761L448.356 296.651L443.506 297.895L442.283 292.963Z" fill="#FFAF00" fill-opacity="0.3"/>
<path d="M455.246 289.648L460.097 288.405L461.319 293.336L456.469 294.579L455.246 289.648Z" fill="#FFAF00" fill-opacity="0.3"/>
<path d="M468.25 286.333L473.06 285.09L474.283 289.98L469.473 291.223L468.25 286.333Z" fill="#FFAF00" fill-opacity="0.3"/>
<path d="M481.211 282.976L486.061 281.733L487.284 286.665L482.434 287.908L481.211 282.976Z" fill="#FFAF00" fill-opacity="0.3"/>
<path d="M494.172 279.661L499.022 278.418L500.245 283.349L495.395 284.593L494.172 279.661Z" fill="#FFAF00" fill-opacity="0.3"/>
<path d="M507.174 276.346L511.984 275.102L513.206 279.992L508.397 281.236L507.174 276.346Z" fill="#FFAF00" fill-opacity="0.3"/>
<path d="M520.139 272.989L524.989 271.787L526.171 276.677L521.361 277.92L520.139 272.989Z" fill="#FFAF00" fill-opacity="0.3"/>
<path d="M533.098 269.674L537.948 268.431L539.171 273.321L534.32 274.605L533.098 269.674Z" fill="#FFAF00" fill-opacity="0.3"/>
<path d="M546.1 266.358L550.909 265.115L552.132 270.005L547.322 271.248L546.1 266.358Z" fill="#FFAF00" fill-opacity="0.3"/>
<path d="M564.442 266.855L560.285 267.933L559.266 263.83C561.018 264.825 562.73 265.819 564.442 266.855Z" fill="#FFAF00" fill-opacity="0.3"/>
<path d="M387.706 292.964L391.945 291.886L393.168 296.818L388.358 298.061L387.258 293.544C387.38 293.337 387.543 293.129 387.706 292.964Z" fill="#FFAF00" fill-opacity="0.3"/>
<path d="M400.098 289.814L404.907 288.529L406.13 293.461L401.32 294.704L400.098 289.814Z" fill="#FFAF00" fill-opacity="0.3"/>
<path d="M413.061 286.457L417.911 285.214L419.134 290.145L414.283 291.389L413.061 286.457Z" fill="#FFAF00" fill-opacity="0.3"/>
<path d="M430.914 281.844L426.094 283.088L427.317 287.988L432.137 286.745L430.914 281.844Z" fill="#FFAF00" fill-opacity="0.3"/>
<path d="M439.021 279.785L443.831 278.542L445.054 283.473L440.244 284.717L439.021 279.785Z" fill="#FFAF00" fill-opacity="0.3"/>
<path d="M451.986 276.47L456.837 275.227L458.06 280.117L453.209 281.401L451.986 276.47Z" fill="#FFAF00" fill-opacity="0.3"/>
<path d="M464.947 273.154L469.798 271.911L471.02 276.801L466.17 278.044L464.947 273.154Z" fill="#FFAF00" fill-opacity="0.3"/>
<path d="M482.814 268.589L477.994 269.832L479.217 274.733L484.037 273.489L482.814 268.589Z" fill="#FFAF00" fill-opacity="0.3"/>
<path d="M490.91 266.483L495.761 265.24L496.943 270.171L492.133 271.373L490.91 266.483Z" fill="#FFAF00" fill-opacity="0.3"/>
<path d="M503.875 263.167L508.725 261.924L509.948 266.814L505.098 268.057L503.875 263.167Z" fill="#FFAF00" fill-opacity="0.3"/>
<path d="M516.875 259.811L521.685 258.568L522.908 263.499L518.098 264.742L516.875 259.811Z" fill="#FFAF00" fill-opacity="0.3"/>
<path d="M529.838 256.495L534.688 255.252L535.87 260.142L531.061 261.385L529.838 256.495Z" fill="#FFAF00" fill-opacity="0.3"/>
<path d="M546.385 257.449L544.021 258.029L543.572 256.247C544.51 256.703 545.447 257.076 546.385 257.449Z" fill="#FFAF00" fill-opacity="0.3"/>
<path d="M402.463 278.666L402.87 280.282L399.609 281.111C400.547 280.282 401.484 279.453 402.463 278.666Z" fill="#FFAF00" fill-opacity="0.3"/>
<path d="M409.797 273.279L414.607 272.036L415.829 276.967L411.02 278.169L409.797 273.279Z" fill="#FFAF00" fill-opacity="0.3"/>
<path d="M422.76 269.922L427.61 268.72L428.833 273.61L423.983 274.854L422.76 269.922Z" fill="#FFAF00" fill-opacity="0.3"/>
<path d="M435.721 266.607L440.571 265.364L441.794 270.295L436.944 271.538L435.721 266.607Z" fill="#FFAF00" fill-opacity="0.3"/>
<path d="M448.723 263.292L453.532 262.048L454.755 266.938L449.945 268.223L448.723 263.292Z" fill="#FFAF00" fill-opacity="0.3"/>
<path d="M461.686 259.977L466.536 258.733L467.718 263.623L462.908 264.867L461.686 259.977Z" fill="#FFAF00" fill-opacity="0.3"/>
<path d="M474.65 256.62L479.501 255.376L480.724 260.308L475.873 261.551L474.65 256.62Z" fill="#FFAF00" fill-opacity="0.3"/>
<path d="M487.652 253.304L492.462 252.061L493.685 256.951L488.834 258.194L487.652 253.304Z" fill="#FFAF00" fill-opacity="0.3"/>
<path d="M500.611 249.947L505.462 248.746L506.644 253.636L501.834 254.879L500.611 249.947Z" fill="#FFAF00" fill-opacity="0.3"/>
<path d="M519.279 248.953L519.605 250.321L514.795 251.564L513.898 248C515.692 248.249 517.526 248.58 519.279 248.953Z" fill="#FFAF00" fill-opacity="0.3"/>
<path d="M438.453 256.827L438.494 257.117L436.619 257.614C437.231 257.324 437.842 257.076 438.453 256.827Z" fill="#FFAF00" fill-opacity="0.3"/>
<path d="M451.13 252.269L451.497 253.76L446.647 255.004L446.361 253.802C447.91 253.263 449.5 252.766 451.13 252.269Z" fill="#FFAF00" fill-opacity="0.3"/>
<path d="M464.09 248.953L464.457 250.445L459.607 251.688L459.199 250.072C460.83 249.657 462.46 249.284 464.09 248.953Z" fill="#FFAF00" fill-opacity="0.3"/>
<defs>
<linearGradient id="paint0_linear_3426_4658" x1="354.933" y1="704.391" x2="-326.16" y2="274.593" gradientUnits="userSpaceOnUse">
<stop stop-color="#EAF9FF"/>
<stop offset="0.473958" stop-color="#EAF9FF"/>
<stop offset="1" stop-color="#F5FCFF"/>
</linearGradient>
<linearGradient id="paint1_linear_3426_4658" x1="1183.16" y1="635.277" x2="1895.92" y2="260.332" gradientUnits="userSpaceOnUse">
<stop stop-color="#EAF9FF"/>
<stop offset="0.473958" stop-color="#EAF9FF"/>
<stop offset="1" stop-color="#F5FCFF"/>
</linearGradient>
</defs>
</svg>
