<svg width="663" height="655" viewBox="0 0 663 655" fill="none" xmlns="http://www.w3.org/2000/svg">
<path d="M16.6487 86.3987C14.6277 89.8992 15.827 94.3753 19.3275 96.3963C22.828 98.4173 27.304 97.2179 29.325 93.7174C31.346 90.217 30.1467 85.7409 26.6462 83.7199C23.1457 81.6989 18.6697 82.8982 16.6487 86.3987Z" fill="#29B3FF"/>
<path d="M30.524 71.2181C29.349 73.2533 30.0463 75.8557 32.0814 77.0307C34.1166 78.2057 36.719 77.5083 37.894 75.4732C39.069 73.438 38.3717 70.8357 36.3365 69.6607C34.3013 68.4857 31.699 69.183 30.524 71.2181Z" fill="#29B3FF"/>
<path d="M45.5993 94.4654L48.3225 89.7486L53.0393 92.4719L54.3158 90.2609L49.599 87.5376L52.3223 82.8208L49.9639 81.4592L47.2406 86.176L42.6713 83.5379L41.3947 85.7489L45.9641 88.387L43.2409 93.1038L45.5993 94.4654Z" fill="#F9A226"/>
<path d="M410.266 640.295L415.075 639.052L415.442 640.544C413.771 640.71 412.1 640.876 410.429 641L410.266 640.295Z" fill="#FFAF00" fill-opacity="0.3"/>
<path d="M423.225 636.939L428.075 635.696L428.727 638.431C427.097 638.762 425.466 639.094 423.836 639.384L423.225 636.939Z" fill="#FFAF00" fill-opacity="0.3"/>
<path d="M436.227 633.624L441.077 632.38L441.729 635.074C440.14 635.571 438.55 636.027 436.92 636.442L436.227 633.624Z" fill="#FFAF00" fill-opacity="0.3"/>
<path d="M449.191 630.308L454.001 629.065L454.368 630.474C452.819 631.137 451.27 631.759 449.681 632.339L449.191 630.308Z" fill="#FFAF00" fill-opacity="0.3"/>
<path d="M368.078 637.105L372.888 635.862L373.581 638.68C371.747 638.307 369.953 637.892 368.16 637.478L368.078 637.105Z" fill="#FFAF00" fill-opacity="0.3"/>
<path d="M381.039 633.748L385.889 632.546L387.112 637.436L382.262 638.679L381.039 633.748Z" fill="#FFAF00" fill-opacity="0.3"/>
<path d="M394 630.432L398.85 629.189L400.073 634.079L395.223 635.322L394 630.432Z" fill="#FFAF00" fill-opacity="0.3"/>
<path d="M407.002 627.117L411.812 625.874L413.034 630.764L408.225 632.007L407.002 627.117Z" fill="#FFAF00" fill-opacity="0.3"/>
<path d="M419.967 623.761L424.817 622.517L426.04 627.449L421.19 628.692L419.967 623.761Z" fill="#FFAF00" fill-opacity="0.3"/>
<path d="M432.926 620.445L437.776 619.202L438.999 624.133L434.149 625.377L432.926 620.445Z" fill="#FFAF00" fill-opacity="0.3"/>
<path d="M445.928 617.13L450.737 615.887L451.96 620.777L447.151 622.02L445.928 617.13Z" fill="#FFAF00" fill-opacity="0.3"/>
<path d="M463.702 612.482L458.842 613.733L460.062 618.634L464.922 617.383L463.702 612.482Z" fill="#FFAF00" fill-opacity="0.3"/>
<path d="M471.855 610.458L476.706 609.215L477.929 614.105L473.078 615.348L471.855 610.458Z" fill="#FFAF00" fill-opacity="0.3"/>
<path d="M484.857 607.143L489.708 605.899L490.36 608.469C488.934 609.671 487.548 610.789 486.08 611.95L484.857 607.143Z" fill="#FFAF00" fill-opacity="0.3"/>
<path d="M351.814 627.242L356.665 625.999L357.888 630.93L353.037 632.132L351.814 627.242Z" fill="#FFAF00" fill-opacity="0.3"/>
<path d="M364.777 623.885L369.628 622.683L370.851 627.573L366 628.816L364.777 623.885Z" fill="#FFAF00" fill-opacity="0.3"/>
<path d="M377.777 620.569L382.587 619.326L383.81 624.258L379 625.501L377.777 620.569Z" fill="#FFAF00" fill-opacity="0.3"/>
<path d="M390.738 617.255L395.589 616.011L396.812 620.901L391.961 622.145L390.738 617.255Z" fill="#FFAF00" fill-opacity="0.3"/>
<path d="M403.703 613.939L408.554 612.654L409.776 617.586L404.926 618.829L403.703 613.939Z" fill="#FFAF00" fill-opacity="0.3"/>
<path d="M416.705 610.582L421.515 609.339L422.738 614.27L417.928 615.514L416.705 610.582Z" fill="#FFAF00" fill-opacity="0.3"/>
<path d="M429.666 607.267L434.516 606.024L435.739 610.955L430.889 612.157L429.666 607.267Z" fill="#FFAF00" fill-opacity="0.3"/>
<path d="M442.627 603.911L447.477 602.709L448.7 607.599L443.85 608.842L442.627 603.911Z" fill="#FFAF00" fill-opacity="0.3"/>
<path d="M455.631 600.595L460.441 599.352L461.663 604.283L456.854 605.527L455.631 600.595Z" fill="#FFAF00" fill-opacity="0.3"/>
<path d="M468.592 597.28L473.442 596.036L474.624 600.927L469.815 602.17L468.592 597.28Z" fill="#FFAF00" fill-opacity="0.3"/>
<path d="M481.555 593.923L486.405 592.68L487.628 597.612L482.777 598.855L481.555 593.923Z" fill="#FFAF00" fill-opacity="0.3"/>
<path d="M494.557 590.608L499.366 589.365L500.589 594.296L495.739 595.539L494.557 590.608Z" fill="#FFAF00" fill-opacity="0.3"/>
<path d="M507.518 587.293L511.431 586.298C510.412 587.624 509.352 588.95 508.251 590.277L507.518 587.293Z" fill="#FFAF00" fill-opacity="0.3"/>
<path d="M326.42 619.741L327.439 619.492L327.684 620.528C327.276 620.238 326.828 619.989 326.42 619.741Z" fill="#FFAF00" fill-opacity="0.3"/>
<path d="M335.551 617.379L340.401 616.135L341.624 621.067L336.774 622.31L335.551 617.379Z" fill="#FFAF00" fill-opacity="0.3"/>
<path d="M348.555 614.063L353.364 612.82L354.587 617.71L349.777 618.953L348.555 614.063Z" fill="#FFAF00" fill-opacity="0.3"/>
<path d="M361.514 610.706L366.364 609.463L367.587 614.395L362.736 615.638L361.514 610.706Z" fill="#FFAF00" fill-opacity="0.3"/>
<path d="M374.479 607.392L379.329 606.148L380.552 611.08L375.701 612.323L374.479 607.392Z" fill="#FFAF00" fill-opacity="0.3"/>
<path d="M387.48 604.076L392.29 602.833L393.513 607.723L388.703 608.966L387.48 604.076Z" fill="#FFAF00" fill-opacity="0.3"/>
<path d="M400.439 600.761L405.29 599.476L406.472 604.407L401.662 605.651L400.439 600.761Z" fill="#FFAF00" fill-opacity="0.3"/>
<path d="M413.402 597.404L418.253 596.161L419.476 601.092L414.625 602.335L413.402 597.404Z" fill="#FFAF00" fill-opacity="0.3"/>
<path d="M431.263 592.798L426.443 594.042L427.667 598.942L432.487 597.699L431.263 592.798Z" fill="#FFAF00" fill-opacity="0.3"/>
<path d="M439.367 590.732L444.218 589.489L445.4 594.42L440.59 595.664L439.367 590.732Z" fill="#FFAF00" fill-opacity="0.3"/>
<path d="M452.328 587.417L457.179 586.173L458.401 591.063L453.551 592.348L452.328 587.417Z" fill="#FFAF00" fill-opacity="0.3"/>
<path d="M465.33 584.101L470.14 582.858L471.363 587.748L466.512 588.991L465.33 584.101Z" fill="#FFAF00" fill-opacity="0.3"/>
<path d="M478.293 580.745L483.143 579.502L484.325 584.433L479.516 585.676L478.293 580.745Z" fill="#FFAF00" fill-opacity="0.3"/>
<path d="M491.256 577.43L496.106 576.186L497.329 581.118L492.479 582.32L491.256 577.43Z" fill="#FFAF00" fill-opacity="0.3"/>
<path d="M504.258 574.114L509.068 572.871L510.29 577.761L505.44 579.004L504.258 574.114Z" fill="#FFAF00" fill-opacity="0.3"/>
<path d="M517.219 570.758L522.028 569.515L522.151 570.012C521.091 571.877 519.99 573.741 518.808 575.565L518.401 575.689L517.219 570.758Z" fill="#FFAF00" fill-opacity="0.3"/>
<path d="M319.33 607.516L324.14 606.273L325.363 611.204L320.553 612.447L319.33 607.516Z" fill="#FFAF00" fill-opacity="0.3"/>
<path d="M332.289 604.2L337.14 602.957L338.362 607.889L333.512 609.09L332.289 604.2Z" fill="#FFAF00" fill-opacity="0.3"/>
<path d="M345.25 600.843L350.101 599.642L351.323 604.532L346.473 605.775L345.25 600.843Z" fill="#FFAF00" fill-opacity="0.3"/>
<path d="M358.256 597.529L363.065 596.285L364.288 601.217L359.479 602.46L358.256 597.529Z" fill="#FFAF00" fill-opacity="0.3"/>
<path d="M371.215 594.213L376.065 592.97L377.247 597.86L372.438 599.145L371.215 594.213Z" fill="#FFAF00" fill-opacity="0.3"/>
<path d="M384.178 590.898L389.028 589.655L390.251 594.545L385.401 595.788L384.178 590.898Z" fill="#FFAF00" fill-opacity="0.3"/>
<path d="M397.18 587.541L401.989 586.298L403.212 591.23L398.362 592.473L397.18 587.541Z" fill="#FFAF00" fill-opacity="0.3"/>
<path d="M410.143 584.226L414.993 582.983L416.175 587.914L411.365 589.116L410.143 584.226Z" fill="#FFAF00" fill-opacity="0.3"/>
<path d="M423.104 580.869L427.954 579.667L429.177 584.558L424.326 585.801L423.104 580.869Z" fill="#FFAF00" fill-opacity="0.3"/>
<path d="M436.105 577.554L440.915 576.311L442.138 581.242L437.287 582.485L436.105 577.554Z" fill="#FFAF00" fill-opacity="0.3"/>
<path d="M449.068 574.239L453.878 572.996L455.101 577.886L450.291 579.17L449.068 574.239Z" fill="#FFAF00" fill-opacity="0.3"/>
<path d="M462.029 570.924L466.88 569.68L468.103 574.57L463.252 575.814L462.029 570.924Z" fill="#FFAF00" fill-opacity="0.3"/>
<path d="M475.031 567.567L479.841 566.323L481.064 571.255L476.213 572.498L475.031 567.567Z" fill="#FFAF00" fill-opacity="0.3"/>
<path d="M487.994 564.251L492.804 563.008L494.027 567.898L489.217 569.141L487.994 564.251Z" fill="#FFAF00" fill-opacity="0.3"/>
<path d="M500.957 560.895L505.807 559.693L507.03 564.583L502.18 565.826L500.957 560.895Z" fill="#FFAF00" fill-opacity="0.3"/>
<path d="M513.918 557.579L518.768 556.336L519.991 561.268L515.141 562.511L513.918 557.579Z" fill="#FFAF00" fill-opacity="0.3"/>
<path d="M526.92 554.264L530.262 553.394C529.569 555.176 528.795 556.916 527.98 558.615L526.92 554.264Z" fill="#FFAF00" fill-opacity="0.3"/>
<path d="M303.064 597.694L307.915 596.451L309.138 601.341L304.45 602.543C304.369 602.46 304.328 602.377 304.247 602.336L303.064 597.694Z" fill="#FFAF00" fill-opacity="0.3"/>
<path d="M316.025 594.337L320.876 593.094L322.099 598.026L317.248 599.269L316.025 594.337Z" fill="#FFAF00" fill-opacity="0.3"/>
<path d="M333.847 589.745L329.027 590.988L330.25 595.889L335.07 594.646L333.847 589.745Z" fill="#FFAF00" fill-opacity="0.3"/>
<path d="M341.992 587.666L346.843 586.422L348.025 591.354L343.215 592.597L341.992 587.666Z" fill="#FFAF00" fill-opacity="0.3"/>
<path d="M359.766 583.011L354.906 584.262L356.127 589.163L360.987 587.912L359.766 583.011Z" fill="#FFAF00" fill-opacity="0.3"/>
<path d="M367.955 581.035L372.765 579.792L373.988 584.682L369.137 585.925L367.955 581.035Z" fill="#FFAF00" fill-opacity="0.3"/>
<path d="M380.916 577.72L385.767 576.476L386.949 581.366L382.139 582.61L380.916 577.72Z" fill="#FFAF00" fill-opacity="0.3"/>
<path d="M393.879 574.363L398.729 573.12L399.952 578.051L395.102 579.253L393.879 574.363Z" fill="#FFAF00" fill-opacity="0.3"/>
<path d="M406.881 571.048L411.691 569.804L412.913 574.694L408.063 575.938L406.881 571.048Z" fill="#FFAF00" fill-opacity="0.3"/>
<path d="M419.842 567.691L424.652 566.447L425.874 571.379L421.065 572.622L419.842 567.691Z" fill="#FFAF00" fill-opacity="0.3"/>
<path d="M432.803 564.376L437.653 563.133L438.876 568.064L434.026 569.307L432.803 564.376Z" fill="#FFAF00" fill-opacity="0.3"/>
<path d="M445.768 561.06L450.618 559.817L451.841 564.707L446.99 565.951L445.768 561.06Z" fill="#FFAF00" fill-opacity="0.3"/>
<path d="M458.77 557.745L463.579 556.502L464.802 561.392L459.992 562.635L458.77 557.745Z" fill="#FFAF00" fill-opacity="0.3"/>
<path d="M471.73 554.388L476.581 553.145L477.804 558.076L472.953 559.278L471.73 554.388Z" fill="#FFAF00" fill-opacity="0.3"/>
<path d="M484.693 551.073L489.544 549.83L490.767 554.72L485.916 555.963L484.693 551.073Z" fill="#FFAF00" fill-opacity="0.3"/>
<path d="M497.695 547.716L502.505 546.473L503.728 551.405L498.918 552.648L497.695 547.716Z" fill="#FFAF00" fill-opacity="0.3"/>
<path d="M510.658 544.401L515.509 543.158L516.731 548.089L511.881 549.332L510.658 544.401Z" fill="#FFAF00" fill-opacity="0.3"/>
<path d="M523.617 541.086L528.468 539.842L529.691 544.732L524.84 545.976L523.617 541.086Z" fill="#FFAF00" fill-opacity="0.3"/>
<path d="M290.348 586.92L291.652 586.588L292.345 589.448C291.693 588.619 291 587.79 290.348 586.92Z" fill="#FFAF00" fill-opacity="0.3"/>
<path d="M299.803 584.475L304.612 583.273L305.835 588.163L300.985 589.406L299.803 584.475Z" fill="#FFAF00" fill-opacity="0.3"/>
<path d="M312.768 581.159L317.618 579.916L318.8 584.847L313.99 586.091L312.768 581.159Z" fill="#FFAF00" fill-opacity="0.3"/>
<path d="M325.727 577.844L330.577 576.6L331.8 581.49L326.949 582.734L325.727 577.844Z" fill="#FFAF00" fill-opacity="0.3"/>
<path d="M338.73 574.487L343.54 573.244L344.763 578.176L339.913 579.419L338.73 574.487Z" fill="#FFAF00" fill-opacity="0.3"/>
<path d="M351.691 571.172L356.501 569.929L357.724 574.86L352.914 576.103L351.691 571.172Z" fill="#FFAF00" fill-opacity="0.3"/>
<path d="M364.652 567.856L369.503 566.613L370.726 571.503L365.875 572.746L364.652 567.856Z" fill="#FFAF00" fill-opacity="0.3"/>
<path d="M377.656 564.5L382.466 563.299L383.689 568.189L378.838 569.432L377.656 564.5Z" fill="#FFAF00" fill-opacity="0.3"/>
<path d="M390.617 561.185L395.427 559.942L396.65 564.832L391.84 566.075L390.617 561.185Z" fill="#FFAF00" fill-opacity="0.3"/>
<path d="M403.58 557.869L408.431 556.626L409.653 561.516L404.803 562.759L403.58 557.869Z" fill="#FFAF00" fill-opacity="0.3"/>
<path d="M416.541 554.513L421.391 553.27L422.614 558.201L417.764 559.444L416.541 554.513Z" fill="#FFAF00" fill-opacity="0.3"/>
<path d="M429.543 551.198L434.353 549.954L435.576 554.886L430.766 556.129L429.543 551.198Z" fill="#FFAF00" fill-opacity="0.3"/>
<path d="M447.365 546.574L442.545 547.818L443.768 552.719L448.588 551.475L447.365 546.574Z" fill="#FFAF00" fill-opacity="0.3"/>
<path d="M455.467 544.525L460.317 543.323L461.54 548.214L456.69 549.457L455.467 544.525Z" fill="#FFAF00" fill-opacity="0.3"/>
<path d="M473.378 540.042L468.518 541.292L469.737 546.194L474.598 544.944L473.378 540.042Z" fill="#FFAF00" fill-opacity="0.3"/>
<path d="M481.432 537.895L486.282 536.61L487.505 541.542L482.654 542.785L481.432 537.895Z" fill="#FFAF00" fill-opacity="0.3"/>
<path d="M494.395 534.538L499.245 533.295L500.468 538.226L495.617 539.47L494.395 534.538Z" fill="#FFAF00" fill-opacity="0.3"/>
<path d="M507.354 531.223L512.204 529.98L513.427 534.911L508.617 536.155L507.354 531.223Z" fill="#FFAF00" fill-opacity="0.3"/>
<path d="M520.359 527.908L525.21 526.665L526.433 531.555L521.582 532.798L520.359 527.908Z" fill="#FFAF00" fill-opacity="0.3"/>
<path d="M533.32 524.551L538.13 523.308L538.578 525.048C538.334 526.25 538.089 527.452 537.845 528.612L534.543 529.482L533.32 524.551Z" fill="#FFAF00" fill-opacity="0.3"/>
<path d="M283.541 574.653L288.351 573.41L289.574 578.3L284.968 579.502C284.845 579.336 284.723 579.17 284.601 579.004L283.541 574.653Z" fill="#FFAF00" fill-opacity="0.3"/>
<path d="M296.502 571.296L301.352 570.053L302.575 574.984L297.725 576.228L296.502 571.296Z" fill="#FFAF00" fill-opacity="0.3"/>
<path d="M309.504 567.981L314.314 566.738L315.536 571.628L310.686 572.871L309.504 567.981Z" fill="#FFAF00" fill-opacity="0.3"/>
<path d="M322.467 564.666L327.277 563.423L328.499 568.313L323.69 569.556L322.467 564.666Z" fill="#FFAF00" fill-opacity="0.3"/>
<path d="M335.428 561.309L340.278 560.066L341.501 564.997L336.651 566.24L335.428 561.309Z" fill="#FFAF00" fill-opacity="0.3"/>
<path d="M348.391 557.994L353.241 556.75L354.464 561.682L349.613 562.884L348.391 557.994Z" fill="#FFAF00" fill-opacity="0.3"/>
<path d="M361.393 554.679L366.202 553.435L367.425 558.326L362.615 559.569L361.393 554.679Z" fill="#FFAF00" fill-opacity="0.3"/>
<path d="M374.354 551.322L379.204 550.078L380.427 555.01L375.576 556.253L374.354 551.322Z" fill="#FFAF00" fill-opacity="0.3"/>
<path d="M387.314 548.006L392.165 546.763L393.388 551.653L388.537 552.896L387.314 548.006Z" fill="#FFAF00" fill-opacity="0.3"/>
<path d="M400.318 544.691L405.128 543.407L406.351 548.338L401.541 549.582L400.318 544.691Z" fill="#FFAF00" fill-opacity="0.3"/>
<path d="M413.281 541.335L418.091 540.091L419.354 545.023L414.504 546.266L413.281 541.335Z" fill="#FFAF00" fill-opacity="0.3"/>
<path d="M426.24 538.019L431.091 536.776L432.314 541.707L427.463 542.909L426.24 538.019Z" fill="#FFAF00" fill-opacity="0.3"/>
<path d="M439.203 534.662L444.054 533.461L445.276 538.351L440.467 539.594L439.203 534.662Z" fill="#FFAF00" fill-opacity="0.3"/>
<path d="M452.207 531.347L457.057 530.104L458.28 535.036L453.43 536.279L452.207 531.347Z" fill="#FFAF00" fill-opacity="0.3"/>
<path d="M465.17 528.032L470.02 526.789L471.243 531.679L466.393 532.922L465.17 528.032Z" fill="#FFAF00" fill-opacity="0.3"/>
<path d="M478.129 524.675L482.979 523.432L484.202 528.363L479.393 529.606L478.129 524.675Z" fill="#FFAF00" fill-opacity="0.3"/>
<path d="M491.131 521.36L495.981 520.117L497.204 525.049L492.354 526.292L491.131 521.36Z" fill="#FFAF00" fill-opacity="0.3"/>
<path d="M504.096 518.045L508.946 516.802L510.169 521.692L505.319 522.935L504.096 518.045Z" fill="#FFAF00" fill-opacity="0.3"/>
<path d="M517.098 514.688L521.907 513.486L523.13 518.376L518.32 519.619L517.098 514.688Z" fill="#FFAF00" fill-opacity="0.3"/>
<path d="M530.059 511.373L534.909 510.129L536.132 515.061L531.281 516.304L530.059 511.373Z" fill="#FFAF00" fill-opacity="0.3"/>
<path d="M280.281 561.433L285.091 560.231L286.314 565.121L281.463 566.365L280.281 561.433Z" fill="#FFAF00" fill-opacity="0.3"/>
<path d="M293.242 558.118L298.052 556.875L299.275 561.807L294.465 563.05L293.242 558.118Z" fill="#FFAF00" fill-opacity="0.3"/>
<path d="M306.203 554.803L311.054 553.56L312.276 558.45L307.426 559.693L306.203 554.803Z" fill="#FFAF00" fill-opacity="0.3"/>
<path d="M319.164 551.487L324.015 550.244L325.237 555.134L320.387 556.378L319.164 551.487Z" fill="#FFAF00" fill-opacity="0.3"/>
<path d="M332.168 548.13L336.978 546.887L338.2 551.819L333.391 553.062L332.168 548.13Z" fill="#FFAF00" fill-opacity="0.3"/>
<path d="M349.984 543.499L345.164 544.743L346.387 549.644L351.207 548.4L349.984 543.499Z" fill="#FFAF00" fill-opacity="0.3"/>
<path d="M358.09 541.459L362.94 540.257L364.163 545.147L359.313 546.39L358.09 541.459Z" fill="#FFAF00" fill-opacity="0.3"/>
<path d="M371.092 538.143L375.901 536.9L377.124 541.832L372.315 543.075L371.092 538.143Z" fill="#FFAF00" fill-opacity="0.3"/>
<path d="M384.055 534.828L388.864 533.585L390.128 538.475L385.277 539.718L384.055 534.828Z" fill="#FFAF00" fill-opacity="0.3"/>
<path d="M397.018 531.513L401.868 530.228L403.091 535.16L398.24 536.403L397.018 531.513Z" fill="#FFAF00" fill-opacity="0.3"/>
<path d="M409.979 528.156L414.829 526.913L416.052 531.844L411.242 533.088L409.979 528.156Z" fill="#FFAF00" fill-opacity="0.3"/>
<path d="M422.98 524.841L427.831 523.598L429.054 528.488L424.203 529.731L422.98 524.841Z" fill="#FFAF00" fill-opacity="0.3"/>
<path d="M440.793 520.167L435.973 521.41L437.206 526.351L442.026 525.107L440.793 520.167Z" fill="#FFAF00" fill-opacity="0.3"/>
<path d="M448.904 518.169L453.755 516.926L454.978 521.816L450.168 523.101L448.904 518.169Z" fill="#FFAF00" fill-opacity="0.3"/>
<path d="M466.818 513.69L461.957 514.94L463.176 519.842L468.037 518.592L466.818 513.69Z" fill="#FFAF00" fill-opacity="0.3"/>
<path d="M474.869 511.497L479.72 510.254L480.942 515.186L476.092 516.429L474.869 511.497Z" fill="#FFAF00" fill-opacity="0.3"/>
<path d="M487.873 508.182L492.683 506.939L493.905 511.87L489.096 513.072L487.873 508.182Z" fill="#FFAF00" fill-opacity="0.3"/>
<path d="M500.832 504.867L505.682 503.623L506.865 508.513L502.055 509.757L500.832 504.867Z" fill="#FFAF00" fill-opacity="0.3"/>
<path d="M513.795 501.51L518.645 500.267L519.868 505.198L515.018 506.442L513.795 501.51Z" fill="#FFAF00" fill-opacity="0.3"/>
<path d="M531.656 496.912L526.836 498.156L528.059 503.056L532.879 501.813L531.656 496.912Z" fill="#FFAF00" fill-opacity="0.3"/>
<path d="M539.762 494.879L540.944 494.589C540.984 496.33 541.025 498.07 540.985 499.811L539.762 494.879Z" fill="#FFAF00" fill-opacity="0.3"/>
<path d="M276.979 548.255L281.788 547.012L283.052 551.944L278.201 553.187L276.979 548.255Z" fill="#FFAF00" fill-opacity="0.3"/>
<path d="M289.939 544.94L294.79 543.697L296.013 548.628L291.162 549.871L289.939 544.94Z" fill="#FFAF00" fill-opacity="0.3"/>
<path d="M302.943 541.625L307.753 540.381L308.976 545.271L304.166 546.515L302.943 541.625Z" fill="#FFAF00" fill-opacity="0.3"/>
<path d="M320.765 537.034L315.945 538.278L317.169 543.178L321.989 541.935L320.765 537.034Z" fill="#FFAF00" fill-opacity="0.3"/>
<path d="M328.865 534.953L333.716 533.71L334.938 538.641L330.088 539.843L328.865 534.953Z" fill="#FFAF00" fill-opacity="0.3"/>
<path d="M341.826 531.596L346.677 530.394L347.899 535.284L343.09 536.527L341.826 531.596Z" fill="#FFAF00" fill-opacity="0.3"/>
<path d="M354.832 528.28L359.642 527.037L360.905 531.969L356.055 533.212L354.832 528.28Z" fill="#FFAF00" fill-opacity="0.3"/>
<path d="M367.793 524.966L372.643 523.722L373.866 528.612L369.016 529.897L367.793 524.966Z" fill="#FFAF00" fill-opacity="0.3"/>
<path d="M380.752 521.65L385.602 520.407L386.825 525.297L382.015 526.54L380.752 521.65Z" fill="#FFAF00" fill-opacity="0.3"/>
<path d="M393.754 518.293L398.604 517.05L399.827 521.981L394.977 523.225L393.754 518.293Z" fill="#FFAF00" fill-opacity="0.3"/>
<path d="M406.719 514.978L411.569 513.735L412.792 518.666L407.942 519.868L406.719 514.978Z" fill="#FFAF00" fill-opacity="0.3"/>
<path d="M419.682 511.622L424.532 510.42L425.755 515.31L420.945 516.553L419.682 511.622Z" fill="#FFAF00" fill-opacity="0.3"/>
<path d="M432.682 508.306L437.532 507.063L438.755 511.994L433.904 513.238L432.682 508.306Z" fill="#FFAF00" fill-opacity="0.3"/>
<path d="M445.643 504.991L450.493 503.747L451.716 508.637L446.865 509.922L445.643 504.991Z" fill="#FFAF00" fill-opacity="0.3"/>
<path d="M458.645 501.675L463.454 500.432L464.677 505.322L459.867 506.565L458.645 501.675Z" fill="#FFAF00" fill-opacity="0.3"/>
<path d="M471.609 498.319L476.46 497.076L477.642 502.007L472.832 503.25L471.609 498.319Z" fill="#FFAF00" fill-opacity="0.3"/>
<path d="M484.57 495.003L489.421 493.76L490.644 498.692L485.793 499.894L484.57 495.003Z" fill="#FFAF00" fill-opacity="0.3"/>
<path d="M497.572 491.647L502.382 490.445L503.605 495.335L498.754 496.578L497.572 491.647Z" fill="#FFAF00" fill-opacity="0.3"/>
<path d="M510.533 488.332L515.384 487.089L516.566 492.02L511.756 493.263L510.533 488.332Z" fill="#FFAF00" fill-opacity="0.3"/>
<path d="M523.496 485.016L528.347 483.773L529.569 488.663L524.719 489.906L523.496 485.016Z" fill="#FFAF00" fill-opacity="0.3"/>
<path d="M536.498 481.701L539.881 480.831C540.085 482.53 540.289 484.229 540.452 485.928L537.721 486.633L536.498 481.701Z" fill="#FFAF00" fill-opacity="0.3"/>
<path d="M265.525 537.191L265.77 538.102C265.688 537.771 265.607 537.481 265.525 537.191Z" fill="#FFAF00" fill-opacity="0.3"/>
<path d="M273.678 535.077L278.528 533.834L279.751 538.765L274.941 540.008L273.678 535.077Z" fill="#FFAF00" fill-opacity="0.3"/>
<path d="M286.68 531.762L291.489 530.518L292.753 535.45L287.902 536.693L286.68 531.762Z" fill="#FFAF00" fill-opacity="0.3"/>
<path d="M299.643 528.446L304.493 527.203L305.716 532.093L300.865 533.336L299.643 528.446Z" fill="#FFAF00" fill-opacity="0.3"/>
<path d="M312.602 525.09L317.452 523.847L318.675 528.778L313.865 530.021L312.602 525.09Z" fill="#FFAF00" fill-opacity="0.3"/>
<path d="M325.604 521.774L330.413 520.531L331.677 525.421L326.826 526.664L325.604 521.774Z" fill="#FFAF00" fill-opacity="0.3"/>
<path d="M343.422 517.145L338.602 518.388L339.825 523.289L344.645 522.045L343.422 517.145Z" fill="#FFAF00" fill-opacity="0.3"/>
<path d="M351.527 515.103L356.378 513.859L357.601 518.791L352.791 520.034L351.527 515.103Z" fill="#FFAF00" fill-opacity="0.3"/>
<path d="M369.462 510.473L364.602 511.723L365.821 516.625L370.682 515.374L369.462 510.473Z" fill="#FFAF00" fill-opacity="0.3"/>
<path d="M377.492 508.472L382.343 507.229L383.565 512.119L378.715 513.362L377.492 508.472Z" fill="#FFAF00" fill-opacity="0.3"/>
<path d="M390.455 505.115L395.306 503.872L396.528 508.803L391.719 510.046L390.455 505.115Z" fill="#FFAF00" fill-opacity="0.3"/>
<path d="M403.459 501.8L408.309 500.557L409.492 505.447L404.682 506.69L403.459 501.8Z" fill="#FFAF00" fill-opacity="0.3"/>
<path d="M416.418 498.443L421.268 497.2L422.491 502.131L417.641 503.375L416.418 498.443Z" fill="#FFAF00" fill-opacity="0.3"/>
<path d="M434.273 493.815L429.453 495.058L430.676 499.959L435.496 498.715L434.273 493.815Z" fill="#FFAF00" fill-opacity="0.3"/>
<path d="M442.385 491.812L447.235 490.569L448.417 495.459L443.608 496.702L442.385 491.812Z" fill="#FFAF00" fill-opacity="0.3"/>
<path d="M455.344 488.498L460.194 487.254L461.417 492.144L456.567 493.388L455.344 488.498Z" fill="#FFAF00" fill-opacity="0.3"/>
<path d="M468.346 485.141L473.155 483.897L474.378 488.829L469.528 490.031L468.346 485.141Z" fill="#FFAF00" fill-opacity="0.3"/>
<path d="M486.168 480.543L481.348 481.786L482.571 486.687L487.391 485.443L486.168 480.543Z" fill="#FFAF00" fill-opacity="0.3"/>
<path d="M494.273 478.469L499.124 477.226L500.306 482.157L495.496 483.4L494.273 478.469Z" fill="#FFAF00" fill-opacity="0.3"/>
<path d="M507.273 475.153L512.083 473.91L513.306 478.842L508.455 480.085L507.273 475.153Z" fill="#FFAF00" fill-opacity="0.3"/>
<path d="M520.234 471.838L525.044 470.595L526.267 475.485L521.457 476.728L520.234 471.838Z" fill="#FFAF00" fill-opacity="0.3"/>
<path d="M533.197 468.523L537.518 467.404C537.885 469.062 538.211 470.719 538.537 472.377L534.42 473.454L533.197 468.523Z" fill="#FFAF00" fill-opacity="0.3"/>
<path d="M270.416 521.899L275.266 520.655L276.489 525.587L271.639 526.83L270.416 521.899Z" fill="#FFAF00" fill-opacity="0.3"/>
<path d="M283.379 518.583L288.229 517.34L289.452 522.23L284.643 523.473L283.379 518.583Z" fill="#FFAF00" fill-opacity="0.3"/>
<path d="M296.379 515.227L301.189 514.025L302.452 518.915L297.602 520.158L296.379 515.227Z" fill="#FFAF00" fill-opacity="0.3"/>
<path d="M309.344 511.911L314.194 510.668L315.417 515.6L310.567 516.801L309.344 511.911Z" fill="#FFAF00" fill-opacity="0.3"/>
<path d="M322.305 508.596L327.155 507.353L328.378 512.243L323.568 513.486L322.305 508.596Z" fill="#FFAF00" fill-opacity="0.3"/>
<path d="M335.307 505.24L340.116 503.996L341.38 508.928L336.529 510.171L335.307 505.24Z" fill="#FFAF00" fill-opacity="0.3"/>
<path d="M348.268 501.924L353.118 500.681L354.341 505.612L349.49 506.856L348.268 501.924Z" fill="#FFAF00" fill-opacity="0.3"/>
<path d="M361.23 498.609L366.081 497.366L367.304 502.256L362.494 503.499L361.23 498.609Z" fill="#FFAF00" fill-opacity="0.3"/>
<path d="M374.234 495.252L379.085 494.05L380.267 498.94L375.457 500.184L374.234 495.252Z" fill="#FFAF00" fill-opacity="0.3"/>
<path d="M387.193 491.937L392.044 490.694L393.267 495.625L388.416 496.827L387.193 491.937Z" fill="#FFAF00" fill-opacity="0.3"/>
<path d="M400.154 488.622L405.005 487.378L406.228 492.269L401.377 493.512L400.154 488.622Z" fill="#FFAF00" fill-opacity="0.3"/>
<path d="M413.158 485.265L418.009 484.021L419.191 488.953L414.381 490.196L413.158 485.265Z" fill="#FFAF00" fill-opacity="0.3"/>
<path d="M426.119 481.95L430.97 480.707L432.192 485.638L427.342 486.881L426.119 481.95Z" fill="#FFAF00" fill-opacity="0.3"/>
<path d="M439.123 478.635L443.933 477.391L445.156 482.281L440.305 483.525L439.123 478.635Z" fill="#FFAF00" fill-opacity="0.3"/>
<path d="M452.084 475.278L456.894 474.034L458.117 478.966L453.307 480.209L452.084 475.278Z" fill="#FFAF00" fill-opacity="0.3"/>
<path d="M465.045 471.962L469.895 470.719L471.077 475.609L466.268 476.852L465.045 471.962Z" fill="#FFAF00" fill-opacity="0.3"/>
<path d="M478.051 468.647L482.861 467.404L484.083 472.294L479.233 473.537L478.051 468.647Z" fill="#FFAF00" fill-opacity="0.3"/>
<path d="M491.01 465.29L495.82 464.047L497.042 468.979L492.192 470.222L491.01 465.29Z" fill="#FFAF00" fill-opacity="0.3"/>
<path d="M503.973 461.975L508.823 460.732L510.005 465.663L505.195 466.906L503.973 461.975Z" fill="#FFAF00" fill-opacity="0.3"/>
<path d="M521.843 457.43L516.982 458.68L518.202 463.581L523.062 462.332L521.843 457.43Z" fill="#FFAF00" fill-opacity="0.3"/>
<path d="M529.936 455.303L533.971 454.267C534.501 455.884 534.99 457.5 535.438 459.116L531.158 460.235L529.936 455.303Z" fill="#FFAF00" fill-opacity="0.3"/>
<path d="M272.054 507.526L267.193 508.776L268.413 513.677L273.273 512.427L272.054 507.526Z" fill="#FFAF00" fill-opacity="0.3"/>
<path d="M280.115 505.405L284.966 504.162L286.189 509.052L281.338 510.295L280.115 505.405Z" fill="#FFAF00" fill-opacity="0.3"/>
<path d="M297.969 500.759L293.148 502.003L294.382 506.944L299.202 505.7L297.969 500.759Z" fill="#FFAF00" fill-opacity="0.3"/>
<path d="M306.082 498.733L310.892 497.49L312.114 502.38L307.305 503.623L306.082 498.733Z" fill="#FFAF00" fill-opacity="0.3"/>
<path d="M319.043 495.418L323.893 494.175L325.116 499.065L320.266 500.308L319.043 495.418Z" fill="#FFAF00" fill-opacity="0.3"/>
<path d="M336.908 490.839L332.088 492.083L333.311 496.983L338.131 495.74L336.908 490.839Z" fill="#FFAF00" fill-opacity="0.3"/>
<path d="M345.008 488.746L349.858 487.503L351.04 492.434L346.231 493.636L345.008 488.746Z" fill="#FFAF00" fill-opacity="0.3"/>
<path d="M357.969 485.43L362.819 484.187L364.042 489.077L359.192 490.321L357.969 485.43Z" fill="#FFAF00" fill-opacity="0.3"/>
<path d="M370.93 482.074L375.78 480.831L377.003 485.762L372.152 487.006L370.93 482.074Z" fill="#FFAF00" fill-opacity="0.3"/>
<path d="M388.787 477.468L383.967 478.712L385.19 483.613L390.01 482.369L388.787 477.468Z" fill="#FFAF00" fill-opacity="0.3"/>
<path d="M396.896 475.443L401.747 474.159L402.929 479.09L398.119 480.333L396.896 475.443Z" fill="#FFAF00" fill-opacity="0.3"/>
<path d="M409.898 472.087L414.708 470.844L415.931 475.775L411.08 477.018L409.898 472.087Z" fill="#FFAF00" fill-opacity="0.3"/>
<path d="M422.859 468.772L427.669 467.528L428.892 472.46L424.082 473.662L422.859 468.772Z" fill="#FFAF00" fill-opacity="0.3"/>
<path d="M435.82 465.456L440.671 464.213L441.853 469.103L437.043 470.346L435.82 465.456Z" fill="#FFAF00" fill-opacity="0.3"/>
<path d="M448.783 462.099L453.634 460.856L454.857 465.787L450.006 467.031L448.783 462.099Z" fill="#FFAF00" fill-opacity="0.3"/>
<path d="M461.785 458.784L466.595 457.541L467.818 462.431L462.967 463.674L461.785 458.784Z" fill="#FFAF00" fill-opacity="0.3"/>
<path d="M474.746 455.427L479.556 454.184L480.779 459.116L475.969 460.359L474.746 455.427Z" fill="#FFAF00" fill-opacity="0.3"/>
<path d="M487.707 452.112L492.558 450.869L493.78 455.8L488.93 457.044L487.707 452.112Z" fill="#FFAF00" fill-opacity="0.3"/>
<path d="M500.709 448.797L505.519 447.553L506.741 452.485L501.891 453.687L500.709 448.797Z" fill="#FFAF00" fill-opacity="0.3"/>
<path d="M513.674 445.44L518.484 444.239L519.706 449.129L514.897 450.372L513.674 445.44Z" fill="#FFAF00" fill-opacity="0.3"/>
<path d="M526.635 442.125L529.162 441.462C529.814 442.995 530.466 444.612 531.118 446.186L527.898 447.015L526.635 442.125Z" fill="#FFAF00" fill-opacity="0.3"/>
<path d="M263.855 495.542L268.706 494.299L269.929 499.231L265.119 500.432L263.855 495.542Z" fill="#FFAF00" fill-opacity="0.3"/>
<path d="M276.857 492.186L281.667 490.984L282.89 495.874L278.08 497.117L276.857 492.186Z" fill="#FFAF00" fill-opacity="0.3"/>
<path d="M289.816 488.87L294.667 487.627L295.89 492.558L291.039 493.802L289.816 488.87Z" fill="#FFAF00" fill-opacity="0.3"/>
<path d="M302.779 485.555L307.63 484.312L308.853 489.202L304.002 490.445L302.779 485.555Z" fill="#FFAF00" fill-opacity="0.3"/>
<path d="M315.781 482.24L320.632 480.955L321.814 485.886L317.004 487.13L315.781 482.24Z" fill="#FFAF00" fill-opacity="0.3"/>
<path d="M328.746 478.883L333.597 477.64L334.819 482.571L329.969 483.814L328.746 478.883Z" fill="#FFAF00" fill-opacity="0.3"/>
<path d="M341.705 475.568L346.556 474.324L347.778 479.256L342.928 480.458L341.705 475.568Z" fill="#FFAF00" fill-opacity="0.3"/>
<path d="M354.707 472.211L359.517 471.01L360.74 475.9L355.93 477.143L354.707 472.211Z" fill="#FFAF00" fill-opacity="0.3"/>
<path d="M367.67 468.896L372.52 467.653L373.702 472.584L368.893 473.827L367.67 468.896Z" fill="#FFAF00" fill-opacity="0.3"/>
<path d="M380.674 465.58L385.483 464.337L386.706 469.227L381.856 470.47L380.674 465.58Z" fill="#FFAF00" fill-opacity="0.3"/>
<path d="M393.635 462.265L398.444 460.981L399.667 465.912L394.817 467.155L393.635 462.265Z" fill="#FFAF00" fill-opacity="0.3"/>
<path d="M406.596 458.909L411.446 457.665L412.628 462.597L407.819 463.84L406.596 458.909Z" fill="#FFAF00" fill-opacity="0.3"/>
<path d="M419.555 455.593L424.405 454.35L425.628 459.24L420.777 460.483L419.555 455.593Z" fill="#FFAF00" fill-opacity="0.3"/>
<path d="M432.561 452.236L437.37 451.035L438.593 455.925L433.743 457.168L432.561 452.236Z" fill="#FFAF00" fill-opacity="0.3"/>
<path d="M450.381 447.674L445.561 448.918L446.784 453.818L451.604 452.574L450.381 447.674Z" fill="#FFAF00" fill-opacity="0.3"/>
<path d="M458.484 445.606L463.335 444.363L464.558 449.253L459.707 450.496L458.484 445.606Z" fill="#FFAF00" fill-opacity="0.3"/>
<path d="M471.443 442.249L476.294 441.006L477.517 445.937L472.666 447.18L471.443 442.249Z" fill="#FFAF00" fill-opacity="0.3"/>
<path d="M484.445 438.934L489.255 437.691L490.478 442.622L485.668 443.866L484.445 438.934Z" fill="#FFAF00" fill-opacity="0.3"/>
<path d="M497.41 435.619L502.261 434.376L503.483 439.266L498.633 440.509L497.41 435.619Z" fill="#FFAF00" fill-opacity="0.3"/>
<path d="M510.371 432.262L515.222 431.019L516.445 435.95L511.594 437.193L510.371 432.262Z" fill="#FFAF00" fill-opacity="0.3"/>
<path d="M525.492 433.63L524.555 433.878L523.617 430.066C524.269 431.226 524.881 432.428 525.492 433.63Z" fill="#FFAF00" fill-opacity="0.3"/>
<path d="M261.245 482.157L265.402 481.079L266.625 485.969L261.774 487.212L261 484.104C261.122 483.483 261.163 482.82 261.245 482.157Z" fill="#FFAF00" fill-opacity="0.3"/>
<path d="M273.555 479.008L278.405 477.764L279.628 482.696L274.777 483.939L273.555 479.008Z" fill="#FFAF00" fill-opacity="0.3"/>
<path d="M291.404 474.386L286.584 475.63L287.807 480.531L292.627 479.287L291.404 474.386Z" fill="#FFAF00" fill-opacity="0.3"/>
<path d="M299.518 472.377L304.368 471.134L305.55 476.024L300.74 477.267L299.518 472.377Z" fill="#FFAF00" fill-opacity="0.3"/>
<path d="M312.48 469.061L317.331 467.777L318.554 472.708L313.703 473.951L312.48 469.061Z" fill="#FFAF00" fill-opacity="0.3"/>
<path d="M325.482 465.705L330.292 464.462L331.515 469.393L326.705 470.595L325.482 465.705Z" fill="#FFAF00" fill-opacity="0.3"/>
<path d="M338.445 462.39L343.296 461.146L344.478 466.036L339.668 467.28L338.445 462.39Z" fill="#FFAF00" fill-opacity="0.3"/>
<path d="M351.408 459.033L356.259 457.789L357.481 462.721L352.631 463.964L351.408 459.033Z" fill="#FFAF00" fill-opacity="0.3"/>
<path d="M364.408 455.717L369.218 454.474L370.441 459.364L365.59 460.649L364.408 455.717Z" fill="#FFAF00" fill-opacity="0.3"/>
<path d="M377.371 452.402L382.181 451.159L383.404 456.049L378.594 457.293L377.371 452.402Z" fill="#FFAF00" fill-opacity="0.3"/>
<path d="M390.332 449.046L395.182 447.802L396.405 452.734L391.555 453.977L390.332 449.046Z" fill="#FFAF00" fill-opacity="0.3"/>
<path d="M403.336 445.73L408.146 444.487L409.368 449.418L404.518 450.62L403.336 445.73Z" fill="#FFAF00" fill-opacity="0.3"/>
<path d="M416.297 442.373L421.107 441.172L422.329 446.062L417.52 447.305L416.297 442.373Z" fill="#FFAF00" fill-opacity="0.3"/>
<path d="M429.258 439.058L434.108 437.815L435.331 442.747L430.481 443.99L429.258 439.058Z" fill="#FFAF00" fill-opacity="0.3"/>
<path d="M442.219 435.743L447.069 434.5L448.292 439.39L443.442 440.674L442.219 435.743Z" fill="#FFAF00" fill-opacity="0.3"/>
<path d="M455.221 432.428L460.03 431.184L461.253 436.074L456.444 437.318L455.221 432.428Z" fill="#FFAF00" fill-opacity="0.3"/>
<path d="M468.186 429.071L473.036 427.828L474.259 432.76L469.408 434.003L468.186 429.071Z" fill="#FFAF00" fill-opacity="0.3"/>
<path d="M481.145 425.756L485.995 424.513L487.218 429.444L482.367 430.646L481.145 425.756Z" fill="#FFAF00" fill-opacity="0.3"/>
<path d="M494.146 422.399L498.956 421.197L500.22 426.087L495.369 427.33L494.146 422.399Z" fill="#FFAF00" fill-opacity="0.3"/>
<path d="M507.109 419.083L511.96 417.84L513.183 422.772L508.332 424.015L507.109 419.083Z" fill="#FFAF00" fill-opacity="0.3"/>
<path d="M262.955 471.175L263.362 472.833L262.588 473.04C262.71 472.419 262.833 471.797 262.955 471.175Z" fill="#FFAF00" fill-opacity="0.3"/>
<path d="M270.293 465.829L275.143 464.586L276.326 469.518L271.516 470.761L270.293 465.829Z" fill="#FFAF00" fill-opacity="0.3"/>
<path d="M283.258 462.514L288.108 461.271L289.331 466.202L284.481 467.445L283.258 462.514Z" fill="#FFAF00" fill-opacity="0.3"/>
<path d="M296.258 459.198L301.068 457.955L302.29 462.845L297.44 464.088L296.258 459.198Z" fill="#FFAF00" fill-opacity="0.3"/>
<path d="M309.219 455.842L314.069 454.599L315.251 459.53L310.442 460.774L309.219 455.842Z" fill="#FFAF00" fill-opacity="0.3"/>
<path d="M322.182 452.527L327.032 451.284L328.255 456.174L323.404 457.417L322.182 452.527Z" fill="#FFAF00" fill-opacity="0.3"/>
<path d="M335.184 449.17L339.993 447.968L341.216 452.858L336.366 454.101L335.184 449.17Z" fill="#FFAF00" fill-opacity="0.3"/>
<path d="M352.994 444.567L348.174 445.811L349.397 450.711L354.217 449.468L352.994 444.567Z" fill="#FFAF00" fill-opacity="0.3"/>
<path d="M361.107 442.54L365.958 441.296L367.181 446.186L362.33 447.471L361.107 442.54Z" fill="#FFAF00" fill-opacity="0.3"/>
<path d="M379.038 437.9L374.178 439.15L375.398 444.052L380.258 442.801L379.038 437.9Z" fill="#FFAF00" fill-opacity="0.3"/>
<path d="M387.072 435.867L391.882 434.624L393.105 439.555L388.295 440.799L387.072 435.867Z" fill="#FFAF00" fill-opacity="0.3"/>
<path d="M400.035 432.552L404.886 431.309L406.108 436.199L401.258 437.442L400.035 432.552Z" fill="#FFAF00" fill-opacity="0.3"/>
<path d="M412.996 429.196L417.847 427.994L419.069 432.884L414.219 434.127L412.996 429.196Z" fill="#FFAF00" fill-opacity="0.3"/>
<path d="M425.996 425.88L430.806 424.637L432.029 429.568L427.219 430.812L425.996 425.88Z" fill="#FFAF00" fill-opacity="0.3"/>
<path d="M443.816 421.289L438.996 422.533L440.219 427.433L445.04 426.19L443.816 421.289Z" fill="#FFAF00" fill-opacity="0.3"/>
<path d="M451.922 419.249L456.772 418.006L457.995 422.896L453.145 424.139L451.922 419.249Z" fill="#FFAF00" fill-opacity="0.3"/>
<path d="M469.829 414.691L464.969 415.941L466.188 420.843L471.049 419.593L469.829 414.691Z" fill="#FFAF00" fill-opacity="0.3"/>
<path d="M477.885 412.578L482.735 411.334L483.958 416.224L479.108 417.468L477.885 412.578Z" fill="#FFAF00" fill-opacity="0.3"/>
<path d="M490.848 409.221L495.698 407.978L496.921 412.909L492.07 414.152L490.848 409.221Z" fill="#FFAF00" fill-opacity="0.3"/>
<path d="M503.85 405.905L506.581 405.201C507.681 406.485 508.741 407.77 509.76 409.096L509.882 409.593L505.072 410.837L503.85 405.905Z" fill="#FFAF00" fill-opacity="0.3"/>
<path d="M267.928 452.402L271.841 451.408L273.064 456.298L268.213 457.541L267.357 454.101C267.561 453.521 267.765 452.982 267.928 452.402Z" fill="#FFAF00" fill-opacity="0.3"/>
<path d="M279.994 449.336L284.804 448.092L286.027 452.982L281.217 454.226L279.994 449.336Z" fill="#FFAF00" fill-opacity="0.3"/>
<path d="M292.957 446.02L297.808 444.777L299.03 449.667L294.18 450.91L292.957 446.02Z" fill="#FFAF00" fill-opacity="0.3"/>
<path d="M305.959 442.664L310.769 441.42L311.992 446.352L307.141 447.554L305.959 442.664Z" fill="#FFAF00" fill-opacity="0.3"/>
<path d="M318.92 439.348L323.73 438.105L324.952 442.995L320.143 444.238L318.92 439.348Z" fill="#FFAF00" fill-opacity="0.3"/>
<path d="M331.883 435.992L336.733 434.749L337.956 439.68L333.106 440.923L331.883 435.992Z" fill="#FFAF00" fill-opacity="0.3"/>
<path d="M344.846 432.677L349.696 431.433L350.919 436.365L346.069 437.608L344.846 432.677Z" fill="#FFAF00" fill-opacity="0.3"/>
<path d="M357.846 429.361L362.655 428.118L363.878 433.008L359.069 434.251L357.846 429.361Z" fill="#FFAF00" fill-opacity="0.3"/>
<path d="M370.809 426.004L375.659 424.803L376.882 429.693L372.031 430.936L370.809 426.004Z" fill="#FFAF00" fill-opacity="0.3"/>
<path d="M383.77 422.689L388.62 421.446L389.843 426.378L384.992 427.579L383.77 422.689Z" fill="#FFAF00" fill-opacity="0.3"/>
<path d="M396.773 419.374L401.583 418.131L402.806 423.021L397.996 424.264L396.773 419.374Z" fill="#FFAF00" fill-opacity="0.3"/>
<path d="M409.734 416.017L414.585 414.774L415.808 419.705L410.957 420.949L409.734 416.017Z" fill="#FFAF00" fill-opacity="0.3"/>
<path d="M422.697 412.702L427.548 411.458L428.771 416.39L423.92 417.633L422.697 412.702Z" fill="#FFAF00" fill-opacity="0.3"/>
<path d="M435.699 409.387L440.509 408.144L441.732 413.034L436.922 414.277L435.699 409.387Z" fill="#FFAF00" fill-opacity="0.3"/>
<path d="M448.658 406.03L453.509 404.787L454.732 409.718L449.881 410.961L448.658 406.03Z" fill="#FFAF00" fill-opacity="0.3"/>
<path d="M461.621 402.714L466.472 401.471L467.694 406.403L462.844 407.605L461.621 402.714Z" fill="#FFAF00" fill-opacity="0.3"/>
<path d="M474.627 399.399L479.437 398.156L480.659 403.046L475.85 404.289L474.627 399.399Z" fill="#FFAF00" fill-opacity="0.3"/>
<path d="M487.586 396.043L492.436 394.8L493.659 399.731L488.809 400.974L487.586 396.043Z" fill="#FFAF00" fill-opacity="0.3"/>
<path d="M276.691 436.157L281.542 434.914L282.765 439.804L277.914 441.047L276.691 436.157Z" fill="#FFAF00" fill-opacity="0.3"/>
<path d="M289.693 432.801L294.503 431.599L295.726 436.489L290.916 437.732L289.693 432.801Z" fill="#FFAF00" fill-opacity="0.3"/>
<path d="M302.658 429.485L307.509 428.242L308.732 433.132L303.881 434.375L302.658 429.485Z" fill="#FFAF00" fill-opacity="0.3"/>
<path d="M315.619 426.17L320.47 424.927L321.692 429.817L316.842 431.06L315.619 426.17Z" fill="#FFAF00" fill-opacity="0.3"/>
<path d="M328.621 422.814L333.431 421.57L334.654 426.502L329.844 427.745L328.621 422.814Z" fill="#FFAF00" fill-opacity="0.3"/>
<path d="M341.584 419.498L346.435 418.255L347.657 423.186L342.807 424.43L341.584 419.498Z" fill="#FFAF00" fill-opacity="0.3"/>
<path d="M354.547 416.183L359.397 414.94L360.62 419.83L355.77 421.073L354.547 416.183Z" fill="#FFAF00" fill-opacity="0.3"/>
<path d="M372.47 411.504L367.609 412.755L368.829 417.656L373.69 416.406L372.47 411.504Z" fill="#FFAF00" fill-opacity="0.3"/>
<path d="M380.508 409.511L385.358 408.268L386.581 413.158L381.731 414.401L380.508 409.511Z" fill="#FFAF00" fill-opacity="0.3"/>
<path d="M393.473 406.195L398.323 404.911L399.546 409.842L394.695 411.086L393.473 406.195Z" fill="#FFAF00" fill-opacity="0.3"/>
<path d="M406.475 402.839L411.284 401.595L412.507 406.527L407.697 407.77L406.475 402.839Z" fill="#FFAF00" fill-opacity="0.3"/>
<path d="M419.438 399.524L424.288 398.281L425.511 403.212L420.66 404.414L419.438 399.524Z" fill="#FFAF00" fill-opacity="0.3"/>
<path d="M437.297 394.924L432.477 396.168L433.7 401.068L438.52 399.825L437.297 394.924Z" fill="#FFAF00" fill-opacity="0.3"/>
<path d="M445.398 392.852L450.208 391.608L451.431 396.54L446.621 397.783L445.398 392.852Z" fill="#FFAF00" fill-opacity="0.3"/>
<path d="M463.271 388.336L458.41 389.586L459.629 394.487L464.49 393.238L463.271 388.336Z" fill="#FFAF00" fill-opacity="0.3"/>
<path d="M471.322 386.18L476.173 384.936L477.395 389.868L472.545 391.111L471.322 386.18Z" fill="#FFAF00" fill-opacity="0.3"/>
<path d="M487.953 387.133L485.507 387.754L484.732 384.605C485.833 385.475 486.893 386.304 487.953 387.133Z" fill="#FFAF00" fill-opacity="0.3"/>
<path d="M286.395 419.622L291.245 418.379L292.468 423.311L287.617 424.554L286.395 419.622Z" fill="#FFAF00" fill-opacity="0.3"/>
<path d="M299.396 416.307L304.206 415.064L305.429 419.954L300.619 421.197L299.396 416.307Z" fill="#FFAF00" fill-opacity="0.3"/>
<path d="M312.357 412.992L317.208 411.707L318.431 416.639L313.58 417.882L312.357 412.992Z" fill="#FFAF00" fill-opacity="0.3"/>
<path d="M325.32 409.635L330.171 408.392L331.394 413.323L326.543 414.567L325.32 409.635Z" fill="#FFAF00" fill-opacity="0.3"/>
<path d="M338.322 406.32L343.132 405.077L344.355 410.008L339.545 411.21L338.322 406.32Z" fill="#FFAF00" fill-opacity="0.3"/>
<path d="M351.283 402.963L356.134 401.761L357.356 406.651L352.506 407.894L351.283 402.963Z" fill="#FFAF00" fill-opacity="0.3"/>
<path d="M364.246 399.648L369.097 398.405L370.319 403.336L365.469 404.579L364.246 399.648Z" fill="#FFAF00" fill-opacity="0.3"/>
<path d="M377.25 396.333L382.06 395.089L383.283 399.979L378.473 401.223L377.25 396.333Z" fill="#FFAF00" fill-opacity="0.3"/>
<path d="M390.211 392.976L395.061 391.733L396.284 396.665L391.434 397.908L390.211 392.976Z" fill="#FFAF00" fill-opacity="0.3"/>
<path d="M403.172 389.661L408.022 388.418L409.245 393.349L404.395 394.592L403.172 389.661Z" fill="#FFAF00" fill-opacity="0.3"/>
<path d="M416.174 386.345L420.984 385.102L422.206 389.992L417.397 391.235L416.174 386.345Z" fill="#FFAF00" fill-opacity="0.3"/>
<path d="M429.139 382.989L433.989 381.787L435.171 386.677L430.361 387.92L429.139 382.989Z" fill="#FFAF00" fill-opacity="0.3"/>
<path d="M442.098 379.674L446.948 378.431L448.171 383.321L443.32 384.605L442.098 379.674Z" fill="#FFAF00" fill-opacity="0.3"/>
<path d="M455.1 376.358L459.909 375.115L461.132 380.005L456.322 381.248L455.1 376.358Z" fill="#FFAF00" fill-opacity="0.3"/>
<path d="M473.442 376.855L469.285 377.933L468.266 373.83C470.018 374.824 471.73 375.819 473.442 376.855Z" fill="#FFAF00" fill-opacity="0.3"/>
<path d="M296.706 402.964L300.945 401.886L302.168 406.818L297.358 408.061L296.258 403.544C296.38 403.336 296.543 403.129 296.706 402.964Z" fill="#FFAF00" fill-opacity="0.3"/>
<path d="M309.098 399.814L313.907 398.529L315.13 403.461L310.32 404.704L309.098 399.814Z" fill="#FFAF00" fill-opacity="0.3"/>
<path d="M322.061 396.457L326.911 395.214L328.134 400.145L323.283 401.388L322.061 396.457Z" fill="#FFAF00" fill-opacity="0.3"/>
<path d="M339.914 391.844L335.094 393.088L336.317 397.988L341.137 396.745L339.914 391.844Z" fill="#FFAF00" fill-opacity="0.3"/>
<path d="M348.021 389.785L352.831 388.542L354.054 393.473L349.244 394.717L348.021 389.785Z" fill="#FFAF00" fill-opacity="0.3"/>
<path d="M360.986 386.47L365.837 385.227L367.06 390.117L362.209 391.401L360.986 386.47Z" fill="#FFAF00" fill-opacity="0.3"/>
<path d="M373.947 383.154L378.798 381.911L380.02 386.801L375.17 388.044L373.947 383.154Z" fill="#FFAF00" fill-opacity="0.3"/>
<path d="M391.814 378.588L386.994 379.832L388.217 384.733L393.037 383.489L391.814 378.588Z" fill="#FFAF00" fill-opacity="0.3"/>
<path d="M399.91 376.483L404.761 375.239L405.943 380.171L401.133 381.373L399.91 376.483Z" fill="#FFAF00" fill-opacity="0.3"/>
<path d="M412.875 373.167L417.725 371.924L418.948 376.814L414.098 378.057L412.875 373.167Z" fill="#FFAF00" fill-opacity="0.3"/>
<path d="M425.875 369.811L430.685 368.568L431.908 373.499L427.098 374.742L425.875 369.811Z" fill="#FFAF00" fill-opacity="0.3"/>
<path d="M438.838 366.495L443.688 365.252L444.87 370.142L440.061 371.385L438.838 366.495Z" fill="#FFAF00" fill-opacity="0.3"/>
<path d="M455.385 367.449L453.021 368.029L452.572 366.247C453.51 366.703 454.447 367.076 455.385 367.449Z" fill="#FFAF00" fill-opacity="0.3"/>
<path d="M311.463 388.666L311.87 390.282L308.609 391.111C309.547 390.282 310.484 389.453 311.463 388.666Z" fill="#FFAF00" fill-opacity="0.3"/>
<path d="M318.797 383.279L323.607 382.036L324.829 386.967L320.02 388.169L318.797 383.279Z" fill="#FFAF00" fill-opacity="0.3"/>
<path d="M331.76 379.922L336.61 378.72L337.833 383.61L332.983 384.854L331.76 379.922Z" fill="#FFAF00" fill-opacity="0.3"/>
<path d="M344.721 376.607L349.571 375.363L350.794 380.295L345.944 381.538L344.721 376.607Z" fill="#FFAF00" fill-opacity="0.3"/>
<path d="M357.723 373.291L362.532 372.048L363.755 376.938L358.945 378.223L357.723 373.291Z" fill="#FFAF00" fill-opacity="0.3"/>
<path d="M370.686 369.977L375.536 368.733L376.718 373.623L371.908 374.867L370.686 369.977Z" fill="#FFAF00" fill-opacity="0.3"/>
<path d="M383.65 366.62L388.501 365.376L389.724 370.308L384.873 371.551L383.65 366.62Z" fill="#FFAF00" fill-opacity="0.3"/>
<path d="M396.652 363.304L401.462 362.061L402.685 366.951L397.834 368.194L396.652 363.304Z" fill="#FFAF00" fill-opacity="0.3"/>
<path d="M409.611 359.947L414.462 358.746L415.644 363.636L410.834 364.879L409.611 359.947Z" fill="#FFAF00" fill-opacity="0.3"/>
<path d="M428.279 358.953L428.605 360.321L423.795 361.564L422.898 358C424.692 358.249 426.526 358.58 428.279 358.953Z" fill="#FFAF00" fill-opacity="0.3"/>
<path d="M347.453 366.827L347.494 367.117L345.619 367.614C346.231 367.324 346.842 367.075 347.453 366.827Z" fill="#FFAF00" fill-opacity="0.3"/>
<path d="M360.13 362.268L360.497 363.76L355.647 365.003L355.361 363.802C356.91 363.263 358.5 362.766 360.13 362.268Z" fill="#FFAF00" fill-opacity="0.3"/>
<path d="M373.09 358.953L373.457 360.445L368.607 361.688L368.199 360.072C369.83 359.657 371.46 359.284 373.09 358.953Z" fill="#FFAF00" fill-opacity="0.3"/>
<path d="M424 145C424 147.25 422.25 149 420 149C417.75 149 416 147.25 416 145C416 142.75 417.75 141 420 141C422.25 141 424 142.75 424 145Z" fill="#0090CF" fill-opacity="0.2"/>
<path d="M424 165C424 167.25 422.25 169 420 169C417.75 169 416 167.25 416 165C416 162.75 417.75 161 420 161C422.25 161.25 424 163 424 165Z" fill="#0090CF" fill-opacity="0.2"/>
<path d="M424 185C424 187.25 422.25 189 420 189C417.75 189 416 187.25 416 185C416 182.75 417.75 181 420 181C422.25 181 424 182.75 424 185Z" fill="#0090CF" fill-opacity="0.2"/>
<path d="M424 205C424 207.25 422.25 209 420 209C417.75 209 416 207.25 416 205C416 202.75 417.75 201 420 201C422.25 201 424 202.75 424 205Z" fill="#0090CF" fill-opacity="0.2"/>
<path d="M424 225C424 227.25 422.25 229 420 229C417.75 229 416 227.25 416 225C416 222.75 417.75 221 420 221C422.25 221.25 424 222.75 424 225Z" fill="#0090CF" fill-opacity="0.2"/>
<path d="M424 245C424 247.25 422.25 249 420 249C417.75 249 416 247.25 416 245C416 242.75 417.75 241 420 241C422.25 241 424 242.75 424 245Z" fill="#0090CF" fill-opacity="0.2"/>
<path d="M444 145C444 147.25 442.25 149 440 149C437.75 149 436 147.25 436 145C436 142.75 437.75 141 440 141C442.25 141 444 142.75 444 145Z" fill="#0090CF" fill-opacity="0.2"/>
<path d="M444 165C444 167.25 442.25 169 440 169C437.75 169 436 167.25 436 165C436 162.75 437.75 161 440 161C442.25 161.25 444 163 444 165Z" fill="#0090CF" fill-opacity="0.2"/>
<path d="M444 185C444 187.25 442.25 189 440 189C437.75 189 436 187.25 436 185C436 182.75 437.75 181 440 181C442.25 181 444 182.75 444 185Z" fill="#0090CF" fill-opacity="0.2"/>
<path d="M444 205C444 207.25 442.25 209 440 209C437.75 209 436 207.25 436 205C436 202.75 437.75 201 440 201C442.25 201 444 202.75 444 205Z" fill="#0090CF" fill-opacity="0.2"/>
<path d="M444 225C444 227.25 442.25 229 440 229C437.75 229 436 227.25 436 225C436 222.75 437.75 221 440 221C442.25 221.25 444 222.75 444 225Z" fill="#0090CF" fill-opacity="0.2"/>
<path d="M444 245C444 247.25 442.25 249 440 249C437.75 249 436 247.25 436 245C436 242.75 437.75 241 440 241C442.25 241 444 242.75 444 245Z" fill="#0090CF" fill-opacity="0.2"/>
<path d="M464 145C464 147.25 462.25 149 460 149C457.75 149 456 147.25 456 145C456 142.75 457.75 141 460 141C462.25 141 464 142.75 464 145Z" fill="#0090CF" fill-opacity="0.2"/>
<path d="M464 165C464 167.25 462.25 169 460 169C457.75 169 456 167.25 456 165C456 162.75 457.75 161 460 161C462.25 161.25 464 163 464 165Z" fill="#0090CF" fill-opacity="0.2"/>
<path d="M464 185C464 187.25 462.25 189 460 189C457.75 189 456 187.25 456 185C456 182.75 457.75 181 460 181C462.25 181 464 182.75 464 185Z" fill="#0090CF" fill-opacity="0.2"/>
<path d="M464 205C464 207.25 462.25 209 460 209C457.75 209 456 207.25 456 205C456 202.75 457.75 201 460 201C462.25 201 464 202.75 464 205Z" fill="#0090CF" fill-opacity="0.2"/>
<path d="M464 225C464 227.25 462.25 229 460 229C457.75 229 456 227.25 456 225C456 222.75 457.75 221 460 221C462.25 221.25 464 222.75 464 225Z" fill="#0090CF" fill-opacity="0.2"/>
<path d="M464 245C464 247.25 462.25 249 460 249C457.75 249 456 247.25 456 245C456 242.75 457.75 241 460 241C462.25 241 464 242.75 464 245Z" fill="#0090CF" fill-opacity="0.2"/>
<path d="M484 145C484 147.25 482.25 149 480 149C477.75 149 476 147.25 476 145C476 142.75 477.75 141 480 141C482.25 141 484 142.75 484 145Z" fill="#0090CF" fill-opacity="0.2"/>
<path d="M484 165C484 167.25 482.25 169 480 169C477.75 169 476 167.25 476 165C476 162.75 477.75 161 480 161C482.25 161.25 484 163 484 165Z" fill="#0090CF" fill-opacity="0.2"/>
<path d="M484 185C484 187.25 482.25 189 480 189C477.75 189 476 187.25 476 185C476 182.75 477.75 181 480 181C482.25 181 484 182.75 484 185Z" fill="#0090CF" fill-opacity="0.2"/>
<path d="M484 205C484 207.25 482.25 209 480 209C477.75 209 476 207.25 476 205C476 202.75 477.75 201 480 201C482.25 201 484 202.75 484 205Z" fill="#0090CF" fill-opacity="0.2"/>
<path d="M484 225C484 227.25 482.25 229 480 229C477.75 229 476 227.25 476 225C476 222.75 477.75 221 480 221C482.25 221.25 484 222.75 484 225Z" fill="#0090CF" fill-opacity="0.2"/>
<path d="M484 245C484 247.25 482.25 249 480 249C477.75 249 476 247.25 476 245C476 242.75 477.75 241 480 241C482.25 241 484 242.75 484 245Z" fill="#0090CF" fill-opacity="0.2"/>
<path d="M504 145C504 147.25 502.25 149 500 149C497.75 149 496 147.25 496 145C496 142.75 497.75 141 500 141C502.25 141 504 142.75 504 145Z" fill="#0090CF" fill-opacity="0.2"/>
<path d="M504 165C504 167.25 502.25 169 500 169C497.75 169 496 167.25 496 165C496 162.75 497.75 161 500 161C502.25 161.25 504 163 504 165Z" fill="#0090CF" fill-opacity="0.2"/>
<path d="M504 185C504 187.25 502.25 189 500 189C497.75 189 496 187.25 496 185C496 182.75 497.75 181 500 181C502.25 181 504 182.75 504 185Z" fill="#0090CF" fill-opacity="0.2"/>
<path d="M504 205C504 207.25 502.25 209 500 209C497.75 209 496 207.25 496 205C496 202.75 497.75 201 500 201C502.25 201 504 202.75 504 205Z" fill="#0090CF" fill-opacity="0.2"/>
<path d="M504 225C504 227.25 502.25 229 500 229C497.75 229 496 227.25 496 225C496 222.75 497.75 221 500 221C502.25 221.25 504 222.75 504 225Z" fill="#0090CF" fill-opacity="0.2"/>
<path d="M504 245C504 247.25 502.25 249 500 249C497.75 249 496 247.25 496 245C496 242.75 497.75 241 500 241C502.25 241 504 242.75 504 245Z" fill="#0090CF" fill-opacity="0.2"/>
<path d="M524 145C524 147.25 522.25 149 520 149C517.75 149 516 147.25 516 145C516 142.75 517.75 141 520 141C522.25 141 524 142.75 524 145Z" fill="#0090CF" fill-opacity="0.2"/>
<path d="M524 165C524 167.25 522.25 169 520 169C517.75 169 516 167.25 516 165C516 162.75 517.75 161 520 161C522.25 161.25 524 163 524 165Z" fill="#0090CF" fill-opacity="0.2"/>
<path d="M524 185C524 187.25 522.25 189 520 189C517.75 189 516 187.25 516 185C516 182.75 517.75 181 520 181C522.25 181 524 182.75 524 185Z" fill="#0090CF" fill-opacity="0.2"/>
<path d="M524 205C524 207.25 522.25 209 520 209C517.75 209 516 207.25 516 205C516 202.75 517.75 201 520 201C522.25 201 524 202.75 524 205Z" fill="#0090CF" fill-opacity="0.2"/>
<path d="M524 225C524 227.25 522.25 229 520 229C517.75 229 516 227.25 516 225C516 222.75 517.75 221 520 221C522.25 221.25 524 222.75 524 225Z" fill="#0090CF" fill-opacity="0.2"/>
<path d="M524 245C524 247.25 522.25 249 520 249C517.75 249 516 247.25 516 245C516 242.75 517.75 241 520 241C522.25 241 524 242.75 524 245Z" fill="#0090CF" fill-opacity="0.2"/>
<path d="M660.863 327.445C661.854 147.598 515.196 1.82915 333.295 1.85949C151.393 1.88982 3.12902 147.708 2.13805 327.554C1.14709 507.401 147.804 653.17 329.706 653.14C511.608 653.11 659.872 507.291 660.863 327.445Z" stroke="#CCE9F5" stroke-opacity="0.4" stroke-width="3" stroke-miterlimit="10" stroke-linecap="round"/>
<path d="M331.488 546.236C453.993 546.236 553.303 448.179 553.303 327.219C553.303 206.259 453.993 108.202 331.488 108.202C208.984 108.202 109.674 206.259 109.674 327.219C109.674 448.179 208.984 546.236 331.488 546.236Z" stroke="#CCE9F5" stroke-opacity="0.4" stroke-width="3" stroke-miterlimit="10" stroke-linecap="round"/>
<path d="M486.34 363.182C506.469 279.008 453.68 194.661 368.432 174.785C283.184 154.909 197.759 207.032 177.629 291.205C157.5 375.379 210.289 459.727 295.537 479.603C380.785 499.478 466.21 447.355 486.34 363.182Z" stroke="#CCE9F5" stroke-opacity="0.4" stroke-width="3" stroke-miterlimit="10" stroke-linecap="round"/>
</svg>
