<svg width="104" height="27" viewBox="0 0 104 27" fill="none" xmlns="http://www.w3.org/2000/svg">
<path d="M15.7729 12.8086C15.784 11.9531 16.0131 11.1143 16.4388 10.3702C16.8645 9.62605 17.473 9.00086 18.2077 8.55276C17.7409 7.89147 17.1252 7.34725 16.4094 6.96334C15.6936 6.57942 14.8974 6.36638 14.084 6.34114C12.349 6.16047 10.6671 7.37109 9.78294 7.37109C8.88172 7.37109 7.52048 6.35907 6.05465 6.38899C5.10652 6.41938 4.18248 6.69291 3.37258 7.18292C2.56269 7.67293 1.89454 8.36271 1.43325 9.18506C-0.564946 12.6172 0.925531 17.6613 2.83964 20.4355C3.79731 21.794 4.91655 23.3115 6.38105 23.2577C7.81416 23.1987 8.34939 22.3511 10.0793 22.3511C11.7931 22.3511 12.2953 23.2577 13.7895 23.2235C15.3273 23.1987 16.2961 21.8589 17.2202 20.4876C17.9083 19.5196 18.4378 18.4498 18.789 17.3178C17.8956 16.9429 17.1332 16.3154 16.5969 15.5136C16.0605 14.7117 15.7739 13.771 15.7729 12.8086Z" fill="white"/>
<path d="M12.95 4.51636C13.7885 3.5178 14.2016 2.23431 14.1015 0.938477C12.8206 1.07195 11.6373 1.67933 10.7875 2.63958C10.372 3.10868 10.0538 3.65443 9.85102 4.24562C9.64826 4.83681 9.56494 5.46185 9.60582 6.085C10.2465 6.09155 10.8804 5.95377 11.4597 5.68206C12.039 5.41034 12.5485 5.01177 12.95 4.51636Z" fill="white"/>
<path d="M33.8884 19.8184H28.9978L27.8234 23.2587H25.752L30.3842 10.5303H32.5363L37.1686 23.2587H35.0618L33.8884 19.8184ZM29.5043 18.2308H33.3809L31.4699 12.6474H31.4164L29.5043 18.2308Z" fill="white"/>
<path d="M47.1728 18.6192C47.1728 21.503 45.6169 23.3558 43.269 23.3558C42.6743 23.3867 42.0828 23.2508 41.5623 22.9636C41.0417 22.6765 40.6132 22.2498 40.3258 21.7322H40.2814V26.3287H38.3613V13.9787H40.2199V15.5222H40.2552C40.5558 15.0072 40.9916 14.5826 41.516 14.2937C42.0405 14.0048 42.6341 13.8624 43.2337 13.8816C45.6078 13.8816 47.1728 15.7434 47.1728 18.6192ZM45.1992 18.6192C45.1992 16.7404 44.2205 15.5052 42.7272 15.5052C41.2602 15.5052 40.2734 16.7664 40.2734 18.6192C40.2734 20.4891 41.2602 21.7413 42.7272 21.7413C44.2205 21.7413 45.1992 20.5151 45.1992 18.6192Z" fill="white"/>
<path d="M57.4677 18.6192C57.4677 21.503 55.9119 23.3558 53.564 23.3558C52.9692 23.3867 52.3777 23.2508 51.8572 22.9636C51.3367 22.6765 50.9082 22.2497 50.6208 21.7322H50.5763V26.3287H48.6562V13.9787H50.5148V15.5222H50.5501C50.8507 15.0072 51.2864 14.5826 51.8109 14.2937C52.3354 14.0048 52.929 13.8624 53.5286 13.8816C55.9028 13.8816 57.4677 15.7434 57.4677 18.6192ZM55.4941 18.6192C55.4941 16.7404 54.5154 15.5052 53.0221 15.5052C51.5551 15.5052 50.5683 16.7664 50.5683 18.6192C50.5683 20.489 51.5551 21.7413 53.0221 21.7413C54.5154 21.7413 55.4941 20.5151 55.4941 18.6192Z" fill="white"/>
<path d="M64.2722 19.7121C64.4144 20.9743 65.6504 21.8031 67.3395 21.8031C68.9579 21.8031 70.1222 20.9743 70.1222 19.8362C70.1222 18.8482 69.42 18.2566 67.7572 17.8512L66.0944 17.4538C63.7384 16.8893 62.6447 15.7962 62.6447 14.0225C62.6447 11.8263 64.5739 10.3179 67.3132 10.3179C70.0243 10.3179 71.8829 11.8263 71.9455 14.0225H70.0072C69.8912 12.7522 68.8327 11.9855 67.286 11.9855C65.7392 11.9855 64.6808 12.7613 64.6808 13.8904C64.6808 14.7902 65.3568 15.3198 67.0105 15.7251L68.4241 16.0695C71.0565 16.6871 72.1503 17.7361 72.1503 19.5979C72.1503 21.9792 70.2382 23.4707 67.1972 23.4707C64.3518 23.4707 62.4307 22.0142 62.3066 19.712L64.2722 19.7121Z" fill="white"/>
<path d="M76.2951 11.7822V13.9784H78.074V15.4868H76.2951V20.6028C76.2951 21.3976 76.6513 21.768 77.4333 21.768C77.6444 21.7643 77.8553 21.7496 78.0649 21.7239V23.2234C77.7133 23.2885 77.356 23.318 76.9984 23.3114C75.1045 23.3114 74.366 22.6058 74.366 20.806V15.4868H73.0059V13.9784H74.3659V11.7822H76.2951Z" fill="white"/>
<path d="M79.1035 18.6189C79.1035 15.699 80.8369 13.8643 83.54 13.8643C86.2521 13.8643 87.9775 15.699 87.9775 18.6189C87.9775 21.5468 86.2612 23.3735 83.54 23.3735C80.8197 23.3735 79.1035 21.5467 79.1035 18.6189ZM86.0211 18.6189C86.0211 16.6159 85.0958 15.4338 83.54 15.4338C81.9841 15.4338 81.0599 16.625 81.0599 18.6189C81.0599 20.6299 81.9841 21.803 83.54 21.803C85.0958 21.803 86.0211 20.6299 86.0211 18.6189Z" fill="white"/>
<path d="M89.5606 13.9786H91.3919V15.5581H91.4363C91.5602 15.0648 91.8515 14.6288 92.2612 14.3235C92.671 14.0182 93.1742 13.8621 93.6863 13.8815C93.9076 13.8807 94.1282 13.9046 94.3442 13.9526V15.7343C94.0648 15.6496 93.7734 15.6107 93.4814 15.6192C93.2025 15.608 92.9244 15.6568 92.6663 15.7622C92.4081 15.8677 92.1761 16.0273 91.986 16.2301C91.7959 16.433 91.6523 16.6742 91.5651 16.9373C91.4779 17.2004 91.449 17.4791 91.4806 17.7543V23.2586H89.5605L89.5606 13.9786Z" fill="white"/>
<path d="M103.198 20.5328C102.94 22.2174 101.286 23.3735 99.17 23.3735C96.4488 23.3735 94.7598 21.5648 94.7598 18.6629C94.7598 15.7521 96.4579 13.8643 99.0893 13.8643C101.677 13.8643 103.305 15.628 103.305 18.4417V19.0944H96.698V19.2095C96.6675 19.551 96.7106 19.8951 96.8245 20.2188C96.9383 20.5425 97.1203 20.8385 97.3583 21.0871C97.5963 21.3358 97.8849 21.5313 98.2049 21.6607C98.5249 21.7902 98.869 21.8506 99.2144 21.838C99.6682 21.8802 100.123 21.776 100.513 21.5408C100.902 21.3056 101.204 20.9521 101.375 20.5328L103.198 20.5328ZM96.7071 17.7631H101.384C101.401 17.456 101.354 17.1487 101.246 16.8604C101.138 16.5722 100.971 16.3092 100.755 16.0881C100.54 15.8669 100.281 15.6923 99.9939 15.5753C99.7072 15.4582 99.3992 15.4012 99.0893 15.4078C98.7766 15.4059 98.4667 15.4655 98.1773 15.5831C97.888 15.7007 97.625 15.874 97.4035 16.093C97.182 16.312 97.0065 16.5723 96.8869 16.8589C96.7674 17.1456 96.7063 17.4529 96.7071 17.7631Z" fill="white"/>
<path d="M29.2639 0.949323C29.6665 0.920665 30.0704 0.980996 30.4466 1.12596C30.8228 1.27093 31.1619 1.49693 31.4394 1.78764C31.7169 2.07836 31.9259 2.42655 32.0513 2.8071C32.1768 3.18765 32.2155 3.59108 32.1647 3.98828C32.1647 5.94219 31.1003 7.06533 29.2639 7.06533H27.0371V0.949323H29.2639ZM27.9946 6.2004H29.157C29.4446 6.21746 29.7325 6.17067 29.9996 6.06344C30.2667 5.95621 30.5064 5.79123 30.7011 5.58053C30.8959 5.36983 31.0408 5.11869 31.1254 4.84541C31.21 4.57212 31.2321 4.28357 31.1901 4.00075C31.229 3.71904 31.2047 3.43228 31.1188 3.161C31.0329 2.88972 30.8876 2.64064 30.6933 2.43161C30.499 2.22258 30.2605 2.05878 29.9949 1.95194C29.7293 1.84509 29.4431 1.79786 29.157 1.81361H27.9946V6.2004Z" fill="white"/>
<path d="M33.2467 4.75563C33.2175 4.45231 33.2524 4.14628 33.3494 3.85716C33.4463 3.56804 33.6031 3.30221 33.8097 3.07673C34.0163 2.85125 34.2681 2.67109 34.549 2.54781C34.8299 2.42452 35.1336 2.36084 35.4407 2.36084C35.7479 2.36084 36.0516 2.42452 36.3325 2.54781C36.6134 2.67109 36.8652 2.85125 37.0717 3.07673C37.2783 3.30221 37.4351 3.56804 37.5321 3.85716C37.629 4.14628 37.664 4.45231 37.6348 4.75563C37.6646 5.05926 37.63 5.36571 37.5333 5.6553C37.4366 5.94489 37.2799 6.2112 37.0733 6.43713C36.8666 6.66305 36.6147 6.84359 36.3335 6.96714C36.0523 7.09068 35.7482 7.15451 35.4407 7.15451C35.1332 7.15451 34.8291 7.09068 34.548 6.96714C34.2668 6.84359 34.0148 6.66305 33.8082 6.43713C33.6016 6.2112 33.4449 5.94489 33.3482 5.6553C33.2515 5.36571 33.2169 5.05926 33.2467 4.75563ZM36.6903 4.75563C36.6903 3.75516 36.2373 3.17009 35.4422 3.17009C34.6441 3.17009 34.1952 3.75516 34.1952 4.75564C34.1952 5.76413 34.6442 6.34469 35.4422 6.34469C36.2373 6.34468 36.6903 5.76011 36.6903 4.75563Z" fill="white"/>
<path d="M43.4669 7.06521H42.5144L41.5529 3.66589H41.4802L40.5227 7.06521H39.5793L38.2969 2.44971H39.2282L40.0616 5.97161H40.1302L41.0867 2.44971H41.9676L42.9241 5.97161H42.9967L43.8261 2.44971H44.7443L43.4669 7.06521Z" fill="white"/>
<path d="M45.8242 2.44959H46.7081V3.18281H46.7767C46.8931 2.91946 47.0894 2.69871 47.3383 2.55131C47.5871 2.4039 47.8762 2.3372 48.1651 2.3605C48.3914 2.34362 48.6187 2.37748 48.8301 2.45958C49.0415 2.54167 49.2316 2.66991 49.3862 2.83477C49.5409 2.99964 49.6562 3.19691 49.7235 3.41197C49.7909 3.62704 49.8086 3.85439 49.7754 4.07717V7.06505H48.8572V4.30591C48.8572 3.56419 48.5323 3.19532 47.8533 3.19532C47.6996 3.18822 47.5462 3.21417 47.4035 3.2714C47.2609 3.32862 47.1324 3.41577 47.0269 3.52687C46.9214 3.63796 46.8413 3.77037 46.7922 3.91503C46.7431 4.05969 46.7261 4.21318 46.7424 4.36496V7.0651H45.8242L45.8242 2.44959Z" fill="white"/>
<path d="M51.2383 0.647949H52.1565V7.06521H51.2383V0.647949Z" fill="white"/>
<path d="M53.4322 4.75571C53.403 4.45238 53.438 4.14633 53.535 3.8572C53.632 3.56806 53.7888 3.30223 53.9954 3.07674C54.202 2.85126 54.4538 2.67109 54.7347 2.54781C55.0156 2.42452 55.3194 2.36084 55.6265 2.36084C55.9337 2.36084 56.2374 2.42452 56.5183 2.54781C56.7992 2.67109 57.051 2.85126 57.2576 3.07674C57.4642 3.30223 57.6211 3.56806 57.718 3.8572C57.815 4.14633 57.85 4.45238 57.8208 4.75571C57.8506 5.05935 57.816 5.36581 57.7192 5.6554C57.6225 5.94499 57.4658 6.21129 57.2591 6.43721C57.0525 6.66313 56.8005 6.84366 56.5193 6.9672C56.2381 7.09075 55.934 7.15457 55.6265 7.15457C55.319 7.15457 55.0149 7.09075 54.7337 6.9672C54.4525 6.84366 54.2005 6.66313 53.9939 6.43721C53.7872 6.21129 53.6305 5.94499 53.5338 5.6554C53.4371 5.36581 53.4025 5.05935 53.4322 4.75571ZM56.8759 4.75571C56.8759 3.75524 56.4228 3.17017 55.6278 3.17017C54.8297 3.17017 54.3807 3.75524 54.3807 4.75572C54.3807 5.76421 54.8297 6.34477 55.6278 6.34477C56.4228 6.34476 56.8759 5.76019 56.8759 4.75571Z" fill="white"/>
<path d="M58.7871 5.76015C58.7871 4.92934 59.4107 4.45037 60.5175 4.3823L61.7777 4.31024V3.91185C61.7777 3.42437 61.4528 3.14911 60.8252 3.14911C60.3127 3.14911 59.9575 3.33579 59.8556 3.66211H58.9667C59.0605 2.86933 59.8122 2.36084 60.8676 2.36084C62.034 2.36084 62.6919 2.93689 62.6919 3.91185V7.06543H61.808V6.4168H61.7353C61.5879 6.64946 61.3808 6.83914 61.1353 6.96645C60.8898 7.09377 60.6146 7.15416 60.3379 7.14147C60.1426 7.16162 59.9452 7.14095 59.7584 7.08079C59.5717 7.02062 59.3997 6.9223 59.2536 6.79215C59.1075 6.66201 58.9905 6.50294 58.9101 6.32518C58.8298 6.14743 58.7879 5.95495 58.7871 5.76015ZM61.7777 5.36576V4.97989L60.6416 5.05196C60.0009 5.09449 59.7103 5.31071 59.7103 5.7176C59.7103 6.133 60.0735 6.37474 60.573 6.37474C60.7194 6.38944 60.8672 6.37478 61.0077 6.33163C61.1483 6.28849 61.2786 6.21775 61.391 6.12361C61.5034 6.02947 61.5955 5.91387 61.662 5.78367C61.7284 5.65348 61.7678 5.51136 61.7777 5.36576Z" fill="white"/>
<path d="M63.8984 4.75547C63.8984 3.29705 64.6542 2.37315 65.8296 2.37315C66.1204 2.35986 66.4089 2.42894 66.6616 2.57234C66.9142 2.71573 67.1205 2.9275 67.2563 3.1829H67.3249V0.647949H68.2431V7.06521H67.3633V6.33599H67.2906C67.1443 6.58967 66.9309 6.79881 66.6733 6.94075C66.4158 7.08269 66.124 7.15204 65.8296 7.14127C64.6461 7.14132 63.8984 6.2174 63.8984 4.75547ZM64.8469 4.75547C64.8469 5.73443 65.3121 6.32351 66.09 6.32351C66.8638 6.32351 67.3421 5.72593 67.3421 4.75948C67.3421 3.79754 66.8588 3.19145 66.09 3.19145C65.3171 3.19145 64.8469 3.78452 64.8469 4.75547Z" fill="white"/>
<path d="M72.0416 4.75563C72.0124 4.45231 72.0474 4.14628 72.1443 3.85716C72.2413 3.56804 72.3981 3.30221 72.6046 3.07673C72.8112 2.85125 73.063 2.67109 73.3439 2.54781C73.6248 2.42452 73.9285 2.36084 74.2357 2.36084C74.5428 2.36084 74.8465 2.42452 75.1274 2.54781C75.4083 2.67109 75.6601 2.85125 75.8667 3.07673C76.0732 3.30221 76.23 3.56804 76.327 3.85716C76.424 4.14628 76.4589 4.45231 76.4297 4.75563C76.4595 5.05926 76.4249 5.36571 76.3282 5.6553C76.2315 5.94489 76.0748 6.2112 75.8682 6.43713C75.6616 6.66305 75.4096 6.84359 75.1284 6.96714C74.8473 7.09068 74.5432 7.15451 74.2357 7.15451C73.9282 7.15451 73.624 7.09068 73.3429 6.96714C73.0617 6.84359 72.8097 6.66305 72.6031 6.43713C72.3965 6.2112 72.2398 5.94489 72.1431 5.6553C72.0464 5.36571 72.0118 5.05926 72.0416 4.75563ZM75.4853 4.75563C75.4853 3.75516 75.0322 3.17009 74.2372 3.17009C73.4391 3.17009 72.9901 3.75516 72.9901 4.75564C72.9901 5.76413 73.4391 6.34469 74.2372 6.34469C75.0322 6.34468 75.4853 5.76011 75.4853 4.75563Z" fill="white"/>
<path d="M77.6621 2.44959H78.546V3.18281H78.6146C78.731 2.91946 78.9273 2.69871 79.1762 2.55131C79.425 2.4039 79.7141 2.3372 80.003 2.3605C80.2293 2.34362 80.4566 2.37748 80.668 2.45958C80.8794 2.54167 81.0695 2.66991 81.2241 2.83477C81.3788 2.99964 81.494 3.19691 81.5614 3.41197C81.6288 3.62704 81.6465 3.85439 81.6133 4.07717V7.06505H80.6951V4.30591C80.6951 3.56419 80.3702 3.19532 79.6912 3.19532C79.5375 3.18822 79.384 3.21417 79.2414 3.2714C79.0988 3.32862 78.9703 3.41577 78.8648 3.52687C78.7593 3.63796 78.6792 3.77037 78.6301 3.91503C78.581 4.05969 78.564 4.21318 78.5803 4.36496V7.0651H77.6621V2.44959Z" fill="white"/>
<path d="M86.8023 1.30078V2.47092H87.8103V3.23817H86.8023V5.61149C86.8023 6.09496 87.0031 6.30666 87.4601 6.30666C87.5772 6.30629 87.6941 6.29927 87.8103 6.28564V7.04438C87.6454 7.07364 87.4783 7.08921 87.3108 7.09092C86.2897 7.09092 85.8831 6.73457 85.8831 5.84471V3.23813H85.1445V2.47088H85.8831V1.30078H86.8023Z" fill="white"/>
<path d="M89.0645 0.647949H89.9746V3.19144H90.0472C90.1692 2.92563 90.3709 2.70363 90.6248 2.55567C90.8787 2.40771 91.1723 2.341 91.4658 2.36463C91.691 2.35247 91.9161 2.38977 92.1251 2.47386C92.3341 2.55796 92.5218 2.68677 92.6748 2.85112C92.8279 3.01546 92.9425 3.21129 93.0104 3.42463C93.0784 3.63797 93.0981 3.86356 93.068 4.08531V7.06522H92.1489V4.31002C92.1489 3.5728 91.8028 3.19943 91.1541 3.19943C90.9963 3.18659 90.8375 3.20811 90.689 3.26249C90.5404 3.31687 90.4057 3.4028 90.2941 3.51425C90.1825 3.62571 90.0968 3.76 90.043 3.90775C89.9892 4.05549 89.9686 4.2131 89.9827 4.36957V7.0652H89.0645L89.0645 0.647949Z" fill="white"/>
<path d="M98.4212 5.8188C98.2965 6.24063 98.0262 6.60551 97.6577 6.84961C97.2891 7.09372 96.8458 7.2015 96.4053 7.1541C96.0988 7.16212 95.7942 7.10388 95.5126 6.98342C95.2311 6.86295 94.9793 6.68314 94.7749 6.45648C94.5704 6.22981 94.4181 5.96172 94.3285 5.6708C94.2389 5.37988 94.2143 5.07311 94.2562 4.77178C94.2154 4.46952 94.2405 4.16209 94.3298 3.87031C94.4192 3.57852 94.5707 3.30918 94.7741 3.08053C94.9775 2.85188 95.228 2.66925 95.5088 2.54502C95.7895 2.42078 96.0939 2.35783 96.4013 2.36043C97.6958 2.36043 98.4767 3.23783 98.4767 4.68718V5.00502H95.1915V5.05607C95.1771 5.22544 95.1986 5.39593 95.2545 5.5566C95.3104 5.71727 95.3996 5.86457 95.5162 5.98906C95.6329 6.11355 95.7745 6.21249 95.9319 6.27952C96.0894 6.34655 96.2592 6.3802 96.4305 6.37832C96.6501 6.40447 96.8727 6.36524 97.0697 6.2656C97.2668 6.16597 97.4296 6.01043 97.5374 5.81877L98.4212 5.8188ZM95.1915 4.33135H97.5414C97.553 4.17644 97.5317 4.02085 97.4791 3.87456C97.4264 3.72828 97.3435 3.59454 97.2357 3.48193C97.1278 3.36933 96.9974 3.28035 96.8528 3.22072C96.7083 3.16109 96.5527 3.13213 96.3962 3.13569C96.2374 3.13371 96.0798 3.16329 95.9327 3.22268C95.7856 3.28207 95.652 3.37008 95.5397 3.48151C95.4274 3.59294 95.3388 3.72554 95.279 3.8715C95.2192 4.01745 95.1894 4.17381 95.1915 4.33135Z" fill="white"/>
</svg>
