<svg width="105" height="26" viewBox="0 0 105 26" fill="none" xmlns="http://www.w3.org/2000/svg">
<path d="M33.9806 3.60026C33.9806 4.36451 33.7579 4.9731 33.3121 5.42709C32.8056 5.96692 32.1456 6.23704 31.3341 6.23704C30.557 6.23704 29.8964 5.9634 29.353 5.41532C28.8087 4.86765 28.5371 4.18851 28.5371 3.37823C28.5371 2.56757 28.8087 1.88884 29.353 1.34073C29.8964 0.793101 30.557 0.519043 31.3341 0.519043C31.7197 0.519043 32.0888 0.595705 32.4393 0.74858C32.7898 0.901823 33.0709 1.10524 33.2813 1.35999L32.808 1.84137C32.4516 1.40845 31.9609 1.19216 31.3341 1.19216C30.7674 1.19216 30.2774 1.39459 29.8638 1.79972C29.4501 2.20525 29.2434 2.73115 29.2434 3.37823C29.2434 4.02535 29.4501 4.55121 29.8638 4.95678C30.2774 5.3619 30.7674 5.5643 31.3341 5.5643C31.9353 5.5643 32.4365 5.36079 32.8378 4.95321C33.0983 4.68768 33.249 4.31859 33.2893 3.84464H31.3341V3.18723H33.943C33.9682 3.33018 33.9805 3.46735 33.9805 3.60026" fill="white"/>
<path d="M33.9804 3.60017H33.8907C33.8899 4.347 33.6754 4.92705 33.2484 5.36251L33.2475 5.36325L33.2471 5.36398C32.7567 5.88521 32.1264 6.14463 31.3339 6.14574C30.5776 6.14463 29.9445 5.88238 29.4159 5.35074C28.8885 4.81804 28.6277 4.16772 28.6266 3.37814C28.6277 2.58818 28.8885 1.93823 29.4159 1.4059C29.9445 0.873895 30.5776 0.611275 31.3339 0.610168C31.7079 0.610168 32.0641 0.684371 32.4037 0.832202C32.7437 0.981182 33.0122 1.1764 33.2123 1.41877L33.2811 1.3599L33.2176 1.29542L32.7444 1.77712L32.8078 1.84128L32.8769 1.7829C32.5039 1.32854 31.9803 1.0995 31.3339 1.10085C30.7462 1.10011 30.2292 1.31362 29.8015 1.73411C29.3697 2.15596 29.1528 2.71146 29.1535 3.37814C29.1528 4.04486 29.3697 4.60031 29.8015 5.0222C30.2292 5.4427 30.7462 5.65616 31.3339 5.65542C31.955 5.65653 32.4844 5.44233 32.9011 5.01761C33.1794 4.73392 33.3372 4.34097 33.3785 3.85238L33.3869 3.75333H31.4237V3.27835H33.9428V3.18714L33.8545 3.20317C33.879 3.34149 33.8907 3.47292 33.8907 3.60017H34.0701C34.0701 3.46152 34.0574 3.31902 34.0311 3.17082L34.0179 3.09592H31.2442V3.93576H33.2891V3.84455L33.1997 3.83672C33.1602 4.29571 33.0164 4.64135 32.7742 4.88868C32.3887 5.27916 31.9155 5.47188 31.3339 5.47299C30.7882 5.47225 30.3252 5.28125 29.926 4.89109C29.5306 4.50233 29.334 4.00599 29.3329 3.37814C29.334 2.75028 29.5306 2.25394 29.926 1.86518C30.3252 1.47502 30.7882 1.28402 31.3339 1.28328C31.9407 1.28476 32.3989 1.48855 32.7392 1.90011L32.8023 1.97636L33.3446 1.42443L33.4027 1.36531L33.3498 1.30144C33.1293 1.03427 32.8356 0.822199 32.4745 0.664775C32.1128 0.506858 31.7311 0.427736 31.3339 0.427736C30.5362 0.427039 29.8478 0.712084 29.2894 1.27619C28.729 1.83919 28.4465 2.54686 28.4473 3.37814C28.4465 4.20904 28.729 4.91713 29.2898 5.48045C29.8478 6.04419 30.5362 6.32891 31.3339 6.32817C32.1647 6.32891 32.8538 6.04841 33.3768 5.49005L33.3119 5.42699L33.3753 5.49152C33.8401 5.01937 34.0707 4.38156 34.0701 3.60017H33.9804ZM38.1163 1.31395H35.6645V3.04931H37.8756V3.70697H35.6645V5.44233H38.1163V6.1147H34.9733V0.641571H38.1163V1.31395Z" fill="white"/>
<path d="M38.1175 1.31388V1.22267H35.576V3.14046H37.787V3.61544L35.5759 3.61569V5.53348H38.0277V6.02342H35.0642V0.732725H38.0277V1.31388H38.1175H38.2072V0.550293H34.8848V6.20586H38.2072V5.35105H35.7554V3.79812H37.9665V2.95803H35.7554V1.4051H38.2072V1.31388H38.1175ZM41.0348 6.11468H40.3425V1.31384H38.8388V0.641468H42.5385V1.31384H41.0348V6.1146" fill="white"/>
<path d="M41.0337 6.11468V6.02342H40.4312V1.22267H38.9275V0.732766H42.4477V1.22267H40.944V6.11464H41.0337H41.1235V1.4051H42.6272V0.550293H38.748V1.40506H40.2517V6.20582H41.1235V6.1146H41.0337M45.2143 6.11468V0.641468H45.9059V6.1146H45.2143" fill="white"/>
<path d="M45.2147 6.11468H45.3045V0.732725H45.8165V6.02342H45.2147V6.11464V6.20586H45.996V0.550293H45.125V6.20586H45.2147V6.11464M48.975 6.11468H48.2827V1.31384H46.7791V0.641468H50.4787V1.31384H48.975V6.1146" fill="white"/>
<path d="M48.9751 6.11484V6.02358H48.3725V1.22282H46.8689V0.732919H50.389V1.22282H48.8853V6.11479H48.9751H49.0648V1.40525H50.5685V0.550446H46.6895V1.40521H48.1931V6.20597H49.0648V6.11475H48.9751M54.0456 4.94932C54.4441 5.3594 54.9317 5.56426 55.5083 5.56426C56.0849 5.56426 56.5727 5.3594 56.9706 4.94932C57.3695 4.53919 57.5693 4.01494 57.5693 3.37823C57.5693 2.74156 57.3695 2.2173 56.9706 1.80718C56.5727 1.39705 56.0849 1.19216 55.5083 1.19216C54.9317 1.19216 54.4441 1.39705 54.0456 1.80718C53.6477 2.2173 53.448 2.74152 53.448 3.37823C53.448 4.01494 53.6477 4.53919 54.0456 4.94932ZM57.4823 5.40749C56.953 5.96081 56.2948 6.23704 55.5083 6.23704C54.721 6.23704 54.063 5.96081 53.5349 5.40749C53.0052 4.85478 52.7417 4.17822 52.7417 3.37823C52.7417 2.57823 53.0052 1.90155 53.5349 1.34897C54.0631 0.79552 54.721 0.519043 55.5083 0.519043C56.2906 0.519043 56.9471 0.796996 57.4788 1.35253C58.0098 1.90803 58.2755 2.58323 58.2755 3.37823C58.2755 4.17822 58.0105 4.85478 57.4823 5.40749Z" fill="white"/>
<path d="M54.046 4.94923L53.9821 5.01335C54.3954 5.43987 54.911 5.65653 55.5086 5.65543C56.1059 5.65653 56.6222 5.43987 57.0348 5.01335C57.4508 4.58641 57.66 4.03412 57.6594 3.37814C57.66 2.7222 57.4508 2.16986 57.0348 1.74293C56.6222 1.31641 56.1059 1.09978 55.5086 1.10085C54.911 1.09978 54.3954 1.31641 53.9821 1.74293C53.5672 2.16986 53.3575 2.7222 53.3586 3.37814C53.3575 4.03407 53.5672 4.58641 53.9821 5.01335L54.046 4.94923L54.1098 4.88507C53.7291 4.4913 53.5388 3.99599 53.5381 3.37814C53.5388 2.76033 53.7291 2.26501 54.1097 1.87121C54.4939 1.47752 54.9527 1.28439 55.5086 1.28332C56.0642 1.28439 56.524 1.47752 56.9072 1.87121C57.2885 2.26501 57.4789 2.76033 57.4795 3.37814C57.4789 3.99595 57.2885 4.4913 56.9072 4.88507C56.524 5.2788 56.0642 5.47189 55.5086 5.47295C54.9527 5.47189 54.4939 5.2788 54.1098 4.88507L54.046 4.94923ZM57.4827 5.4074L57.4186 5.34402C56.904 5.87992 56.2749 6.14467 55.5086 6.14574C54.7421 6.14463 54.1129 5.87992 53.5993 5.34402C53.0859 4.80627 52.8325 4.1578 52.8318 3.37814C52.8325 2.59848 53.0859 1.95 53.5993 1.4123C54.1129 0.876356 54.742 0.611276 55.5086 0.61021C56.2699 0.611276 56.8977 0.877463 57.415 1.41619C57.9303 1.9564 58.1851 2.60385 58.1862 3.37814C58.1851 4.1578 57.931 4.80627 57.4186 5.34402L57.4827 5.4074L57.5472 5.47078C58.0912 4.90286 58.3663 4.19839 58.3657 3.37814C58.3663 2.56256 58.0901 1.85952 57.5437 1.28906C56.9969 0.716349 56.312 0.426753 55.5086 0.427737C54.7011 0.426753 54.0141 0.714996 53.4708 1.2855V1.28509C52.9258 1.85341 52.6516 2.55789 52.6523 3.37814C52.6516 4.19839 52.9258 4.90286 53.4708 5.47115L53.4732 5.47373L53.4708 5.47078C54.0141 6.04128 54.7011 6.32891 55.5086 6.32817C56.3158 6.32891 57.0028 6.04128 57.5472 5.47078L57.4827 5.4074ZM59.2468 6.11475V0.641531H60.0888L62.7053 4.89925H62.7351L62.7053 3.84451V0.641531H63.3976V6.11466H62.6755L59.938 1.65061H59.9082L59.938 2.70572V6.11466H59.2468" fill="white"/>
<path d="M59.247 6.11468H59.3367V0.732725H60.0392L62.6557 4.99045H62.8274L62.7952 3.84313V0.732766H63.308V6.02342H62.7255L59.988 1.55937H59.8163L59.8485 2.70718V6.02342H59.247V6.11464V6.20586H60.0279V2.70426L59.9982 1.64813L59.9084 1.65059V1.7418H59.9382V1.65059L59.8621 1.69908L62.6259 6.20586H63.4875V0.550293H62.6158V3.84555L62.6456 4.90169L62.7353 4.89923V4.80802H62.7055V4.89923L62.7816 4.85082L60.1386 0.550293H59.1573V6.20586H59.247V6.11464M87.3871 21.6219H89.0615V10.2184H87.3871L87.3871 21.6219ZM102.468 14.3262L100.549 19.2702H100.491L98.4993 14.3262H96.6957L99.6829 21.2363L97.9798 25.08H99.7268L104.33 14.3262L102.468 14.3262ZM92.9728 20.3267C92.4237 20.3267 91.6592 20.048 91.6592 19.3582C91.6592 18.478 92.6121 18.1406 93.434 18.1406C94.1708 18.1406 94.5162 18.302 94.9639 18.5223C94.8338 19.5784 93.9392 20.3267 92.9728 20.3267ZM93.1747 14.0767C91.9624 14.0767 90.7071 14.6197 90.1876 15.8227L91.6735 16.4534C91.9911 15.8227 92.5825 15.6171 93.2034 15.6171C94.0693 15.6171 94.9496 16.1455 94.9639 17.0845V17.2017C94.6606 17.0256 94.0119 16.7616 93.2178 16.7616C91.6161 16.7616 89.9848 17.6563 89.9848 19.3289C89.9848 20.8548 91.2985 21.8378 92.77 21.8378C93.8962 21.8378 94.5162 21.3243 94.9065 20.7229H94.9639V21.603H96.58V17.2309C96.58 15.2067 95.094 14.0767 93.1747 14.0767ZM82.827 15.7144H80.4455V11.8055H82.827C84.0787 11.8055 84.7894 12.8591 84.7894 13.7599C84.7894 14.6436 84.0787 15.7144 82.827 15.7144ZM82.7839 10.2184H78.772V21.6219H80.4455V17.3015H82.7839C84.6395 17.3015 86.4637 15.9356 86.4637 13.7599C86.4637 11.5842 84.6395 10.2184 82.7839 10.2184ZM60.9067 20.3288C59.75 20.3288 58.7815 19.3443 58.7815 17.992C58.7815 16.6256 59.75 15.626 60.9067 15.626C62.0487 15.626 62.9449 16.6255 62.9449 17.992C62.9449 19.3443 62.0486 20.3288 60.9067 20.3288ZM62.8292 14.9647H62.7714C62.3956 14.5093 61.6725 14.0978 60.7619 14.0978C58.8537 14.0978 57.1047 15.8024 57.1047 17.992C57.1047 20.1671 58.8537 21.8571 60.7619 21.8571C61.6725 21.8571 62.3956 21.4455 62.7714 20.9755H62.8292V21.5339C62.8292 23.0184 62.0487 23.8119 60.791 23.8119C59.7647 23.8119 59.1286 23.0621 58.8681 22.4304L57.4083 23.0476C57.8275 24.0762 58.9406 25.3402 60.791 25.3402C62.757 25.3402 64.4195 24.1642 64.4195 21.2987V14.3329H62.8292V14.9647ZM65.5758 21.6219H67.2527V10.218H65.5758V21.6219ZM69.7248 17.8598C69.6813 16.3607 70.8668 15.5968 71.7196 15.5968C72.385 15.5968 72.9485 15.9346 73.1361 16.42L69.7248 17.8598ZM74.9289 16.5667C74.6112 15.6994 73.6421 14.0978 71.6617 14.0978C69.6957 14.0978 68.0623 15.6702 68.0623 17.9774C68.0623 20.1525 69.6813 21.8571 71.8496 21.8571C73.5991 21.8571 74.6112 20.7695 75.0303 20.1377L73.7292 19.2558C73.2958 19.9026 72.7027 20.3288 71.8496 20.3288C70.9968 20.3288 70.3898 19.9319 69.9992 19.1532L75.1021 17.0075L74.9289 16.5667ZM34.2735 15.2882V16.9341H38.1476C38.032 17.8598 37.7284 18.5358 37.2658 19.0061C36.7022 19.5794 35.8203 20.2112 34.2735 20.2112C31.8882 20.2112 30.0235 18.2567 30.0235 15.8319C30.0235 13.4072 31.8882 11.4524 34.2735 11.4524C35.5602 11.4524 36.4996 11.9669 37.1935 12.6282L38.3356 11.4674C37.3671 10.5266 36.0804 9.80658 34.2735 9.80658C31.0064 9.80658 28.2598 12.5107 28.2598 15.8319C28.2598 19.1532 31.0064 21.8571 34.2735 21.8571C36.0373 21.8571 37.3671 21.2695 38.4078 20.1671C39.4776 19.0795 39.8102 17.5513 39.8102 16.317C39.8102 15.9346 39.7814 15.5822 39.7232 15.2882H34.2735ZM44.2147 20.3288C43.058 20.3288 42.0605 19.3588 42.0605 17.9774C42.0605 16.5813 43.058 15.626 44.2147 15.626C45.371 15.626 46.3685 16.5813 46.3685 17.9774C46.3685 19.3589 45.371 20.3288 44.2147 20.3288ZM44.2147 14.0978C42.1039 14.0978 40.3836 15.7289 40.3836 17.9774C40.3836 20.2112 42.1039 21.8571 44.2147 21.8571C46.3251 21.8571 48.0454 20.2112 48.0454 17.9774C48.0454 15.7289 46.3251 14.0978 44.2147 14.0978ZM52.5715 20.3288C51.4152 20.3288 50.4176 19.3588 50.4176 17.9774C50.4176 16.5813 51.4152 15.626 52.5715 15.626C53.7279 15.626 54.7254 16.5813 54.7254 17.9774C54.7254 19.3589 53.7278 20.3288 52.5715 20.3288ZM52.5715 14.0978C50.4608 14.0978 48.7408 15.7289 48.7408 17.9774C48.7408 20.2112 50.4608 21.8571 52.5715 21.8571C54.682 21.8571 56.4023 20.2112 56.4023 17.9774C56.4023 15.7289 54.6819 14.0978 52.5715 14.0978Z" fill="white"/>
<path d="M0.86173 1.19895C0.560605 1.47514 0.380859 1.93581 0.380859 2.5473V2.40907V22.5877V22.4548C0.380859 23.0195 0.535037 23.4556 0.796133 23.7365L0.86278 23.8014V23.8016C1.07411 23.9955 1.34511 24.0985 1.65568 24.0981C1.95915 24.0981 2.30059 23.9998 2.66093 23.7921L15.6855 16.269L20.1594 13.6846C20.7276 13.3564 21.0465 12.9331 21.0999 12.5019V12.5002C21.0465 12.068 20.7276 11.645 20.1594 11.3168L15.6851 8.7327L2.66097 1.20961C2.29986 1.00155 1.95818 0.902832 1.6539 0.902832C1.34369 0.902832 1.07306 1.00544 0.861811 1.19895H0.86173Z" fill="#00C1FF"/>
<path d="M0.862821 23.8018L0.796133 23.7369C0.535037 23.4561 0.380859 23.0199 0.380859 22.4552V22.5881V2.41446V2.5477C0.380859 1.9362 0.560605 1.47553 0.86173 1.19934L11.9792 12.5009L0.862821 23.8018Z" fill="url(#paint0_linear_3394_4909)"/>
<path d="M15.6848 16.269L11.9785 12.5006L15.6845 8.73279L20.1587 11.3168C20.7269 11.6451 21.0459 12.068 21.0992 12.5002V12.502C21.0459 12.9332 20.7269 13.3565 20.1587 13.6846L15.6849 16.269" fill="url(#paint1_linear_3394_4909)"/>
<path d="M1.6561 24.0981C1.34557 24.0984 1.07457 23.9954 0.863281 23.8016V23.8013L11.9797 12.5005L15.686 16.2689L2.66135 23.7921C2.30101 23.9998 1.95957 24.0981 1.6561 24.0981Z" fill="url(#paint2_linear_3394_4909)"/>
<path d="M11.9788 12.501L0.861328 1.1994C1.07266 1.0059 1.34329 0.903285 1.65346 0.903285C1.95774 0.903285 2.29946 1.00196 2.66052 1.21006L15.6848 8.73316L11.9788 12.501" fill="url(#paint3_linear_3394_4909)"/>
<path d="M1.65475 24.2319C1.34422 24.2319 1.07286 24.129 0.861529 23.9351C0.860659 23.9342 0.859364 23.9337 0.858378 23.933L0.800577 23.8756C0.798759 23.8738 0.797063 23.8717 0.794922 23.8696L0.861569 23.8018C1.0729 23.9957 1.34385 24.0987 1.65447 24.0983C1.9579 24.0983 2.29933 24 2.65967 23.7923L15.6843 16.2692L15.7677 16.354L15.6832 16.4028L2.65963 23.9255C2.33124 24.1147 2.01889 24.2134 1.73675 24.2298C1.70944 24.2312 1.6821 24.2319 1.65475 24.2319Z" fill="url(#paint4_linear_3394_4909)"/>
<path d="M0.796133 23.8696C0.535037 23.5888 0.380859 23.153 0.380859 22.5879V22.455C0.380859 23.0197 0.535037 23.4559 0.796133 23.7367L0.86278 23.8016L0.796133 23.8696Z" fill="url(#paint5_linear_3394_4909)"/>
<path d="M15.769 16.354L15.6855 16.2691L20.1594 13.6847C20.7276 13.3566 21.0466 12.9333 21.0999 12.5021C21.0999 12.6603 21.0652 12.8185 20.9962 12.9725C20.857 13.2828 20.578 13.5761 20.1594 13.818L15.769 16.354" fill="url(#paint6_linear_3394_4909)"/>
<path d="M21.1003 12.5005C21.0469 12.0683 20.728 11.6453 20.1598 11.3171L15.6855 8.73304L15.769 8.64818H15.7694L20.1598 11.1842C20.7862 11.5462 21.0999 12.0233 21.1003 12.5005Z" fill="url(#paint7_linear_3394_4909)"/>
<path d="M0.380859 2.54736V2.40798C0.380859 2.35772 0.382192 2.30856 0.384737 2.26084V2.25867C0.384737 2.25801 0.384737 2.25732 0.384979 2.25658V2.25121C0.412002 1.76479 0.560605 1.38537 0.796133 1.13202L0.86173 1.19896C0.560605 1.47519 0.380859 1.93587 0.380859 2.54736Z" fill="url(#paint8_linear_3394_4909)"/>
<path d="M15.6839 8.73291L2.65967 1.20973C2.29861 1.00168 1.95693 0.903 1.65265 0.903C1.34244 0.903 1.07181 1.00561 0.860519 1.19911L0.794922 1.13213C0.815407 1.11008 0.836695 1.08882 0.858742 1.06838C0.859428 1.06764 0.860519 1.0669 0.861206 1.06621C1.07084 0.87418 1.3386 0.771567 1.64603 0.769722H1.65265C1.95693 0.769722 2.29861 0.86844 2.65967 1.07658L15.7677 8.64776L15.7673 8.64805L15.6839 8.73291Z" fill="url(#paint9_linear_3394_4909)"/>
<defs>
<linearGradient id="paint0_linear_3394_4909" x1="7.48559" y1="2.20125" x2="-2.23752" y2="11.7966" gradientUnits="userSpaceOnUse">
<stop stop-color="#00A0FF"/>
<stop offset="0.00657" stop-color="#00A1FF"/>
<stop offset="0.2601" stop-color="#00BEFF"/>
<stop offset="0.5122" stop-color="#00D2FF"/>
<stop offset="0.7604" stop-color="#00DFFF"/>
<stop offset="1" stop-color="#00E3FF"/>
</linearGradient>
<linearGradient id="paint1_linear_3394_4909" x1="21.7914" y1="12.4355" x2="0.0793186" y2="12.4355" gradientUnits="userSpaceOnUse">
<stop stop-color="#FFE000"/>
<stop offset="0.4087" stop-color="#FFBD00"/>
<stop offset="0.7754" stop-color="#FFA500"/>
<stop offset="1" stop-color="#FF9C00"/>
</linearGradient>
<linearGradient id="paint2_linear_3394_4909" x1="13.7182" y1="16.0834" x2="-2.75651" y2="32.2229" gradientUnits="userSpaceOnUse">
<stop stop-color="#FF3A44"/>
<stop offset="1" stop-color="#C31162"/>
</linearGradient>
<linearGradient id="paint3_linear_3394_4909" x1="-2.00396" y1="-0.476112" x2="5.33863" y2="6.72815" gradientUnits="userSpaceOnUse">
<stop stop-color="#32A071"/>
<stop offset="0.0685" stop-color="#2DA771"/>
<stop offset="0.4762" stop-color="#15CF74"/>
<stop offset="0.8009" stop-color="#06E775"/>
<stop offset="1" stop-color="#00F076"/>
</linearGradient>
<linearGradient id="paint4_linear_3394_4909" x1="13.7085" y1="18.6976" x2="0.513222" y2="31.7196" gradientUnits="userSpaceOnUse">
<stop stop-color="#CC2E36"/>
<stop offset="1" stop-color="#9C0E4E"/>
</linearGradient>
<linearGradient id="paint5_linear_3394_4909" x1="1.86187" y1="2.20104" x2="-6.70406" y2="10.6546" gradientUnits="userSpaceOnUse">
<stop stop-color="#008DE0"/>
<stop offset="0.00657" stop-color="#008DE0"/>
<stop offset="0.2601" stop-color="#00A7E0"/>
<stop offset="0.5122" stop-color="#00B8E0"/>
<stop offset="0.7604" stop-color="#00C4E0"/>
<stop offset="1" stop-color="#00C7E0"/>
</linearGradient>
<linearGradient id="paint6_linear_3394_4909" x1="21.7922" y1="12.5012" x2="0.0800136" y2="12.5012" gradientUnits="userSpaceOnUse">
<stop stop-color="#E0C500"/>
<stop offset="0.4087" stop-color="#E0A600"/>
<stop offset="0.7754" stop-color="#E09100"/>
<stop offset="1" stop-color="#E08900"/>
</linearGradient>
<linearGradient id="paint7_linear_3394_4909" x1="21.7925" y1="12.5014" x2="0.0804442" y2="12.5014" gradientUnits="userSpaceOnUse">
<stop stop-color="#FFE840"/>
<stop offset="0.4087" stop-color="#FFCE40"/>
<stop offset="0.7754" stop-color="#FFBC40"/>
<stop offset="1" stop-color="#FFB540"/>
</linearGradient>
<linearGradient id="paint8_linear_3394_4909" x1="1.85271" y1="2.2164" x2="-6.39237" y2="10.0007" gradientUnits="userSpaceOnUse">
<stop stop-color="#40B8FF"/>
<stop offset="0.00657" stop-color="#40B9FF"/>
<stop offset="0.2601" stop-color="#40CEFF"/>
<stop offset="0.5122" stop-color="#40DDFF"/>
<stop offset="0.7604" stop-color="#40E7FF"/>
<stop offset="1" stop-color="#40EAFF"/>
</linearGradient>
<linearGradient id="paint9_linear_3394_4909" x1="-2.02101" y1="1.91367" x2="3.87125" y2="7.72861" gradientUnits="userSpaceOnUse">
<stop stop-color="#65B895"/>
<stop offset="0.0685" stop-color="#62BD95"/>
<stop offset="0.4762" stop-color="#50DB97"/>
<stop offset="0.8009" stop-color="#44ED98"/>
<stop offset="1" stop-color="#40F498"/>
</linearGradient>
</defs>
</svg>
